<svg width="202" height="52" viewBox="0 0 202 52" fill="none" xmlns="http://www.w3.org/2000/svg">
<rect width="201.382" height="51.8945" rx="3.87273" fill="#0D0D0D"/>
<path d="M48.8783 38.1104C41.5704 38.1104 35.6465 32.1865 35.6465 24.8785C35.6465 17.5706 41.5704 11.6467 48.8783 11.6467C56.1862 11.6467 62.1101 17.5706 62.1101 24.8785C62.1022 32.1825 56.1823 38.1024 48.8783 38.1104ZM43.2243 28.5663C43.0537 28.5663 42.8843 28.5874 42.7176 28.6271L42.5191 28.6814L41.7331 30.027C41.5896 30.2665 41.5435 30.552 41.6043 30.8245C41.6652 31.097 41.8285 31.3356 42.0603 31.4912C42.2922 31.6468 42.5749 31.7074 42.8501 31.6605C43.1254 31.6135 43.3721 31.4627 43.5393 31.2391L43.6213 31.116L44.6666 29.3019C44.4972 29.0754 44.2776 28.891 44.0251 28.7634C43.7726 28.6358 43.494 28.5683 43.2111 28.5663H43.2243ZM50.4807 20.4591C50.069 20.8458 49.796 21.3573 49.704 21.9146C49.5564 22.683 49.6978 23.4789 50.1009 24.1495L54.1234 31.1173C54.2634 31.3529 54.4866 31.5273 54.749 31.6062C55.0114 31.6851 55.2939 31.6627 55.5405 31.5434C55.7865 31.4221 55.9776 31.2125 56.0757 30.9564C56.1738 30.7003 56.1717 30.4166 56.0698 30.162L56.005 30.0297L54.9464 28.1891H56.521C56.7967 28.1868 57.0614 28.08 57.2614 27.8902C57.4615 27.7004 57.582 27.4418 57.5988 27.1665C57.6156 26.8913 57.5274 26.6199 57.3519 26.4072C57.1764 26.1945 56.9267 26.0563 56.6533 26.0205L56.521 26.0125H53.6894L50.7863 20.9844L50.4833 20.4551L50.4807 20.4591ZM41.2832 26.0033C41.1411 26.0036 41.0003 26.032 40.8691 26.0868C40.7379 26.1416 40.6188 26.2218 40.5187 26.3227C40.4185 26.4236 40.3392 26.5433 40.2854 26.6749C40.2315 26.8065 40.2041 26.9474 40.2048 27.0896C40.2048 27.6374 40.6124 28.1005 41.1562 28.1706L41.2885 28.1772H51.1859C51.2955 27.9573 51.3506 27.7143 51.3467 27.4686C51.3428 27.2229 51.2799 26.9817 51.1634 26.7654C51.0644 26.5627 50.9167 26.3877 50.7337 26.2559C50.5506 26.124 50.3378 26.0395 50.1142 26.0099L49.954 26.0019H46.5786L51.2468 17.9186C51.3906 17.668 51.4296 17.3708 51.3553 17.0916C51.3025 16.8957 51.196 16.7184 51.0479 16.5797C50.8997 16.441 50.7158 16.3464 50.5169 16.3065C50.3179 16.2666 50.1118 16.2831 49.9216 16.354C49.7315 16.4249 49.5649 16.5475 49.4407 16.7079L49.3586 16.8296L48.8783 17.6685L48.4033 16.8296C48.2633 16.5938 48.0398 16.4191 47.7771 16.3402C47.5144 16.2613 47.2316 16.2839 46.9848 16.4036C46.739 16.5254 46.548 16.7353 46.45 16.9915C46.3519 17.2477 46.3539 17.5315 46.4556 17.7863L46.5204 17.9186L47.6186 19.8505L44.0659 26.0033H41.2832Z" fill="white"/>
<path d="M78.6201 14.3437C79.5735 14.3437 80.3635 14.6837 80.9901 15.3637C81.6235 16.0371 81.9401 16.8637 81.9401 17.8437C81.9401 18.8237 81.6235 19.6537 80.9901 20.3337C80.3635 21.0071 79.5735 21.3438 78.6201 21.3438H75.8901V14.3437H78.6201ZM78.6201 20.4637C79.3335 20.4637 79.9168 20.2137 80.3701 19.7137C80.8235 19.2137 81.0501 18.5904 81.0501 17.8437C81.0501 17.0971 80.8235 16.4737 80.3701 15.9737C79.9168 15.4737 79.3335 15.2237 78.6201 15.2237H76.8201V20.4637H78.6201ZM88.8879 20.4137C88.1879 21.1204 87.3312 21.4738 86.3179 21.4738C85.3045 21.4738 84.4479 21.1204 83.7479 20.4137C83.0479 19.7071 82.6979 18.8504 82.6979 17.8437C82.6979 16.8304 83.0479 15.9737 83.7479 15.2737C84.4479 14.5671 85.3045 14.2137 86.3179 14.2137C87.3312 14.2137 88.1879 14.5671 88.8879 15.2737C89.5945 15.9737 89.9479 16.8304 89.9479 17.8437C89.9479 18.8504 89.5945 19.7071 88.8879 20.4137ZM84.3879 19.7837C84.9079 20.3037 85.5512 20.5637 86.3179 20.5637C87.0845 20.5637 87.7245 20.3037 88.2379 19.7837C88.7579 19.2571 89.0179 18.6104 89.0179 17.8437C89.0179 17.0704 88.7579 16.4237 88.2379 15.9037C87.7245 15.3771 87.0845 15.1137 86.3179 15.1137C85.5512 15.1137 84.9079 15.3771 84.3879 15.9037C83.8745 16.4237 83.6179 17.0704 83.6179 17.8437C83.6179 18.6104 83.8745 19.2571 84.3879 19.7837ZM92.2634 21.3438L90.2534 14.3437H91.2334L92.8334 20.1037L94.5334 14.3437H95.4734L97.1734 20.1037L98.7734 14.3437H99.7534L97.7434 21.3438H96.6634L95.0034 15.7537L93.3434 21.3438H92.2634ZM105.103 14.3437H106.033V21.3438H105.283L101.683 16.1137V21.3438H100.753V14.3437H101.503L105.103 19.5637V14.3437ZM108.461 20.4637H111.481V21.3438H107.531V14.3437H108.461V20.4637ZM117.755 20.4137C117.055 21.1204 116.198 21.4738 115.185 21.4738C114.172 21.4738 113.315 21.1204 112.615 20.4137C111.915 19.7071 111.565 18.8504 111.565 17.8437C111.565 16.8304 111.915 15.9737 112.615 15.2737C113.315 14.5671 114.172 14.2137 115.185 14.2137C116.198 14.2137 117.055 14.5671 117.755 15.2737C118.462 15.9737 118.815 16.8304 118.815 17.8437C118.815 18.8504 118.462 19.7071 117.755 20.4137ZM113.255 19.7837C113.775 20.3037 114.418 20.5637 115.185 20.5637C115.952 20.5637 116.592 20.3037 117.105 19.7837C117.625 19.2571 117.885 18.6104 117.885 17.8437C117.885 17.0704 117.625 16.4237 117.105 15.9037C116.592 15.3771 115.952 15.1137 115.185 15.1137C114.418 15.1137 113.775 15.3771 113.255 15.9037C112.742 16.4237 112.485 17.0704 112.485 17.8437C112.485 18.6104 112.742 19.2571 113.255 19.7837ZM124.289 21.3438L123.719 19.7737H120.569L119.999 21.3438H119.009L121.619 14.3437H122.669L125.279 21.3438H124.289ZM120.889 18.9037H123.399L122.139 15.4537L120.889 18.9037ZM128.835 14.3437C129.788 14.3437 130.578 14.6837 131.205 15.3637C131.838 16.0371 132.155 16.8637 132.155 17.8437C132.155 18.8237 131.838 19.6537 131.205 20.3337C130.578 21.0071 129.788 21.3438 128.835 21.3438H126.105V14.3437H128.835ZM128.835 20.4637C129.548 20.4637 130.132 20.2137 130.585 19.7137C131.038 19.2137 131.265 18.5904 131.265 17.8437C131.265 17.0971 131.038 16.4737 130.585 15.9737C130.132 15.4737 129.548 15.2237 128.835 15.2237H127.035V20.4637H128.835ZM139.813 15.2237H136.713V17.4937H139.683V18.3737H136.713V21.3438H135.783V14.3437H139.813V15.2237ZM145.089 21.3438L143.519 18.6637H141.869V21.3438H140.939V14.3437H143.739C144.339 14.3437 144.852 14.5571 145.279 14.9837C145.706 15.4037 145.919 15.9137 145.919 16.5137C145.919 16.9671 145.782 17.3804 145.509 17.7537C145.242 18.1271 144.896 18.3904 144.469 18.5437L146.119 21.3438H145.089ZM141.869 15.2137V17.8237H143.739C144.086 17.8237 144.379 17.6971 144.619 17.4437C144.866 17.1837 144.989 16.8737 144.989 16.5137C144.989 16.1537 144.866 15.8471 144.619 15.5937C144.379 15.3404 144.086 15.2137 143.739 15.2137H141.869ZM152.843 20.4137C152.143 21.1204 151.286 21.4738 150.273 21.4738C149.26 21.4738 148.403 21.1204 147.703 20.4137C147.003 19.7071 146.653 18.8504 146.653 17.8437C146.653 16.8304 147.003 15.9737 147.703 15.2737C148.403 14.5671 149.26 14.2137 150.273 14.2137C151.286 14.2137 152.143 14.5671 152.843 15.2737C153.55 15.9737 153.903 16.8304 153.903 17.8437C153.903 18.8504 153.55 19.7071 152.843 20.4137ZM148.343 19.7837C148.863 20.3037 149.506 20.5637 150.273 20.5637C151.04 20.5637 151.68 20.3037 152.193 19.7837C152.713 19.2571 152.973 18.6104 152.973 17.8437C152.973 17.0704 152.713 16.4237 152.193 15.9037C151.68 15.3771 151.04 15.1137 150.273 15.1137C149.506 15.1137 148.863 15.3771 148.343 15.9037C147.83 16.4237 147.573 17.0704 147.573 17.8437C147.573 18.6104 147.83 19.2571 148.343 19.7837ZM161.571 14.3437V21.3438H160.651V15.8737L158.361 19.6837H158.241L155.951 15.8837V21.3438H155.021V14.3437H156.071L158.301 18.0437L160.521 14.3437H161.571ZM83.473 38.3438L82.8954 36.5287H78.6053L78.0277 38.3438H75.1401L79.0673 26.7933H82.4334L86.3606 38.3438H83.473ZM79.3973 34.0536H82.1034L80.7504 29.8129L79.3973 34.0536ZM92.5432 26.7933C93.6762 26.7933 94.6332 27.1783 95.4143 27.9483C96.1953 28.7184 96.5858 29.6534 96.5858 30.7535C96.5858 31.8535 96.1953 32.7885 95.4143 33.5586C94.6332 34.3286 93.6762 34.7136 92.5432 34.7136H90.8106V38.3438H88.1705V26.7933H92.5432ZM92.5432 32.2385C92.9502 32.2385 93.2857 32.0955 93.5497 31.8095C93.8137 31.5235 93.9457 31.1715 93.9457 30.7535C93.9457 30.3354 93.8137 29.9834 93.5497 29.6974C93.2857 29.4114 92.9502 29.2684 92.5432 29.2684H90.8106V32.2385H92.5432ZM103.101 26.7933C104.234 26.7933 105.191 27.1783 105.972 27.9483C106.753 28.7184 107.144 29.6534 107.144 30.7535C107.144 31.8535 106.753 32.7885 105.972 33.5586C105.191 34.3286 104.234 34.7136 103.101 34.7136H101.368V38.3438H98.7283V26.7933H103.101ZM103.101 32.2385C103.508 32.2385 103.844 32.0955 104.108 31.8095C104.372 31.5235 104.504 31.1715 104.504 30.7535C104.504 30.3354 104.372 29.9834 104.108 29.6974C103.844 29.4114 103.508 29.2684 103.101 29.2684H101.368V32.2385H103.101ZM118.279 38.5748C117.102 38.5748 116.117 38.3217 115.325 37.8157C114.544 37.2987 113.989 36.6002 113.659 35.7201L115.936 34.4001C116.398 35.4671 117.206 36.0007 118.361 36.0007C119.407 36.0007 119.929 35.6871 119.929 35.0601C119.929 34.7191 119.759 34.4551 119.418 34.2681C119.088 34.0701 118.461 33.8446 117.536 33.5916C117.052 33.4596 116.629 33.3111 116.266 33.146C115.903 32.981 115.545 32.7665 115.193 32.5025C114.852 32.2275 114.588 31.8865 114.401 31.4795C114.225 31.0725 114.137 30.6049 114.137 30.0769C114.137 29.0099 114.517 28.1574 115.276 27.5193C116.046 26.8813 116.959 26.5623 118.015 26.5623C118.961 26.5623 119.797 26.7878 120.523 27.2388C121.249 27.6788 121.821 28.3224 122.239 29.1694L120.012 30.4729C119.803 30.0329 119.544 29.7029 119.236 29.4829C118.928 29.2519 118.521 29.1364 118.015 29.1364C117.619 29.1364 117.311 29.2244 117.091 29.4004C116.882 29.5654 116.777 29.7689 116.777 30.0109C116.777 30.2969 116.909 30.5444 117.173 30.7535C117.448 30.9625 118.009 31.1935 118.857 31.4465C119.319 31.5895 119.676 31.705 119.929 31.793C120.182 31.881 120.501 32.0295 120.886 32.2385C121.282 32.4365 121.579 32.651 121.777 32.882C121.986 33.102 122.168 33.3991 122.322 33.7731C122.487 34.1361 122.569 34.5541 122.569 35.0271C122.569 36.1272 122.173 36.9962 121.381 37.6342C120.589 38.2612 119.555 38.5748 118.279 38.5748ZM132.05 26.7933V29.3344H129.08V38.3438H126.44V29.3344H123.47V26.7933H132.05ZM143.138 36.8422C141.972 37.9972 140.553 38.5748 138.881 38.5748C137.209 38.5748 135.79 37.9972 134.624 36.8422C133.458 35.6871 132.875 34.2626 132.875 32.5685C132.875 30.8745 133.458 29.4499 134.624 28.2949C135.79 27.1398 137.209 26.5623 138.881 26.5623C140.553 26.5623 141.972 27.1398 143.138 28.2949C144.304 29.4499 144.887 30.8745 144.887 32.5685C144.887 34.2626 144.304 35.6871 143.138 36.8422ZM136.472 35.0436C137.121 35.6816 137.924 36.0007 138.881 36.0007C139.838 36.0007 140.636 35.6816 141.274 35.0436C141.923 34.4056 142.247 33.5806 142.247 32.5685C142.247 31.5565 141.923 30.7315 141.274 30.0934C140.636 29.4554 139.838 29.1364 138.881 29.1364C137.924 29.1364 137.121 29.4554 136.472 30.0934C135.834 30.7315 135.515 31.5565 135.515 32.5685C135.515 33.5806 135.834 34.4056 136.472 35.0436ZM153.271 38.3438L151.093 34.5486H149.839V38.3438H147.199V26.7933H151.819C152.919 26.7933 153.854 27.1783 154.624 27.9483C155.394 28.7184 155.779 29.6534 155.779 30.7535C155.779 31.4575 155.581 32.112 155.185 32.717C154.8 33.3111 154.289 33.7731 153.651 34.1031L156.109 38.3438H153.271ZM149.839 29.2684V32.2385H151.819C152.182 32.2385 152.49 32.0955 152.743 31.8095C153.007 31.5235 153.139 31.1715 153.139 30.7535C153.139 30.3354 153.007 29.9834 152.743 29.6974C152.49 29.4114 152.182 29.2684 151.819 29.2684H149.839ZM160.816 35.8027H165.436V38.3438H158.176V26.7933H165.354V29.3344H160.816V31.2485H164.941V33.7566H160.816V35.8027Z" fill="white"/>
</svg>
