<svg width="202" height="52" viewBox="0 0 202 52" fill="none" xmlns="http://www.w3.org/2000/svg">
<rect width="201.382" height="51.7188" rx="3.87273" fill="#0D0D0D"/>
<path d="M42.8127 24.9525L47.1071 21.1462L33.2364 14.2362C32.3172 13.796 31.456 13.7342 30.7008 14.2157L42.8127 24.9525ZM47.839 29.409L52.3033 27.1833C53.1747 26.7508 53.6525 26.1381 53.6525 25.4584C53.6525 24.78 53.1747 24.166 52.3048 23.7335L48.2631 21.7216L43.7131 25.7532L47.839 29.409ZM29.9543 15.1515C29.8614 15.4051 29.8091 15.6883 29.8091 15.9985V34.9274C29.8091 35.4178 29.9311 35.84 30.1518 36.176L41.9109 25.7519L29.9543 15.1515ZM42.8127 26.55L31.119 36.9162C31.3427 36.9921 31.5838 37.032 31.8379 37.032C32.291 37.032 32.763 36.9136 33.2437 36.6767L46.6845 29.9869L42.8127 26.55Z" fill="white"/>
<path d="M70.48 14.7449C71.4333 14.7449 72.2233 15.0849 72.85 15.7649C73.4833 16.4382 73.8 17.2649 73.8 18.2449C73.8 19.2249 73.4833 20.0549 72.85 20.7349C72.2233 21.4082 71.4333 21.7449 70.48 21.7449H67.75V14.7449H70.48ZM70.48 20.8649C71.1933 20.8649 71.7767 20.6149 72.23 20.1149C72.6833 19.6149 72.91 18.9915 72.91 18.2449C72.91 17.4982 72.6833 16.8749 72.23 16.3749C71.7767 15.8749 71.1933 15.6249 70.48 15.6249H68.68V20.8649H70.48ZM80.7477 20.8149C80.0477 21.5215 79.1911 21.8749 78.1777 21.8749C77.1644 21.8749 76.3077 21.5215 75.6077 20.8149C74.9077 20.1082 74.5577 19.2515 74.5577 18.2449C74.5577 17.2315 74.9077 16.3749 75.6077 15.6749C76.3077 14.9682 77.1644 14.6149 78.1777 14.6149C79.1911 14.6149 80.0477 14.9682 80.7477 15.6749C81.4544 16.3749 81.8077 17.2315 81.8077 18.2449C81.8077 19.2515 81.4544 20.1082 80.7477 20.8149ZM76.2477 20.1849C76.7677 20.7049 77.4111 20.9649 78.1777 20.9649C78.9444 20.9649 79.5844 20.7049 80.0977 20.1849C80.6177 19.6582 80.8777 19.0115 80.8777 18.2449C80.8777 17.4715 80.6177 16.8249 80.0977 16.3049C79.5844 15.7782 78.9444 15.5149 78.1777 15.5149C77.4111 15.5149 76.7677 15.7782 76.2477 16.3049C75.7344 16.8249 75.4777 17.4715 75.4777 18.2449C75.4777 19.0115 75.7344 19.6582 76.2477 20.1849ZM84.1233 21.7449L82.1133 14.7449H83.0933L84.6933 20.5049L86.3933 14.7449H87.3333L89.0333 20.5049L90.6333 14.7449H91.6133L89.6033 21.7449H88.5233L86.8633 16.1549L85.2033 21.7449H84.1233ZM96.9633 14.7449H97.8933V21.7449H97.1433L93.5433 16.5149V21.7449H92.6133V14.7449H93.3633L96.9633 19.9649V14.7449ZM100.321 20.8649H103.341V21.7449H99.3906V14.7449H100.321V20.8649ZM109.615 20.8149C108.915 21.5215 108.058 21.8749 107.045 21.8749C106.032 21.8749 105.175 21.5215 104.475 20.8149C103.775 20.1082 103.425 19.2515 103.425 18.2449C103.425 17.2315 103.775 16.3749 104.475 15.6749C105.175 14.9682 106.032 14.6149 107.045 14.6149C108.058 14.6149 108.915 14.9682 109.615 15.6749C110.322 16.3749 110.675 17.2315 110.675 18.2449C110.675 19.2515 110.322 20.1082 109.615 20.8149ZM105.115 20.1849C105.635 20.7049 106.278 20.9649 107.045 20.9649C107.812 20.9649 108.452 20.7049 108.965 20.1849C109.485 19.6582 109.745 19.0115 109.745 18.2449C109.745 17.4715 109.485 16.8249 108.965 16.3049C108.452 15.7782 107.812 15.5149 107.045 15.5149C106.278 15.5149 105.635 15.7782 105.115 16.3049C104.602 16.8249 104.345 17.4715 104.345 18.2449C104.345 19.0115 104.602 19.6582 105.115 20.1849ZM116.149 21.7449L115.579 20.1749H112.429L111.859 21.7449H110.869L113.479 14.7449H114.529L117.139 21.7449H116.149ZM112.749 19.3049H115.259L113.999 15.8549L112.749 19.3049ZM120.695 14.7449C121.648 14.7449 122.438 15.0849 123.065 15.7649C123.698 16.4382 124.015 17.2649 124.015 18.2449C124.015 19.2249 123.698 20.0549 123.065 20.7349C122.438 21.4082 121.648 21.7449 120.695 21.7449H117.965V14.7449H120.695ZM120.695 20.8649C121.408 20.8649 121.992 20.6149 122.445 20.1149C122.898 19.6149 123.125 18.9915 123.125 18.2449C123.125 17.4982 122.898 16.8749 122.445 16.3749C121.992 15.8749 121.408 15.6249 120.695 15.6249H118.895V20.8649H120.695ZM131.673 15.6249H128.573V17.8949H131.543V18.7749H128.573V21.7449H127.643V14.7449H131.673V15.6249ZM136.949 21.7449L135.379 19.0649H133.729V21.7449H132.799V14.7449H135.599C136.199 14.7449 136.712 14.9582 137.139 15.3849C137.565 15.8049 137.779 16.3149 137.779 16.9149C137.779 17.3682 137.642 17.7815 137.369 18.1549C137.102 18.5282 136.755 18.7915 136.329 18.9449L137.979 21.7449H136.949ZM133.729 15.6149V18.2249H135.599C135.945 18.2249 136.239 18.0982 136.479 17.8449C136.725 17.5849 136.849 17.2749 136.849 16.9149C136.849 16.5549 136.725 16.2482 136.479 15.9949C136.239 15.7415 135.945 15.6149 135.599 15.6149H133.729ZM144.703 20.8149C144.003 21.5215 143.146 21.8749 142.133 21.8749C141.119 21.8749 140.263 21.5215 139.563 20.8149C138.863 20.1082 138.513 19.2515 138.513 18.2449C138.513 17.2315 138.863 16.3749 139.563 15.6749C140.263 14.9682 141.119 14.6149 142.133 14.6149C143.146 14.6149 144.003 14.9682 144.703 15.6749C145.409 16.3749 145.763 17.2315 145.763 18.2449C145.763 19.2515 145.409 20.1082 144.703 20.8149ZM140.203 20.1849C140.723 20.7049 141.366 20.9649 142.133 20.9649C142.899 20.9649 143.539 20.7049 144.053 20.1849C144.573 19.6582 144.833 19.0115 144.833 18.2449C144.833 17.4715 144.573 16.8249 144.053 16.3049C143.539 15.7782 142.899 15.5149 142.133 15.5149C141.366 15.5149 140.723 15.7782 140.203 16.3049C139.689 16.8249 139.433 17.4715 139.433 18.2449C139.433 19.0115 139.689 19.6582 140.203 20.1849ZM153.431 14.7449V21.7449H152.511V16.2749L150.221 20.0849H150.101L147.811 16.2849V21.7449H146.881V14.7449H147.931L150.161 18.4449L152.381 14.7449H153.431ZM79.425 32.3096V33.2997C79.425 35.0267 78.886 36.4073 77.8079 37.4413C76.7409 38.4644 75.3823 38.9759 73.7323 38.9759C71.9392 38.9759 70.4486 38.3984 69.2606 37.2433C68.0835 36.0883 67.495 34.6692 67.495 32.9861C67.495 31.3031 68.078 29.8785 69.2441 28.7125C70.4211 27.5464 71.8567 26.9634 73.5508 26.9634C74.6288 26.9634 75.6133 27.2054 76.5044 27.6894C77.4064 28.1735 78.1049 28.8115 78.5999 29.6035L76.3559 30.8906C76.1029 30.4946 75.7233 30.17 75.2173 29.917C74.7223 29.664 74.1613 29.5375 73.5343 29.5375C72.5552 29.5375 71.7412 29.862 71.0922 30.5111C70.4541 31.1601 70.1351 31.9906 70.1351 33.0027C70.1351 34.0037 70.4651 34.8232 71.1252 35.4612C71.7852 36.0883 72.6652 36.4018 73.7653 36.4018C75.2943 36.4018 76.2789 35.8078 76.7189 34.6197H73.6333V32.3096H79.425ZM90.6818 37.2433C89.5157 38.3984 88.0967 38.9759 86.4246 38.9759C84.7525 38.9759 83.3335 38.3984 82.1674 37.2433C81.0014 36.0883 80.4184 34.6637 80.4184 32.9696C80.4184 31.2756 81.0014 29.851 82.1674 28.696C83.3335 27.5409 84.7525 26.9634 86.4246 26.9634C88.0967 26.9634 89.5157 27.5409 90.6818 28.696C91.8478 29.851 92.4308 31.2756 92.4308 32.9696C92.4308 34.6637 91.8478 36.0883 90.6818 37.2433ZM84.0155 35.4447C84.6645 36.0828 85.4676 36.4018 86.4246 36.4018C87.3816 36.4018 88.1792 36.0828 88.8172 35.4447C89.4662 34.8067 89.7907 33.9817 89.7907 32.9696C89.7907 31.9576 89.4662 31.1326 88.8172 30.4946C88.1792 29.8565 87.3816 29.5375 86.4246 29.5375C85.4676 29.5375 84.6645 29.8565 84.0155 30.4946C83.3775 31.1326 83.0585 31.9576 83.0585 32.9696C83.0585 33.9817 83.3775 34.8067 84.0155 35.4447ZM103.686 37.2433C102.52 38.3984 101.101 38.9759 99.4285 38.9759C97.7565 38.9759 96.3374 38.3984 95.1714 37.2433C94.0053 36.0883 93.4223 34.6637 93.4223 32.9696C93.4223 31.2756 94.0053 29.851 95.1714 28.696C96.3374 27.5409 97.7565 26.9634 99.4285 26.9634C101.101 26.9634 102.52 27.5409 103.686 28.696C104.852 29.851 105.435 31.2756 105.435 32.9696C105.435 34.6637 104.852 36.0883 103.686 37.2433ZM97.0194 35.4447C97.6685 36.0828 98.4715 36.4018 99.4285 36.4018C100.386 36.4018 101.183 36.0828 101.821 35.4447C102.47 34.8067 102.795 33.9817 102.795 32.9696C102.795 31.9576 102.47 31.1326 101.821 30.4946C101.183 29.8565 100.386 29.5375 99.4285 29.5375C98.4715 29.5375 97.6685 29.8565 97.0194 30.4946C96.3814 31.1326 96.0624 31.9576 96.0624 32.9696C96.0624 33.9817 96.3814 34.8067 97.0194 35.4447ZM118.356 32.3096V33.2997C118.356 35.0267 117.817 36.4073 116.739 37.4413C115.672 38.4644 114.314 38.9759 112.663 38.9759C110.87 38.9759 109.38 38.3984 108.192 37.2433C107.015 36.0883 106.426 34.6692 106.426 32.9861C106.426 31.3031 107.009 29.8785 108.175 28.7125C109.352 27.5464 110.788 26.9634 112.482 26.9634C113.56 26.9634 114.545 27.2054 115.436 27.6894C116.338 28.1735 117.036 28.8115 117.531 29.6035L115.287 30.8906C115.034 30.4946 114.655 30.17 114.149 29.917C113.653 29.664 113.092 29.5375 112.465 29.5375C111.486 29.5375 110.672 29.862 110.023 30.5111C109.385 31.1601 109.066 31.9906 109.066 33.0027C109.066 34.0037 109.396 34.8232 110.056 35.4612C110.716 36.0883 111.596 36.4018 112.696 36.4018C114.226 36.4018 115.21 35.8078 115.65 34.6197H112.564V32.3096H118.356ZM122.485 36.2038H126.61V38.7449H119.845V27.1944H122.485V36.2038ZM130.413 36.2038H135.033V38.7449H127.773V27.1944H134.95V29.7355H130.413V31.6496H134.538V34.1577H130.413V36.2038ZM145.02 27.1944C146.153 27.1944 147.11 27.5794 147.891 28.3495C148.672 29.1195 149.063 30.0545 149.063 31.1546C149.063 32.2546 148.672 33.1897 147.891 33.9597C147.11 34.7297 146.153 35.1147 145.02 35.1147H143.288V38.7449H140.648V27.1944H145.02ZM145.02 32.6396C145.427 32.6396 145.763 32.4966 146.027 32.2106C146.291 31.9246 146.423 31.5726 146.423 31.1546C146.423 30.7366 146.291 30.3845 146.027 30.0985C145.763 29.8125 145.427 29.6695 145.02 29.6695H143.288V32.6396H145.02ZM153.021 36.2038H157.146V38.7449H150.38V27.1944H153.021V36.2038ZM165.974 38.7449L165.396 36.9298H161.106L160.528 38.7449H157.641L161.568 27.1944H164.934L168.861 38.7449H165.974ZM161.898 34.4547H164.604L163.251 30.214L161.898 34.4547ZM177.769 27.1944L173.891 34.3062V38.7449H171.251V34.3062L167.374 27.1944H170.377L172.571 31.6496L174.766 27.1944H177.769Z" fill="white"/>
</svg>
