<svg width="390" height="322" viewBox="0 0 390 322" fill="none" xmlns="http://www.w3.org/2000/svg">
<g clip-path="url(#clip0_117_39)">
<path d="M195 322C283.918 322 356 249.918 356 161C356 72.0822 283.918 0 195 0C106.082 0 34 72.0822 34 161C34 249.918 106.082 322 195 322Z" fill="#F1F9F2"/>
<path d="M350.246 203.793C353.994 190.174 356 175.816 356 161C356 158.15 355.93 155.334 355.771 152.519L34.4223 149.405C34.1408 153.223 34 157.094 34 161C34 175.481 35.9179 189.505 39.4898 202.842C115.872 203.071 278.773 203.564 350.246 203.793Z" fill="#455A64"/>
<path d="M34.1584 167.986C34.6686 180.003 36.4986 191.652 39.4898 202.807C115.855 203.036 278.773 203.511 350.246 203.722C353.396 192.285 355.314 180.408 355.842 167.986H34.1584Z" fill="#363E44"/>
<path opacity="0.56" d="M82.7399 181.464H43.3257V186.092H82.7399V181.464Z" fill="white"/>
<path opacity="0.56" d="M130.072 181.464H90.6579V186.092H130.072V181.464Z" fill="white"/>
<path opacity="0.56" d="M179.481 181.464H140.066V186.092H179.481V181.464Z" fill="white"/>
<path opacity="0.56" d="M226.813 181.464H187.399V186.092H226.813V181.464Z" fill="white"/>
<path opacity="0.56" d="M345.319 181.569H305.905V186.197H345.319V181.569Z" fill="white"/>
<path d="M281.993 84.4766H277.77V186.39H281.993V84.4766Z" fill="#04BF68"/>
<path d="M305.043 102.776C304.128 101.72 302.808 101.615 300.996 102.143C300.996 101.474 300.996 100.77 300.996 100.084C302.456 98.0428 303.847 95.4914 302.844 93.9606C302.685 93.7142 302.069 92.8696 300.609 93.0104C300.398 90.6702 300.116 88.3828 299.764 86.1657C301.805 78.8811 302.069 75.274 300.415 74.3063C299.729 73.9192 298.761 73.8664 297.319 74.8693C297.195 74.4294 297.072 73.9895 296.931 73.5496C298.11 70.3472 299.5 65.7548 297.582 64.1888C297.16 63.8545 295.841 63.0978 293.747 64.6639C293.535 64.1712 293.324 63.6961 293.096 63.221C294.345 58.523 293.817 56.0948 292.726 55.5317C292.057 55.1798 290.826 55.0742 289.401 56.4291C286.075 51.3264 282.573 48.4231 279.653 48.4231C276.433 48.4231 272.984 51.5551 269.781 57.1329C269.042 56.3587 268.286 55.9716 267.564 56.2356C265.91 56.8514 265.822 61.479 266.016 65.0686C265.664 65.9483 265.33 66.8457 264.995 67.7783C263.535 66.3354 262.778 66.3882 262.11 66.6874C261.019 67.1976 261.107 71.5086 262.321 76.4353C262.198 76.8928 262.075 77.3679 261.951 77.843C260.121 75.5731 259.558 76.0658 258.978 76.277C257.201 76.928 258.221 84.2654 259.382 90.459C259.224 91.462 259.066 92.4825 258.925 93.5207C257.676 102.301 257.992 109.286 259.347 114.741C257.64 114.407 256.884 114.583 256.62 115.005C255.898 116.166 258.626 120.319 263.236 123.68C267.635 130.014 274.198 132.354 280.18 132.354C288.626 132.354 295.506 127.445 298.832 117.064C304.198 111.433 306.838 104.852 305.043 102.776Z" fill="#04BF68"/>
<path d="M262.338 105.028C262.145 105.028 261.987 104.888 261.951 104.694C261.195 98.9578 261.775 95.9138 263.693 95.6322C265.224 95.4035 266.702 97.4622 267.652 99.2042C267.6 97.7965 267.864 96.512 268.954 96.1601C270.52 95.6498 272.913 97.5678 274.532 100.629C274.638 100.823 274.567 101.052 274.374 101.157C274.18 101.263 273.952 101.192 273.846 100.999C272.333 98.1308 270.221 96.5648 269.183 96.8991C268.356 97.1807 268.198 98.7467 268.708 101.474C268.743 101.668 268.62 101.861 268.444 101.914C268.251 101.967 268.057 101.879 267.969 101.685C267.107 99.5385 265.207 96.1953 263.799 96.4065C262.444 96.6 262.057 99.5913 262.726 104.606C262.761 104.817 262.602 105.011 262.391 105.046C262.374 105.028 262.356 105.028 262.338 105.028Z" fill="#F7F1EB"/>
<path d="M293.166 120.301C293.148 120.301 293.131 120.301 293.113 120.301C292.902 120.266 292.744 120.072 292.779 119.861C293.324 115.744 293.008 113.175 291.917 113.017C290.738 112.841 289.084 115.92 288.468 117.433C288.398 117.627 288.186 117.715 287.993 117.662C287.799 117.609 287.676 117.416 287.729 117.222C288.274 114.372 287.835 113.58 287.359 113.439C286.515 113.157 284.773 114.477 283.506 116.87C283.4 117.064 283.172 117.134 282.978 117.028C282.785 116.923 282.714 116.694 282.82 116.501C284.192 113.896 286.251 112.26 287.606 112.7C288.486 112.999 288.75 113.967 288.75 115.093C289.559 113.668 290.773 112.084 292.022 112.26C293.676 112.506 294.187 115.093 293.536 119.967C293.536 120.16 293.36 120.301 293.166 120.301Z" fill="#F7F1EB"/>
<path d="M290.28 83.632C290.263 83.632 290.245 83.632 290.228 83.632C290.016 83.5968 289.858 83.4033 289.893 83.1921C290.439 79.0748 290.122 76.5058 289.031 76.3474C287.852 76.1715 286.198 79.2507 285.582 80.764C285.512 80.9399 285.301 81.0455 285.107 80.9927C284.914 80.9399 284.791 80.7464 284.843 80.5528C285.389 77.7023 284.949 76.9105 284.474 76.7697C283.629 76.4882 281.887 77.8079 280.62 80.2009C280.515 80.3944 280.286 80.4648 280.092 80.3593C279.899 80.2537 279.829 80.0249 279.934 79.8314C281.307 77.2272 283.365 75.5908 284.72 76.0307C285.6 76.3299 285.864 77.2976 285.864 78.4237C286.673 76.9985 287.887 75.4149 289.137 75.5908C290.791 75.8372 291.301 78.4237 290.65 83.2977C290.65 83.4913 290.474 83.632 290.28 83.632Z" fill="#F7F1EB"/>
<path d="M331.788 65.1743H327.565V167.088H331.788V65.1743Z" fill="#04BF68"/>
<path d="M354.839 83.4913C353.924 82.4356 352.604 82.33 350.792 82.8579C350.792 82.1892 350.792 81.4854 350.792 80.7992C352.252 78.7581 353.642 76.2067 352.639 74.6759C352.481 74.4296 351.865 73.585 350.405 73.7257C350.193 71.3855 349.912 69.0981 349.56 66.8811C351.601 59.5965 351.865 55.9894 350.211 55.0216C349.525 54.6345 348.557 54.5817 347.114 55.5847C346.991 55.1448 346.868 54.7049 346.727 54.265C347.906 51.0626 349.296 46.4701 347.378 44.9041C346.956 44.5698 345.636 43.8132 343.542 45.3792C343.331 44.8865 343.12 44.4114 342.891 43.9363C344.14 39.2383 343.613 36.8101 342.522 36.2471C341.853 35.8951 340.621 35.7896 339.196 37.1444C335.871 32.0417 332.369 29.1384 329.448 29.1384C326.228 29.1384 322.779 32.2704 319.577 37.8483C318.838 37.0741 318.081 36.687 317.36 36.9509C315.706 37.5667 315.618 42.1944 315.812 45.7839C315.46 46.6637 315.125 47.5611 314.791 48.4936C313.331 47.0508 312.574 47.1036 311.905 47.4027C310.814 47.913 310.902 52.2239 312.116 57.1507C311.993 57.6082 311.87 58.0832 311.747 58.5583C309.917 56.2885 309.354 56.7812 308.773 56.9923C306.996 57.6433 308.017 64.9807 309.178 71.1744C309.02 72.1773 308.861 73.1979 308.72 74.236C307.471 83.0162 307.788 90.0017 309.143 95.4563C307.436 95.122 306.679 95.298 306.415 95.7203C305.694 96.8816 308.421 101.034 313.031 104.395C317.43 110.729 323.993 113.07 329.976 113.07C338.422 113.07 345.302 108.16 348.627 97.779C353.994 92.1484 356.633 85.55 354.839 83.4913Z" fill="#04BF68"/>
<path d="M312.134 85.7436C311.941 85.7436 311.782 85.6029 311.747 85.4093C310.99 79.6731 311.571 76.6291 313.489 76.3476C315.02 76.1188 316.498 78.1775 317.448 79.9195C317.395 78.5118 317.659 77.2274 318.75 76.8754C320.316 76.3652 322.709 78.2831 324.328 81.3447C324.433 81.5383 324.363 81.767 324.169 81.8726C323.976 81.9782 323.747 81.9078 323.642 81.7142C322.128 78.8462 320.017 77.2801 318.979 77.6145C318.152 77.896 317.993 79.462 318.504 82.1893C318.539 82.3829 318.416 82.5764 318.24 82.6292C318.046 82.682 317.853 82.594 317.765 82.4005C316.902 80.2538 314.985 76.9106 313.595 77.1218C312.24 77.3153 311.853 80.3066 312.521 85.3213C312.556 85.5325 312.398 85.726 312.187 85.7612C312.169 85.7436 312.152 85.7436 312.134 85.7436Z" fill="#F7F1EB"/>
<path d="M342.979 100.999C342.962 100.999 342.944 100.999 342.926 100.999C342.715 100.964 342.557 100.77 342.592 100.559C343.138 96.4417 342.821 93.8728 341.73 93.7144C340.551 93.5384 338.897 96.6177 338.281 98.1309C338.211 98.3245 338 98.4124 337.806 98.3596C337.613 98.3069 337.489 98.1133 337.542 97.9198C338.088 95.0693 337.648 94.2775 337.173 94.1367C336.328 93.8552 334.586 95.1748 333.319 97.5678C333.214 97.7614 332.985 97.8318 332.791 97.7262C332.598 97.6206 332.527 97.3919 332.633 97.1983C334.005 94.5942 336.064 92.9578 337.419 93.3977C338.299 93.6968 338.563 94.6646 338.563 95.7907C339.372 94.3654 340.586 92.7818 341.835 92.9578C343.489 93.2041 344 95.7907 343.349 100.665C343.331 100.858 343.173 100.999 342.979 100.999Z" fill="#F7F1EB"/>
<path d="M340.094 64.3474C340.076 64.3474 340.058 64.3474 340.041 64.3474C339.83 64.3122 339.671 64.1186 339.706 63.9075C340.252 59.7901 339.935 57.2211 338.844 57.0628C337.665 56.8868 336.011 59.9661 335.395 61.4793C335.325 61.6552 335.114 61.7608 334.92 61.708C334.727 61.6552 334.604 61.4617 334.656 61.2681C335.202 58.4176 334.762 57.6258 334.287 57.4851C333.442 57.2036 331.7 58.5232 330.433 60.9162C330.328 61.1098 330.099 61.1802 329.906 61.0746C329.712 60.969 329.642 60.7403 329.747 60.5467C331.12 57.9426 333.178 56.3062 334.533 56.7461C335.413 57.0452 335.677 58.0129 335.677 59.1391C336.486 57.7138 337.7 56.1302 338.95 56.3062C340.604 56.5525 341.114 59.1391 340.463 64.0131C340.463 64.2066 340.287 64.3474 340.094 64.3474Z" fill="#F7F1EB"/>
<path d="M262.708 43.7076C262.743 43.3557 262.761 43.0214 262.761 42.6695C262.761 35.6488 257.077 29.9654 250.057 29.9654C248.28 29.9654 246.573 30.3349 245.042 31.0036C244.004 27.1501 240.485 24.3172 236.315 24.3172C234.696 24.3172 233.182 24.7395 231.863 25.4962C228.678 18.7922 221.851 14.147 213.95 14.147C205.276 14.147 197.903 19.7248 195.229 27.4845C194.56 27.3965 193.874 27.3437 193.17 27.3437C184.126 27.3437 176.789 34.6811 176.789 43.7252H262.708V43.7076Z" fill="white"/>
<path d="M70.7221 46.6987H42.5691V93.7318H70.7221V46.6987Z" fill="#04BF68"/>
<path d="M151.732 24.5635H116.647V112.401H151.732V24.5635Z" fill="#04BF68"/>
<path d="M151.732 31.6016H116.647C116.436 31.6016 116.26 31.4256 116.26 31.2145C116.26 31.0033 116.436 30.8274 116.647 30.8274H151.732C151.943 30.8274 152.119 31.0033 152.119 31.2145C152.119 31.4256 151.943 31.6016 151.732 31.6016Z" fill="white"/>
<path d="M151.732 38.2527H116.647C116.436 38.2527 116.26 38.0768 116.26 37.8656C116.26 37.6545 116.436 37.4785 116.647 37.4785H151.732C151.943 37.4785 152.119 37.6545 152.119 37.8656C152.119 38.0768 151.943 38.2527 151.732 38.2527Z" fill="white"/>
<path d="M151.732 44.9038H116.647C116.436 44.9038 116.26 44.7279 116.26 44.5167C116.26 44.3056 116.436 44.1296 116.647 44.1296H151.732C151.943 44.1296 152.119 44.3056 152.119 44.5167C152.119 44.7279 151.943 44.9038 151.732 44.9038Z" fill="white"/>
<path d="M151.732 51.555H116.647C116.436 51.555 116.26 51.379 116.26 51.1679C116.26 50.9567 116.436 50.7808 116.647 50.7808H151.732C151.943 50.7808 152.119 50.9567 152.119 51.1679C152.119 51.379 151.943 51.555 151.732 51.555Z" fill="white"/>
<path d="M151.732 58.2063H116.647C116.436 58.2063 116.26 58.0304 116.26 57.8192C116.26 57.6081 116.436 57.4321 116.647 57.4321H151.732C151.943 57.4321 152.119 57.6081 152.119 57.8192C152.119 58.0304 151.943 58.2063 151.732 58.2063Z" fill="white"/>
<path d="M151.732 64.8575H116.647C116.436 64.8575 116.26 64.6815 116.26 64.4704C116.26 64.2592 116.436 64.0833 116.647 64.0833H151.732C151.943 64.0833 152.119 64.2592 152.119 64.4704C152.119 64.6815 151.943 64.8575 151.732 64.8575Z" fill="white"/>
<path d="M151.732 71.5086H116.647C116.436 71.5086 116.26 71.3326 116.26 71.1215C116.26 70.9103 116.436 70.7344 116.647 70.7344H151.732C151.943 70.7344 152.119 70.9103 152.119 71.1215C152.119 71.3326 151.943 71.5086 151.732 71.5086Z" fill="white"/>
<path d="M151.732 78.1597H116.647C116.436 78.1597 116.26 77.9838 116.26 77.7726C116.26 77.5615 116.436 77.3855 116.647 77.3855H151.732C151.943 77.3855 152.119 77.5615 152.119 77.7726C152.119 77.9838 151.943 78.1597 151.732 78.1597Z" fill="white"/>
<path d="M151.732 84.7932H116.647C116.436 84.7932 116.26 84.6173 116.26 84.4061C116.26 84.195 116.436 84.019 116.647 84.019H151.732C151.943 84.019 152.119 84.195 152.119 84.4061C152.119 84.6173 151.943 84.7932 151.732 84.7932Z" fill="#455A64"/>
<path d="M123.544 112.788C123.333 112.788 123.157 112.612 123.157 112.401V24.5634C123.157 24.3522 123.333 24.1763 123.544 24.1763C123.755 24.1763 123.931 24.3522 123.931 24.5634V112.401C123.931 112.612 123.755 112.788 123.544 112.788Z" fill="white"/>
<path d="M134.418 112.788C134.207 112.788 134.031 112.612 134.031 112.401V24.5634C134.031 24.3522 134.207 24.1763 134.418 24.1763C134.629 24.1763 134.805 24.3522 134.805 24.5634V112.401C134.805 112.612 134.629 112.788 134.418 112.788Z" fill="white"/>
<path d="M145.292 112.788C145.081 112.788 144.905 112.612 144.905 112.401V24.5634C144.905 24.3522 145.081 24.1763 145.292 24.1763C145.503 24.1763 145.679 24.3522 145.679 24.5634V112.401C145.679 112.612 145.503 112.788 145.292 112.788Z" fill="white"/>
<path d="M111.843 55.2678H78.4113V151.182H111.843V55.2678Z" fill="#04BF68"/>
<path d="M84.9217 60.6521H82.2648V65.3325H84.9217V60.6521Z" fill="#ACD9AF"/>
<path d="M92.523 60.6521H89.8661V65.3325H92.523V60.6521Z" fill="#ACD9AF"/>
<path d="M100.142 60.6521H97.485V65.3325H100.142V60.6521Z" fill="#ACD9AF"/>
<path d="M107.743 60.6521H105.086V65.3325H107.743V60.6521Z" fill="#ACD9AF"/>
<path d="M84.9217 71.3679H82.2648V76.0484H84.9217V71.3679Z" fill="#ACD9AF"/>
<path d="M92.523 71.3679H89.8661V76.0484H92.523V71.3679Z" fill="#ACD9AF"/>
<path d="M100.142 71.3679H97.485V76.0484H100.142V71.3679Z" fill="#ACD9AF"/>
<path d="M107.743 71.3679H105.086V76.0484H107.743V71.3679Z" fill="#ACD9AF"/>
<path d="M84.9217 82.0659H82.2648V86.7464H84.9217V82.0659Z" fill="#ACD9AF"/>
<path d="M92.523 82.0659H89.8661V86.7464H92.523V82.0659Z" fill="#ACD9AF"/>
<path d="M100.142 82.0659H97.485V86.7464H100.142V82.0659Z" fill="#ACD9AF"/>
<path d="M107.743 82.0659H105.086V86.7464H107.743V82.0659Z" fill="#ACD9AF"/>
<path d="M84.9217 92.7817H82.2648V97.4622H84.9217V92.7817Z" fill="#ACD9AF"/>
<path d="M92.523 92.7817H89.8661V97.4622H92.523V92.7817Z" fill="#ACD9AF"/>
<path d="M100.142 92.7817H97.485V97.4622H100.142V92.7817Z" fill="#ACD9AF"/>
<path d="M107.743 92.7817H105.086V97.4622H107.743V92.7817Z" fill="#ACD9AF"/>
<path d="M84.9217 103.498H82.2648V108.178H84.9217V103.498Z" fill="#ACD9AF"/>
<path d="M92.523 103.498H89.8661V108.178H92.523V103.498Z" fill="#ACD9AF"/>
<path d="M100.142 103.498H97.485V108.178H100.142V103.498Z" fill="#ACD9AF"/>
<path d="M107.743 103.498H105.086V108.178H107.743V103.498Z" fill="#ACD9AF"/>
<path d="M170.014 59.9307H128.154V151.34H170.014V59.9307Z" fill="#455A64"/>
<path d="M136.319 68.271H132.993V75.538H136.319V68.271Z" fill="#ACD9AF"/>
<path d="M145.838 68.271H142.512V75.538H145.838V68.271Z" fill="#ACD9AF"/>
<path d="M155.357 68.271H152.031V75.538H155.357V68.271Z" fill="#ACD9AF"/>
<path d="M164.876 68.271H161.551V75.538H164.876V68.271Z" fill="#ACD9AF"/>
<path d="M136.319 84.8813H132.993V92.1483H136.319V84.8813Z" fill="#ACD9AF"/>
<path d="M145.838 84.8813H142.512V92.1483H145.838V84.8813Z" fill="#ACD9AF"/>
<path d="M155.357 84.8813H152.031V92.1483H155.357V84.8813Z" fill="#ACD9AF"/>
<path d="M164.876 84.8813H161.551V92.1483H164.876V84.8813Z" fill="#ACD9AF"/>
<path d="M136.319 101.474H132.993V108.741H136.319V101.474Z" fill="#ACD9AF"/>
<path d="M145.838 101.474H142.512V108.741H145.838V101.474Z" fill="#ACD9AF"/>
<path d="M155.357 101.474H152.031V108.741H155.357V101.474Z" fill="#ACD9AF"/>
<path d="M164.876 101.474H161.551V108.741H164.876V101.474Z" fill="#ACD9AF"/>
<path d="M136.319 118.084H132.993V125.351H136.319V118.084Z" fill="#ACD9AF"/>
<path d="M145.838 118.084H142.512V125.351H145.838V118.084Z" fill="#ACD9AF"/>
<path d="M155.357 118.084H152.031V125.351H155.357V118.084Z" fill="#ACD9AF"/>
<path d="M164.876 118.084H161.551V125.351H164.876V118.084Z" fill="#ACD9AF"/>
<path d="M136.319 134.677H132.993V141.944H136.319V134.677Z" fill="#ACD9AF"/>
<path d="M145.838 134.677H142.512V141.944H145.838V134.677Z" fill="#ACD9AF"/>
<path d="M155.357 134.677H152.031V141.944H155.357V134.677Z" fill="#ACD9AF"/>
<path d="M164.876 134.677H161.551V141.944H164.876V134.677Z" fill="#ACD9AF"/>
<path d="M138.254 81.978H96.3941V155.809H138.254V81.978Z" fill="white"/>
<path d="M104.558 88.717H101.233V94.5764H104.558V88.717Z" fill="#ACD9AF"/>
<path d="M114.078 88.717H110.752V94.5764H114.078V88.717Z" fill="#ACD9AF"/>
<path d="M123.597 88.717H120.271V94.5764H123.597V88.717Z" fill="#ACD9AF"/>
<path d="M133.116 88.717H129.791V94.5764H133.116V88.717Z" fill="#ACD9AF"/>
<path d="M104.558 102.125H101.233V107.984H104.558V102.125Z" fill="#ACD9AF"/>
<path d="M114.078 102.125H110.752V107.984H114.078V102.125Z" fill="#ACD9AF"/>
<path d="M123.597 102.125H120.271V107.984H123.597V102.125Z" fill="#ACD9AF"/>
<path d="M133.116 102.125H129.791V107.984H133.116V102.125Z" fill="#ACD9AF"/>
<path d="M104.558 115.533H101.233V121.392H104.558V115.533Z" fill="#ACD9AF"/>
<path d="M114.078 115.533H110.752V121.392H114.078V115.533Z" fill="#ACD9AF"/>
<path d="M123.597 115.533H120.271V121.392H123.597V115.533Z" fill="#ACD9AF"/>
<path d="M133.116 115.533H129.791V121.392H133.116V115.533Z" fill="#ACD9AF"/>
<path d="M104.558 142.349H101.233V148.208H104.558V142.349Z" fill="#ACD9AF"/>
<path d="M114.078 142.349H110.752V148.208H114.078V142.349Z" fill="#ACD9AF"/>
<path d="M123.597 142.349H120.271V148.208H123.597V142.349Z" fill="#ACD9AF"/>
<path d="M133.116 142.349H129.791V148.208H133.116V142.349Z" fill="#ACD9AF"/>
<path d="M85.4144 69.1682H34.2287V162.865H85.4144V69.1682Z" fill="#455A64"/>
<path d="M44.223 77.4031H40.1584V84.5645H44.223V77.4031Z" fill="white"/>
<path d="M55.8714 77.4031H51.8068V84.5645H55.8714V77.4031Z" fill="white"/>
<path d="M67.5021 77.4031H63.4375V84.5645H67.5021V77.4031Z" fill="white"/>
<path d="M79.1503 77.4031H75.0858V84.5645H79.1503V77.4031Z" fill="white"/>
<path d="M44.223 93.8022H40.1584V100.964H44.223V93.8022Z" fill="white"/>
<path d="M55.8714 93.8022H51.8068V100.964H55.8714V93.8022Z" fill="white"/>
<path d="M67.5021 93.8022H63.4375V100.964H67.5021V93.8022Z" fill="white"/>
<path d="M79.1503 93.8022H75.0858V100.964H79.1503V93.8022Z" fill="white"/>
<path d="M44.223 110.201H40.1584V117.363H44.223V110.201Z" fill="white"/>
<path d="M55.8714 110.201H51.8068V117.363H55.8714V110.201Z" fill="white"/>
<path d="M67.5021 110.201H63.4375V117.363H67.5021V110.201Z" fill="white"/>
<path d="M79.1503 110.201H75.0858V117.363H79.1503V110.201Z" fill="white"/>
<path d="M44.223 126.6H40.1584V133.762H44.223V126.6Z" fill="white"/>
<path d="M55.8714 126.6H51.8068V133.762H55.8714V126.6Z" fill="white"/>
<path d="M67.5021 126.6H63.4375V133.762H67.5021V126.6Z" fill="white"/>
<path d="M79.1503 126.6H75.0858V133.762H79.1503V126.6Z" fill="white"/>
<path d="M44.223 143H40.1584V150.161H44.223V143Z" fill="white"/>
<path d="M55.8714 143H51.8068V150.161H55.8714V143Z" fill="white"/>
<path d="M67.5021 143H63.4375V150.161H67.5021V143Z" fill="white"/>
<path d="M79.1503 143H75.0858V150.161H79.1503V143Z" fill="white"/>
<path d="M80.1101 249.233V249.26C81.6043 237.456 90.6917 228.07 102.442 226.182L128.984 221.916C131.361 221.563 133.602 220.585 135.463 219.064L154.44 203.619C162.563 197.017 172.71 193.418 183.169 193.445L194.579 193.472C220.633 193.54 236.036 196.433 249.606 204.027L273.649 221.21C273.812 221.264 285.943 226.793 286.051 238.869C286.092 243.636 285.603 248.499 284.109 252.425C283.212 257.016 279.164 260.439 274.315 260.439H89.931C83.9135 260.426 79.2135 255.21 80.1101 249.233Z" fill="#04BF68"/>
<path d="M119.041 273.466C109.978 273.466 102.632 266.12 102.632 257.057C102.632 247.995 109.978 240.648 119.041 240.648C128.103 240.648 135.45 247.995 135.45 257.057C135.45 266.12 128.103 273.466 119.041 273.466Z" fill="#363E44"/>
<path d="M110.846 265.257C106.316 260.727 106.316 253.382 110.846 248.852C115.376 244.322 122.721 244.322 127.251 248.852C131.782 253.382 131.782 260.727 127.251 265.257C122.721 269.787 115.376 269.787 110.846 265.257Z" fill="#E0E0E0"/>
<path d="M242.991 273.466C233.929 273.466 226.582 266.12 226.582 257.057C226.582 247.995 233.929 240.648 242.991 240.648C252.053 240.648 259.4 247.995 259.4 257.057C259.4 266.12 252.053 273.466 242.991 273.466Z" fill="#363E44"/>
<path d="M234.793 265.263C230.263 260.733 230.263 253.388 234.793 248.858C239.323 244.327 246.668 244.327 251.198 248.858C255.728 253.388 255.728 260.733 251.198 265.263C246.668 269.793 239.323 269.793 234.793 265.263Z" fill="#E0E0E0"/>
<path d="M244.907 222.161H139.688L167.792 200.903C169.68 199.476 171.935 198.607 174.299 198.403C200.583 196.189 225.115 192.576 247.229 206.119L244.907 222.161Z" fill="#363E44"/>
<path d="M83.6715 240.018C82.9287 238.045 87.255 234.59 93.3346 232.3C99.4143 230.011 104.945 229.754 105.688 231.727C106.431 233.7 102.105 237.155 96.0248 239.444C89.9452 241.734 84.4144 241.99 83.6715 240.018Z" fill="white"/>
<path d="M141.59 257.356H217.006C217.101 257.356 217.196 257.315 217.25 257.234L240.302 225.068C240.37 224.973 240.37 224.864 240.329 224.755L235.643 215.383C235.575 215.233 235.384 215.179 235.235 215.247C235.086 215.315 235.031 215.505 235.099 215.654L239.704 224.878L216.843 256.772H141.78L135.436 240.322C131.891 231.14 135.436 220.775 143.872 215.681L168.621 201.174C168.77 201.093 168.811 200.902 168.73 200.767C168.648 200.631 168.458 200.576 168.322 200.658L143.559 215.165C134.879 220.408 131.225 231.072 134.866 240.526L141.291 257.166C141.359 257.288 141.467 257.356 141.59 257.356Z" fill="#363E44"/>
<path d="M186.918 257.438C187.067 257.438 187.19 257.329 187.217 257.18L192.284 220.843C192.311 220.68 192.188 220.531 192.025 220.504C191.862 220.477 191.713 220.599 191.686 220.762L186.619 257.098C186.592 257.261 186.714 257.41 186.877 257.438C186.891 257.438 186.904 257.438 186.918 257.438Z" fill="#363E44"/>
<path d="M225.726 228.993C221.698 228.993 218.432 228.519 218.432 227.934C218.432 227.349 221.698 226.874 225.726 226.874C229.755 226.874 233.021 227.349 233.021 227.934C233.021 228.519 229.755 228.993 225.726 228.993Z" fill="#48764B"/>
<path d="M177.749 228.993C173.721 228.993 170.455 228.519 170.455 227.934C170.455 227.349 173.721 226.874 177.749 226.874C181.778 226.874 185.044 227.349 185.044 227.934C185.044 228.519 181.778 228.993 177.749 228.993Z" fill="#48764B"/>
<path d="M272.305 250.55H282.207C280.482 246.489 276.692 243.677 272.305 243.175C270.267 243.175 268.624 244.832 268.624 246.856C268.624 248.907 270.267 250.55 272.305 250.55Z" fill="#48764B"/>
<path d="M84.7556 254.055H88.5182C89.537 254.055 90.3249 253.172 90.2026 252.167L89.7815 248.377C89.6864 247.521 88.9529 246.869 88.0972 246.869H84.3345C83.3157 246.869 82.5279 247.752 82.6501 248.758L83.0712 252.547C83.1527 253.403 83.8862 254.055 84.7556 254.055Z" fill="#48764B"/>
<path d="M274.587 221.495H262.905L255.176 214.323L252.921 206.35C259.808 211.348 267.482 216.7 274.587 221.495Z" fill="#363E44"/>
<path d="M272.685 257.139C272.685 257.139 272.699 257.139 272.685 257.139C281.501 256.786 290.602 254.571 297.665 251.053C306.563 246.625 311.833 240.349 312.879 232.906C313.762 226.711 309.565 214.201 302.759 210.506C299.431 208.7 295.899 209.284 292.558 212.204C288.782 215.491 282.52 214.513 278.607 210.031L267.387 197.181C267.279 197.058 267.089 197.045 266.966 197.154C266.844 197.262 266.83 197.452 266.939 197.575L278.159 210.425C282.302 215.165 288.931 216.171 292.965 212.666C296.144 209.895 299.35 209.338 302.487 211.036C309.103 214.622 313.151 226.779 312.308 232.824C311.018 241.966 303.493 247.494 297.421 250.524C290.439 254.001 281.419 256.188 272.699 256.541C272.536 256.541 272.4 256.691 272.413 256.854C272.4 257.003 272.522 257.139 272.685 257.139Z" fill="#363E44"/>
<path d="M301.523 251.556C296.253 249.437 291.784 251.678 291.159 254.422C290.534 257.166 293.577 261.187 299.255 261.499C304.892 261.798 311.208 259 311.208 259C311.208 259 307.16 253.824 301.523 251.556Z" fill="#04BF68"/>
<path d="M306.535 258.28C306.671 258.28 306.794 258.185 306.821 258.049C306.861 257.886 306.753 257.723 306.59 257.696L289.896 253.892C289.732 253.851 289.569 253.96 289.542 254.123C289.515 254.286 289.61 254.449 289.773 254.476L306.468 258.28C306.481 258.28 306.508 258.28 306.535 258.28Z" fill="#363E44"/>
<path d="M285.59 203.198C287.07 208.672 291.553 210.886 294.12 209.732C296.687 208.577 298.059 203.714 294.894 199.014C291.743 194.328 285.698 191 285.698 191C285.698 191 284 197.344 285.59 203.198Z" fill="#04BF68"/>
<path d="M294.718 211.226C294.758 211.226 294.799 211.212 294.84 211.199C294.989 211.131 295.057 210.954 294.989 210.805L287.98 195.197C287.912 195.048 287.736 194.98 287.586 195.048C287.437 195.116 287.369 195.292 287.437 195.442L294.446 211.049C294.487 211.172 294.595 211.226 294.718 211.226Z" fill="#363E44"/>
<path d="M300.803 230.365C306.237 232.023 310.488 229.401 310.882 226.616C311.276 223.832 307.894 220.083 302.216 220.273C296.565 220.449 290.52 223.805 290.52 223.805C290.52 223.805 295.003 228.6 300.803 230.365Z" fill="#04BF68"/>
<path d="M312.213 227.051C312.363 227.051 312.485 226.942 312.512 226.793C312.539 226.63 312.417 226.481 312.254 226.453L295.302 224.103C295.139 224.076 294.989 224.198 294.962 224.361C294.935 224.524 295.057 224.674 295.22 224.701L312.173 227.051C312.186 227.051 312.2 227.051 312.213 227.051Z" fill="#363E44"/>
</g>
<defs>
<clipPath id="clip0_117_39">
<rect width="322" height="322" fill="white" transform="translate(34)"/>
</clipPath>
</defs>
</svg>
