<svg width="94" height="27" viewBox="0 0 94 27" fill="none" xmlns="http://www.w3.org/2000/svg">
<path d="M39.6879 10.5243H36.6197V26H33.1133V10.5243H30.5846V7.3213H33.1133V1.05011H36.6197V7.3213H39.6879V10.5243ZM60.1989 16.4246C60.1989 17.009 60.1652 17.5935 60.0977 18.1779H44.622C44.9817 19.6614 45.7122 20.8864 46.8136 21.8529C47.9375 22.797 49.2524 23.269 50.7584 23.269C51.8598 23.269 52.8937 22.988 53.8602 22.4261C54.8493 21.8642 55.591 21.0999 56.0855 20.1334H59.592C58.8727 22.044 57.7039 23.5837 56.0855 24.7525C54.4671 25.8989 52.6465 26.472 50.6235 26.472C47.9937 26.472 45.7459 25.4943 43.8803 23.5387C42.0371 21.5832 41.1156 19.2793 41.1156 16.6269C41.1156 13.9072 42.0371 11.592 43.8803 9.68142C45.7234 7.77085 47.9937 6.81556 50.6909 6.81556C53.3208 6.81556 55.5573 7.75961 57.4004 9.64771C59.2661 11.5358 60.1989 13.7948 60.1989 16.4246ZM56.6924 15.4806C56.6025 13.9521 55.9506 12.6597 54.7369 11.6032C53.5456 10.5468 52.1857 10.0186 50.6572 10.0186C49.1288 10.0186 47.7576 10.5468 46.5439 11.6032C45.3526 12.6597 44.712 13.9521 44.622 15.4806H56.6924ZM71.7838 10.4232C70.9071 10.4232 70.0642 10.6479 69.2551 11.0975C67.8839 11.7943 67.1984 13.3565 67.1984 15.784V26H63.6919V7.3213H66.9624V9.0071H67.0298C68.0188 7.6135 69.6035 6.88299 71.7838 6.81556V10.4232ZM92.3674 16.4246C92.3674 17.009 92.3337 17.5935 92.2663 18.1779H76.7906C77.1502 19.6614 77.8808 20.8864 78.9821 21.8529C80.106 22.797 81.4209 23.269 82.9269 23.269C84.0283 23.269 85.0623 22.988 86.0288 22.4261C87.0178 21.8642 87.7596 21.0999 88.2541 20.1334H91.7605C91.0413 22.044 89.8724 23.5837 88.2541 24.7525C86.6357 25.8989 84.815 26.472 82.7921 26.472C80.1622 26.472 77.9145 25.4943 76.0488 23.5387C74.2057 21.5832 73.2841 19.2793 73.2841 16.6269C73.2841 13.9072 74.2057 11.592 76.0488 9.68142C77.892 7.77085 80.1622 6.81556 82.8595 6.81556C85.4893 6.81556 87.7258 7.75961 89.569 9.64771C91.4346 11.5358 92.3674 13.7948 92.3674 16.4246ZM88.861 15.4806C88.771 13.9521 88.1192 12.6597 86.9054 11.6032C85.7141 10.5468 84.3542 10.0186 82.8258 10.0186C81.2973 10.0186 79.9262 10.5468 78.7124 11.6032C77.5211 12.6597 76.8805 13.9521 76.7906 15.4806H88.861Z" fill="#04BF68"/>
<path d="M25.872 8.48132L25.8066 8.32205L25.6852 8.4441L23.2674 10.8747L23.2213 10.921L23.2379 10.9843C23.44 11.7548 23.5412 12.551 23.5412 13.373C23.5412 18.7084 19.2045 23.045 13.8692 23.045C8.52103 23.045 4.18448 18.7083 4.18448 13.373C4.18448 12.538 4.28569 11.7291 4.48776 10.9587L4.50434 10.8954L4.45824 10.8491L2.04046 8.41852L1.91866 8.29607L1.85358 8.45605C1.23425 9.97857 0.885721 11.6306 0.885721 13.373C0.885721 20.5232 6.70629 26.3438 13.8564 26.3438C21.0066 26.3438 26.8272 20.5232 26.8272 13.373C26.8272 11.644 26.4917 9.99179 25.872 8.48132ZM21.8975 7.99988L21.975 8.11535L22.0733 8.01705L24.2736 5.81674L24.3432 5.74707L24.2846 5.6679C21.923 2.48046 18.1287 0.402322 13.8564 0.402322C9.5972 0.402322 5.80274 2.46752 3.44109 5.65511L3.38243 5.73428L3.4521 5.80395L5.65241 8.00426L5.75071 8.10256L5.82814 7.98709C7.29483 5.7997 9.63382 4.24471 12.339 3.81484C12.8319 3.73903 13.3376 3.70108 13.8564 3.70108C14.3753 3.70108 14.881 3.73903 15.3739 3.81484C18.0916 4.24468 20.4307 5.81226 21.8975 7.99988Z" fill="#04BF68" stroke="#75BF7A" stroke-width="0.228559"/>
<path d="M15.3955 13.7921H15.5098V13.6779L15.5098 1.76807V1.65379H15.3955L12.3253 1.65379H12.211V1.76807L12.211 13.6779V13.7921H12.3253H15.3955Z" fill="#04BF68" stroke="#75BF7A" stroke-width="0.228559"/>
</svg>
