<svg width="388" height="322" viewBox="0 0 388 322" fill="none" xmlns="http://www.w3.org/2000/svg">
<path opacity="0.7" d="M385.042 128.073C385.042 128.073 376.228 80.2941 313.238 50.7372C250.247 21.2345 221.064 50.5745 189.353 62.8311C157.697 75.0877 140.498 58.2213 87.6125 50.2491C34.6729 42.2769 -11.1186 121.511 3.87649 183.336C18.8716 245.216 51.9253 267.235 124.16 281.281C196.448 295.327 239.176 248.958 290.288 257.364C341.4 265.824 402.187 218.533 385.042 128.073Z" fill="#E8FFE9"/>
<path d="M293.266 67.2222H242.609C242.609 67.2222 245.127 63.8922 247.896 63.5059C247.896 63.5059 253.295 47.3022 262.336 47.1889C270.743 47.0757 274.113 57.1789 274.113 57.1789C274.113 57.1789 278.006 52.6568 281.727 54.7214C285.447 56.786 287.549 62.7134 287.549 62.7134C287.549 62.7134 291.752 64.9512 293.266 67.2222Z" fill="#04BF68"/>
<path d="M63.5402 93.5025H127.6C127.6 93.5025 127.6 89.3733 118.771 88.5674C118.771 88.5674 110.715 70.5388 98.4154 72.963C90.7557 74.4682 86.8366 85.0709 86.8366 85.0709C86.8366 85.0709 81.0472 76.7259 76.421 78.3443C71.7947 79.9627 69.0388 88.8338 69.0388 88.8338C69.0388 88.8338 64.2606 91.1715 63.5402 93.5025Z" fill="#04BF68"/>
<path d="M119.128 42.2672H162.687C162.687 42.2672 158.576 38.4111 156.739 38.4111C154.902 38.4111 149.595 25.4707 142.781 26.0168C135.967 26.5629 132.352 36.2066 132.352 36.2066C132.352 36.2066 124.071 33.5959 119.128 42.2672Z" fill="#04BF68"/>
<path d="M149.978 79.1436H187.226C187.226 79.1436 185.375 76.7127 183.333 76.413C183.333 76.413 179.368 64.4982 172.713 64.425C166.533 64.345 164.055 71.751 164.055 71.751C164.055 71.751 161.193 68.421 158.457 69.9528C155.721 71.4846 154.168 75.8202 154.168 75.8202C154.168 75.8202 151.095 77.4719 149.978 79.1436Z" fill="#04BF68"/>
<path d="M287.185 114.322H324.46C324.46 114.322 322.609 111.891 320.567 111.591C320.567 111.591 316.602 99.6764 309.946 99.6032C303.767 99.5233 301.289 106.929 301.289 106.929C301.289 106.929 298.427 103.599 295.691 105.124C292.955 106.649 291.402 110.992 291.402 110.992C291.402 110.992 288.329 112.65 287.185 114.322Z" fill="#04BF68"/>
<path d="M234.024 112.943H213.027V223.846H234.024V112.943Z" fill="#467349"/>
<path d="M220.37 116.546H216.285V120.782H220.37V116.546Z" fill="white"/>
<path d="M225.591 116.546H221.506V120.782H225.591V116.546Z" fill="white"/>
<path d="M220.37 123.732H216.285V127.968H220.37V123.732Z" fill="white"/>
<path d="M225.591 123.732H221.506V127.968H225.591V123.732Z" fill="white"/>
<path d="M220.37 130.925H216.285V135.161H220.37V130.925Z" fill="white"/>
<path d="M225.591 130.925H221.506V135.161H225.591V130.925Z" fill="white"/>
<path d="M220.37 138.111H216.285V142.347H220.37V138.111Z" fill="white"/>
<path d="M225.591 138.111H221.506V142.347H225.591V138.111Z" fill="white"/>
<path d="M220.37 145.304H216.285V149.54H220.37V145.304Z" fill="white"/>
<path d="M225.591 145.304H221.506V149.54H225.591V145.304Z" fill="white"/>
<path d="M220.37 152.49H216.285V156.726H220.37V152.49Z" fill="white"/>
<path d="M225.591 152.49H221.506V156.726H225.591V152.49Z" fill="white"/>
<path d="M220.37 159.683H216.285V163.919H220.37V159.683Z" fill="white"/>
<path d="M225.591 159.683H221.506V163.919H225.591V159.683Z" fill="white"/>
<path d="M220.37 166.869H216.285V171.105H220.37V166.869Z" fill="white"/>
<path d="M225.591 166.869H221.506V171.105H225.591V166.869Z" fill="white"/>
<path d="M220.37 174.062H216.285V178.298H220.37V174.062Z" fill="white"/>
<path d="M225.591 174.062H221.506V178.298H225.591V174.062Z" fill="white"/>
<path d="M220.37 181.248H216.285V185.484H220.37V181.248Z" fill="white"/>
<path d="M225.591 181.248H221.506V185.484H225.591V181.248Z" fill="white"/>
<path d="M220.37 188.441H216.285V192.677H220.37V188.441Z" fill="white"/>
<path d="M225.591 188.441H221.506V192.677H225.591V188.441Z" fill="white"/>
<path d="M220.37 195.627H216.285V199.863H220.37V195.627Z" fill="white"/>
<path d="M225.591 195.627H221.506V199.863H225.591V195.627Z" fill="white"/>
<path d="M220.37 202.82H216.285V207.056H220.37V202.82Z" fill="white"/>
<path d="M225.591 202.82H221.506V207.056H225.591V202.82Z" fill="white"/>
<path d="M220.37 210.006H216.285V214.242H220.37V210.006Z" fill="white"/>
<path d="M226.675 214.249H230.759V210.013H226.675V214.249Z" fill="white"/>
<path d="M226.675 207.056H230.759V202.82H226.675V207.056Z" fill="white"/>
<path d="M226.675 199.87H230.759V195.634H226.675V199.87Z" fill="white"/>
<path d="M226.675 192.677H230.759V188.441H226.675V192.677Z" fill="white"/>
<path d="M226.675 185.491H230.759V181.255H226.675V185.491Z" fill="white"/>
<path d="M226.675 178.298H230.759V174.062H226.675V178.298Z" fill="white"/>
<path d="M226.675 171.111H230.759V166.876H226.675V171.111Z" fill="white"/>
<path d="M226.675 163.919H230.759V159.683H226.675V163.919Z" fill="white"/>
<path d="M226.675 156.732H230.759V152.497H226.675V156.732Z" fill="white"/>
<path d="M226.675 149.54H230.759V145.304H226.675V149.54Z" fill="white"/>
<path d="M226.675 142.347H230.759V138.111H226.675V142.347Z" fill="white"/>
<path d="M226.675 135.154H230.759V130.919H226.675V135.154Z" fill="white"/>
<path d="M226.675 127.968H230.759V123.733H226.675V127.968Z" fill="white"/>
<path d="M226.675 120.775H230.759V116.54H226.675V120.775Z" fill="white"/>
<path d="M225.591 210.006H221.506V214.242H225.591V210.006Z" fill="white"/>
<path d="M250.572 112.943H234.017V223.846H250.572V112.943Z" fill="#04BF68"/>
<path d="M245.497 214.249H248.867V210.013H245.497V214.249Z" fill="#263238"/>
<path d="M241.181 214.249H244.552V210.013H241.181V214.249Z" fill="#263238"/>
<path d="M245.497 207.056H248.867V202.82H245.497V207.056Z" fill="#263238"/>
<path d="M241.181 207.056H244.552V202.82H241.181V207.056Z" fill="#263238"/>
<path d="M245.497 199.87H248.867V195.634H245.497V199.87Z" fill="#263238"/>
<path d="M241.181 199.87H244.552V195.634H241.181V199.87Z" fill="#263238"/>
<path d="M245.497 192.677H248.867V188.441H245.497V192.677Z" fill="#263238"/>
<path d="M241.181 192.677H244.552V188.441H241.181V192.677Z" fill="#263238"/>
<path d="M245.497 185.491H248.867V181.255H245.497V185.491Z" fill="#263238"/>
<path d="M241.181 185.491H244.552V181.255H241.181V185.491Z" fill="#263238"/>
<path d="M245.497 178.298H248.867V174.062H245.497V178.298Z" fill="#263238"/>
<path d="M241.181 178.298H244.552V174.062H241.181V178.298Z" fill="#263238"/>
<path d="M245.497 171.111H248.867V166.876H245.497V171.111Z" fill="#263238"/>
<path d="M241.181 171.111H244.552V166.876H241.181V171.111Z" fill="#263238"/>
<path d="M245.497 163.919H248.867V159.683H245.497V163.919Z" fill="#263238"/>
<path d="M241.181 163.919H244.552V159.683H241.181V163.919Z" fill="#263238"/>
<path d="M245.497 156.732H248.867V152.497H245.497V156.732Z" fill="#263238"/>
<path d="M241.181 156.732H244.552V152.497H241.181V156.732Z" fill="#263238"/>
<path d="M245.497 149.54H248.867V145.304H245.497V149.54Z" fill="#263238"/>
<path d="M241.181 149.54H244.552V145.304H241.181V149.54Z" fill="#263238"/>
<path d="M245.497 142.347H248.867V138.111H245.497V142.347Z" fill="#263238"/>
<path d="M241.181 142.347H244.552V138.111H241.181V142.347Z" fill="#263238"/>
<path d="M245.497 135.154H248.867V130.919H245.497V135.154Z" fill="#263238"/>
<path d="M241.181 135.154H244.552V130.919H241.181V135.154Z" fill="#263238"/>
<path d="M245.497 127.968H248.867V123.733H245.497V127.968Z" fill="#263238"/>
<path d="M241.181 127.968H244.552V123.733H241.181V127.968Z" fill="#263238"/>
<path d="M245.497 120.775H248.867V116.54H245.497V120.775Z" fill="#263238"/>
<path d="M240.282 116.546H236.912V120.782H240.282V116.546Z" fill="#263238"/>
<path d="M240.282 123.732H236.912V127.968H240.282V123.732Z" fill="#263238"/>
<path d="M240.282 130.925H236.912V135.161H240.282V130.925Z" fill="#263238"/>
<path d="M240.282 138.111H236.912V142.347H240.282V138.111Z" fill="#263238"/>
<path d="M240.282 145.304H236.912V149.54H240.282V145.304Z" fill="#263238"/>
<path d="M240.282 152.49H236.912V156.726H240.282V152.49Z" fill="#263238"/>
<path d="M240.282 159.683H236.912V163.919H240.282V159.683Z" fill="#263238"/>
<path d="M240.282 166.869H236.912V171.105H240.282V166.869Z" fill="#263238"/>
<path d="M240.282 174.062H236.912V178.298H240.282V174.062Z" fill="#263238"/>
<path d="M240.282 181.248H236.912V185.484H240.282V181.248Z" fill="#263238"/>
<path d="M240.282 188.441H236.912V192.677H240.282V188.441Z" fill="#263238"/>
<path d="M240.282 195.627H236.912V199.863H240.282V195.627Z" fill="#263238"/>
<path d="M240.282 202.82H236.912V207.056H240.282V202.82Z" fill="#263238"/>
<path d="M240.282 210.006H236.912V214.242H240.282V210.006Z" fill="#263238"/>
<path d="M241.181 120.775H244.552V116.54H241.181V120.775Z" fill="#263238"/>
<path d="M151.313 106.962H126.477V223.845H151.313V106.962Z" fill="#455A64"/>
<path d="M151.313 104.405H125.882V106.962H151.313V104.405Z" fill="#263238"/>
<path d="M131.242 110.732H128.724V223.845H131.242V110.732Z" fill="white"/>
<path d="M135.696 110.732H133.178V223.845H135.696V110.732Z" fill="white"/>
<path d="M140.157 110.732H137.639V223.845H140.157V110.732Z" fill="white"/>
<path d="M144.612 110.732H142.094V223.845H144.612V110.732Z" fill="white"/>
<path d="M149.073 110.732H146.555V223.845H149.073V110.732Z" fill="white"/>
<path d="M131.242 113.969H128.724V119.017H131.242V113.969Z" fill="#455A64"/>
<path d="M135.696 113.969H133.178V119.017H135.696V113.969Z" fill="#455A64"/>
<path d="M140.157 113.969H137.639V119.017H140.157V113.969Z" fill="#455A64"/>
<path d="M144.612 113.969H142.094V119.017H144.612V113.969Z" fill="#455A64"/>
<path d="M149.073 113.969H146.555V119.017H149.073V113.969Z" fill="#455A64"/>
<path d="M131.242 122.181H128.724V127.236H131.242V122.181Z" fill="#455A64"/>
<path d="M135.696 122.181H133.178V127.236H135.696V122.181Z" fill="#455A64"/>
<path d="M140.157 122.181H137.639V127.236H140.157V122.181Z" fill="#455A64"/>
<path d="M144.612 122.181H142.094V127.236H144.612V122.181Z" fill="#455A64"/>
<path d="M149.073 122.181H146.555V127.236H149.073V122.181Z" fill="#455A64"/>
<path d="M131.242 130.386H128.724V135.434H131.242V130.386Z" fill="#455A64"/>
<path d="M135.696 130.386H133.178V135.434H135.696V130.386Z" fill="#455A64"/>
<path d="M140.157 130.386H137.639V135.434H140.157V130.386Z" fill="#455A64"/>
<path d="M144.612 130.386H142.094V135.434H144.612V130.386Z" fill="#455A64"/>
<path d="M149.073 130.386H146.555V135.434H149.073V130.386Z" fill="#455A64"/>
<path d="M131.242 138.598H128.724V143.646H131.242V138.598Z" fill="#455A64"/>
<path d="M135.696 138.598H133.178V143.646H135.696V138.598Z" fill="#455A64"/>
<path d="M140.157 138.598H137.639V143.646H140.157V138.598Z" fill="#455A64"/>
<path d="M144.612 138.598H142.094V143.646H144.612V138.598Z" fill="#455A64"/>
<path d="M149.073 138.598H146.555V143.646H149.073V138.598Z" fill="#455A64"/>
<path d="M131.242 146.809H128.724V151.857H131.242V146.809Z" fill="#455A64"/>
<path d="M135.696 146.809H133.178V151.857H135.696V146.809Z" fill="#455A64"/>
<path d="M140.157 146.809H137.639V151.857H140.157V146.809Z" fill="#455A64"/>
<path d="M144.612 146.809H142.094V151.857H144.612V146.809Z" fill="#455A64"/>
<path d="M149.073 146.809H146.555V151.857H149.073V146.809Z" fill="#455A64"/>
<path d="M131.242 155.014H128.724V160.069H131.242V155.014Z" fill="#455A64"/>
<path d="M135.696 155.014H133.178V160.069H135.696V155.014Z" fill="#455A64"/>
<path d="M140.157 155.014H137.639V160.069H140.157V155.014Z" fill="#455A64"/>
<path d="M144.612 155.014H142.094V160.069H144.612V155.014Z" fill="#455A64"/>
<path d="M149.073 155.014H146.555V160.069H149.073V155.014Z" fill="#455A64"/>
<path d="M131.242 163.226H128.724V168.281H131.242V163.226Z" fill="#455A64"/>
<path d="M135.696 163.226H133.178V168.281H135.696V163.226Z" fill="#455A64"/>
<path d="M140.157 163.226H137.639V168.281H140.157V163.226Z" fill="#455A64"/>
<path d="M144.612 163.226H142.094V168.281H144.612V163.226Z" fill="#455A64"/>
<path d="M149.073 163.226H146.555V168.281H149.073V163.226Z" fill="#455A64"/>
<path d="M131.242 171.438H128.724V176.493H131.242V171.438Z" fill="#455A64"/>
<path d="M135.696 171.438H133.178V176.493H135.696V171.438Z" fill="#455A64"/>
<path d="M140.157 171.438H137.639V176.493H140.157V171.438Z" fill="#455A64"/>
<path d="M144.612 171.438H142.094V176.493H144.612V171.438Z" fill="#455A64"/>
<path d="M149.073 171.438H146.555V176.493H149.073V171.438Z" fill="#455A64"/>
<path d="M131.242 179.649H128.724V184.698H131.242V179.649Z" fill="#455A64"/>
<path d="M135.696 179.649H133.178V184.698H135.696V179.649Z" fill="#455A64"/>
<path d="M140.157 179.649H137.639V184.698H140.157V179.649Z" fill="#455A64"/>
<path d="M144.612 179.649H142.094V184.698H144.612V179.649Z" fill="#455A64"/>
<path d="M149.073 179.649H146.555V184.698H149.073V179.649Z" fill="#455A64"/>
<path d="M131.242 187.855H128.724V192.903H131.242V187.855Z" fill="#455A64"/>
<path d="M135.696 187.855H133.178V192.903H135.696V187.855Z" fill="#455A64"/>
<path d="M140.157 187.855H137.639V192.903H140.157V187.855Z" fill="#455A64"/>
<path d="M144.612 187.855H142.094V192.903H144.612V187.855Z" fill="#455A64"/>
<path d="M149.073 187.855H146.555V192.903H149.073V187.855Z" fill="#455A64"/>
<path d="M131.242 196.066H128.724V201.115H131.242V196.066Z" fill="#455A64"/>
<path d="M135.696 196.066H133.178V201.115H135.696V196.066Z" fill="#455A64"/>
<path d="M140.157 196.066H137.639V201.115H140.157V196.066Z" fill="#455A64"/>
<path d="M144.612 196.066H142.094V201.115H144.612V196.066Z" fill="#455A64"/>
<path d="M149.073 196.066H146.555V201.115H149.073V196.066Z" fill="#455A64"/>
<path d="M131.242 204.278H128.724V209.327H131.242V204.278Z" fill="#455A64"/>
<path d="M135.696 204.278H133.178V209.327H135.696V204.278Z" fill="#455A64"/>
<path d="M140.157 204.278H137.639V209.327H140.157V204.278Z" fill="#455A64"/>
<path d="M144.612 204.278H142.094V209.327H144.612V204.278Z" fill="#455A64"/>
<path d="M149.073 204.278H146.555V209.327H149.073V204.278Z" fill="#455A64"/>
<path d="M131.242 212.49H128.724V217.539H131.242V212.49Z" fill="#455A64"/>
<path d="M135.696 212.49H133.178V217.539H135.696V212.49Z" fill="#455A64"/>
<path d="M140.157 212.49H137.639V217.539H140.157V212.49Z" fill="#455A64"/>
<path d="M144.612 212.49H142.094V217.539H144.612V212.49Z" fill="#455A64"/>
<path d="M149.073 212.49H146.555V217.539H149.073V212.49Z" fill="#455A64"/>
<path d="M131.242 220.695H128.724V223.845H131.242V220.695Z" fill="#455A64"/>
<path d="M135.696 220.695H133.178V223.845H135.696V220.695Z" fill="#455A64"/>
<path d="M140.157 220.695H137.639V223.845H140.157V220.695Z" fill="#455A64"/>
<path d="M144.612 220.695H142.094V223.845H144.612V220.695Z" fill="#455A64"/>
<path d="M149.073 220.695H146.555V223.845H149.073V220.695Z" fill="#455A64"/>
<path d="M167.26 106.962H151.313V223.845H167.26V106.962Z" fill="#467349"/>
<path d="M167.948 104.405H151.313V106.962H167.948V104.405Z" fill="#467349"/>
<path d="M156.078 110.732H153.56V223.845H156.078V110.732Z" fill="#F5FCFF"/>
<path d="M160.533 110.732H158.015V223.845H160.533V110.732Z" fill="#F5FCFF"/>
<path d="M164.994 110.732H162.476V223.845H164.994V110.732Z" fill="#F5FCFF"/>
<path d="M156.078 113.969H153.56V119.017H156.078V113.969Z" fill="#467349"/>
<path d="M160.533 113.969H158.015V119.017H160.533V113.969Z" fill="#467349"/>
<path d="M164.994 113.969H162.476V119.017H164.994V113.969Z" fill="#467349"/>
<path d="M156.078 122.181H153.56V127.236H156.078V122.181Z" fill="#467349"/>
<path d="M160.533 122.181H158.015V127.236H160.533V122.181Z" fill="#467349"/>
<path d="M164.994 122.181H162.476V127.236H164.994V122.181Z" fill="#467349"/>
<path d="M156.078 130.386H153.56V135.434H156.078V130.386Z" fill="#467349"/>
<path d="M160.533 130.386H158.015V135.434H160.533V130.386Z" fill="#467349"/>
<path d="M164.994 130.386H162.476V135.434H164.994V130.386Z" fill="#467349"/>
<path d="M156.078 138.598H153.56V143.646H156.078V138.598Z" fill="#467349"/>
<path d="M160.533 138.598H158.015V143.646H160.533V138.598Z" fill="#467349"/>
<path d="M164.994 138.598H162.476V143.646H164.994V138.598Z" fill="#467349"/>
<path d="M156.078 146.809H153.56V151.857H156.078V146.809Z" fill="#467349"/>
<path d="M160.533 146.809H158.015V151.857H160.533V146.809Z" fill="#467349"/>
<path d="M164.994 146.809H162.476V151.857H164.994V146.809Z" fill="#467349"/>
<path d="M156.078 155.014H153.56V160.069H156.078V155.014Z" fill="#467349"/>
<path d="M160.533 155.014H158.015V160.069H160.533V155.014Z" fill="#467349"/>
<path d="M164.994 155.014H162.476V160.069H164.994V155.014Z" fill="#467349"/>
<path d="M156.078 163.226H153.56V168.281H156.078V163.226Z" fill="#467349"/>
<path d="M160.533 163.226H158.015V168.281H160.533V163.226Z" fill="#467349"/>
<path d="M164.994 163.226H162.476V168.281H164.994V163.226Z" fill="#467349"/>
<path d="M156.078 171.438H153.56V176.493H156.078V171.438Z" fill="#467349"/>
<path d="M160.533 171.438H158.015V176.493H160.533V171.438Z" fill="#467349"/>
<path d="M164.994 171.438H162.476V176.493H164.994V171.438Z" fill="#467349"/>
<path d="M156.078 179.649H153.56V184.698H156.078V179.649Z" fill="#467349"/>
<path d="M160.533 179.649H158.015V184.698H160.533V179.649Z" fill="#467349"/>
<path d="M164.994 179.649H162.476V184.698H164.994V179.649Z" fill="#467349"/>
<path d="M156.078 187.855H153.56V192.903H156.078V187.855Z" fill="#467349"/>
<path d="M160.533 187.855H158.015V192.903H160.533V187.855Z" fill="#467349"/>
<path d="M164.994 187.855H162.476V192.903H164.994V187.855Z" fill="#467349"/>
<path d="M156.078 196.066H153.56V201.115H156.078V196.066Z" fill="#467349"/>
<path d="M160.533 196.066H158.015V201.115H160.533V196.066Z" fill="#467349"/>
<path d="M164.994 196.066H162.476V201.115H164.994V196.066Z" fill="#467349"/>
<path d="M156.078 204.278H153.56V209.327H156.078V204.278Z" fill="#467349"/>
<path d="M160.533 204.278H158.015V209.327H160.533V204.278Z" fill="#467349"/>
<path d="M164.994 204.278H162.476V209.327H164.994V204.278Z" fill="#467349"/>
<path d="M156.078 212.49H153.56V217.539H156.078V212.49Z" fill="#467349"/>
<path d="M160.533 212.49H158.015V217.539H160.533V212.49Z" fill="#467349"/>
<path d="M164.994 212.49H162.476V217.539H164.994V212.49Z" fill="#467349"/>
<path d="M156.078 220.695H153.56V223.845H156.078V220.695Z" fill="#467349"/>
<path d="M160.533 220.695H158.015V223.845H160.533V220.695Z" fill="#467349"/>
<path d="M164.994 220.695H162.476V223.845H164.994V220.695Z" fill="#467349"/>
<path d="M90.3924 149.919H65.6619V223.845H90.3924V149.919Z" fill="#455A64"/>
<path d="M90.3989 143.652H69.1843V149.919H90.3989V143.652Z" fill="#263238"/>
<path d="M87.6826 153.189H68.378V223.845H87.6826V153.189Z" fill="#467349"/>
<path d="M87.6826 159.929H68.378V161.601H87.6826V159.929Z" fill="white"/>
<path d="M87.6826 166.849H68.378V168.521H87.6826V166.849Z" fill="white"/>
<path d="M87.6826 173.762H68.378V175.434H87.6826V173.762Z" fill="white"/>
<path d="M87.6826 180.682H68.378V182.354H87.6826V180.682Z" fill="white"/>
<path d="M87.6826 187.595H68.378V189.267H87.6826V187.595Z" fill="white"/>
<path d="M87.6826 194.515H68.378V196.186H87.6826V194.515Z" fill="white"/>
<path d="M87.6826 201.428H68.378V203.099H87.6826V201.428Z" fill="white"/>
<path d="M87.6826 208.348H68.378V210.019H87.6826V208.348Z" fill="white"/>
<path d="M87.6826 215.261H68.378V216.932H87.6826V215.261Z" fill="white"/>
<path d="M87.6826 222.174H68.378V223.845H87.6826V222.174Z" fill="white"/>
<path d="M105.884 149.919H90.3925V223.845H105.884V149.919Z" fill="#467349"/>
<path d="M103.557 143.652H90.3925V149.919H103.557V143.652Z" fill="#04BF68"/>
<path d="M104.443 153.189H92.5335V223.845H104.443V153.189Z" fill="#263238"/>
<path d="M104.443 159.929H92.5335V161.601H104.443V159.929Z" fill="white"/>
<path d="M104.443 166.849H92.5335V168.521H104.443V166.849Z" fill="white"/>
<path d="M104.443 173.762H92.5335V175.434H104.443V173.762Z" fill="white"/>
<path d="M104.443 180.682H92.5335V182.354H104.443V180.682Z" fill="white"/>
<path d="M104.443 187.595H92.5335V189.267H104.443V187.595Z" fill="white"/>
<path d="M104.443 194.515H92.5335V196.186H104.443V194.515Z" fill="white"/>
<path d="M104.443 201.428H92.5335V203.099H104.443V201.428Z" fill="white"/>
<path d="M104.443 208.348H92.5335V210.019H104.443V208.348Z" fill="white"/>
<path d="M104.443 215.261H92.5335V216.932H104.443V215.261Z" fill="white"/>
<path d="M104.443 222.174H92.5335V223.845H104.443V222.174Z" fill="white"/>
<path d="M272.091 180.569H252.971V223.846H272.091V180.569Z" fill="#467349"/>
<path d="M259.356 184.312H255.972V186.962H259.356V184.312Z" fill="#263238"/>
<path d="M259.356 189.979H255.972V192.63H259.356V189.979Z" fill="#263238"/>
<path d="M259.356 195.64H255.972V198.291H259.356V195.64Z" fill="#263238"/>
<path d="M259.356 201.301H255.972V203.952H259.356V201.301Z" fill="#263238"/>
<path d="M259.356 206.969H255.972V209.619H259.356V206.969Z" fill="#263238"/>
<path d="M259.356 212.63H255.972V215.281H259.356V212.63Z" fill="#263238"/>
<path d="M259.356 218.298H255.972V220.949H259.356V218.298Z" fill="#263238"/>
<path d="M264.226 184.312H260.843V186.962H264.226V184.312Z" fill="#263238"/>
<path d="M264.226 189.979H260.843V192.63H264.226V189.979Z" fill="#263238"/>
<path d="M264.226 195.64H260.843V198.291H264.226V195.64Z" fill="#263238"/>
<path d="M264.226 201.301H260.843V203.952H264.226V201.301Z" fill="#263238"/>
<path d="M264.226 206.969H260.843V209.619H264.226V206.969Z" fill="#263238"/>
<path d="M264.226 212.63H260.843V215.281H264.226V212.63Z" fill="#263238"/>
<path d="M264.226 218.298H260.843V220.949H264.226V218.298Z" fill="#263238"/>
<path d="M269.084 184.312H265.7V186.962H269.084V184.312Z" fill="#263238"/>
<path d="M269.084 189.979H265.7V192.63H269.084V189.979Z" fill="#263238"/>
<path d="M269.084 195.64H265.7V198.291H269.084V195.64Z" fill="#263238"/>
<path d="M269.084 201.301H265.7V203.952H269.084V201.301Z" fill="#263238"/>
<path d="M269.084 206.969H265.7V209.619H269.084V206.969Z" fill="#263238"/>
<path d="M269.084 212.63H265.7V215.281H269.084V212.63Z" fill="#263238"/>
<path d="M269.084 218.298H265.7V220.949H269.084V218.298Z" fill="#263238"/>
<path d="M285.5 180.569H272.084V223.846H285.5V180.569Z" fill="#04BF68"/>
<path d="M281.376 220.522H284.132V217.871H281.376V220.522Z" fill="#263238"/>
<path d="M281.376 214.854H284.132V212.204H281.376V214.854Z" fill="#263238"/>
<path d="M281.376 209.2H284.132V206.55H281.376V209.2Z" fill="#263238"/>
<path d="M281.376 203.532H284.132V200.882H281.376V203.532Z" fill="#263238"/>
<path d="M281.376 197.865H284.132V195.214H281.376V197.865Z" fill="#263238"/>
<path d="M281.376 192.204H284.132V189.553H281.376V192.204Z" fill="#263238"/>
<path d="M281.376 186.543H284.132V183.892H281.376V186.543Z" fill="#263238"/>
<path d="M277.411 220.522H280.167V217.871H277.411V220.522Z" fill="#263238"/>
<path d="M277.411 214.854H280.167V212.204H277.411V214.854Z" fill="#263238"/>
<path d="M277.411 209.2H280.167V206.55H277.411V209.2Z" fill="#263238"/>
<path d="M277.411 203.532H280.167V200.882H277.411V203.532Z" fill="#263238"/>
<path d="M277.411 197.865H280.167V195.214H277.411V197.865Z" fill="#263238"/>
<path d="M277.411 192.204H280.167V189.553H277.411V192.204Z" fill="#263238"/>
<path d="M277.411 186.543H280.167V183.892H277.411V186.543Z" fill="#263238"/>
<path d="M273.459 220.522H276.215V217.871H273.459V220.522Z" fill="#263238"/>
<path d="M273.459 214.854H276.215V212.204H273.459V214.854Z" fill="#263238"/>
<path d="M273.459 209.2H276.215V206.55H273.459V209.2Z" fill="#263238"/>
<path d="M273.459 203.532H276.215V200.882H273.459V203.532Z" fill="#263238"/>
<path d="M273.459 197.865H276.215V195.214H273.459V197.865Z" fill="#263238"/>
<path d="M273.459 192.204H276.215V189.553H273.459V192.204Z" fill="#263238"/>
<path d="M273.459 186.543H276.215V183.892H273.459V186.543Z" fill="#263238"/>
<path d="M301.95 130.925H288.739V146.65H301.95V130.925Z" fill="#467349"/>
<path d="M310.317 130.925H301.943V147.222H310.317V130.925Z" fill="#263238"/>
<path d="M310.879 137.865H302.565V147.222H310.879V137.865Z" fill="#467349"/>
<path d="M316.06 137.865H310.878V147.222H316.06V137.865Z" fill="#263238"/>
<path d="M305.03 145.624H283.67V223.845H305.03V145.624Z" fill="#455A64"/>
<path d="M292.83 148.987H286.115V151.751H292.83V148.987Z" fill="white"/>
<path d="M301.421 148.987H294.707V151.751H301.421V148.987Z" fill="white"/>
<path d="M292.83 153.682H286.115V156.446H292.83V153.682Z" fill="white"/>
<path d="M301.421 153.682H294.707V156.446H301.421V153.682Z" fill="white"/>
<path d="M292.83 158.377H286.115V161.141H292.83V158.377Z" fill="white"/>
<path d="M301.421 158.377H294.707V161.141H301.421V158.377Z" fill="white"/>
<path d="M292.83 163.073H286.115V165.837H292.83V163.073Z" fill="white"/>
<path d="M301.421 163.073H294.707V165.837H301.421V163.073Z" fill="white"/>
<path d="M292.83 167.768H286.115V170.532H292.83V167.768Z" fill="white"/>
<path d="M301.421 167.768H294.707V170.532H301.421V167.768Z" fill="white"/>
<path d="M292.83 172.463H286.115V175.227H292.83V172.463Z" fill="white"/>
<path d="M301.421 172.463H294.707V175.227H301.421V172.463Z" fill="white"/>
<path d="M292.83 177.159H286.115V179.923H292.83V177.159Z" fill="white"/>
<path d="M301.421 177.159H294.707V179.923H301.421V177.159Z" fill="white"/>
<path d="M292.83 181.854H286.115V184.618H292.83V181.854Z" fill="white"/>
<path d="M301.421 181.854H294.707V184.618H301.421V181.854Z" fill="white"/>
<path d="M292.83 186.549H286.115V189.313H292.83V186.549Z" fill="white"/>
<path d="M301.421 186.549H294.707V189.313H301.421V186.549Z" fill="white"/>
<path d="M292.83 191.245H286.115V194.009H292.83V191.245Z" fill="white"/>
<path d="M301.421 191.245H294.707V194.009H301.421V191.245Z" fill="white"/>
<path d="M292.83 195.94H286.115V198.704H292.83V195.94Z" fill="white"/>
<path d="M301.421 195.94H294.707V198.704H301.421V195.94Z" fill="white"/>
<path d="M292.83 200.635H286.115V203.399H292.83V200.635Z" fill="white"/>
<path d="M301.421 200.635H294.707V203.399H301.421V200.635Z" fill="white"/>
<path d="M292.83 205.331H286.115V208.094H292.83V205.331Z" fill="white"/>
<path d="M301.421 205.331H294.707V208.094H301.421V205.331Z" fill="white"/>
<path d="M292.83 210.026H286.115V212.79H292.83V210.026Z" fill="white"/>
<path d="M301.421 210.026H294.707V212.79H301.421V210.026Z" fill="white"/>
<path d="M322.338 145.624H305.03V223.845H322.338V145.624Z" fill="#263238"/>
<path d="M315.088 212.79H320.6V210.026H315.088V212.79Z" fill="#455A64"/>
<path d="M308.037 212.79H313.549V210.026H308.037V212.79Z" fill="#455A64"/>
<path d="M315.088 208.095H320.6V205.331H315.088V208.095Z" fill="#455A64"/>
<path d="M308.037 208.095H313.549V205.331H308.037V208.095Z" fill="#455A64"/>
<path d="M315.088 203.399H320.6V200.636H315.088V203.399Z" fill="#455A64"/>
<path d="M308.037 203.399H313.549V200.636H308.037V203.399Z" fill="#455A64"/>
<path d="M315.088 198.704H320.6V195.94H315.088V198.704Z" fill="#455A64"/>
<path d="M308.037 198.704H313.549V195.94H308.037V198.704Z" fill="#455A64"/>
<path d="M315.088 194.009H320.6V191.245H315.088V194.009Z" fill="#455A64"/>
<path d="M308.037 194.009H313.549V191.245H308.037V194.009Z" fill="#455A64"/>
<path d="M315.088 189.313H320.6V186.55H315.088V189.313Z" fill="#455A64"/>
<path d="M308.037 189.313H313.549V186.55H308.037V189.313Z" fill="#455A64"/>
<path d="M315.088 184.618H320.6V181.854H315.088V184.618Z" fill="#455A64"/>
<path d="M308.037 184.618H313.549V181.854H308.037V184.618Z" fill="#455A64"/>
<path d="M315.088 179.923H320.6V177.159H315.088V179.923Z" fill="#455A64"/>
<path d="M308.037 179.923H313.549V177.159H308.037V179.923Z" fill="#455A64"/>
<path d="M315.088 175.228H320.6V172.464H315.088V175.228Z" fill="#455A64"/>
<path d="M308.037 175.228H313.549V172.464H308.037V175.228Z" fill="#455A64"/>
<path d="M315.088 170.532H320.6V167.768H315.088V170.532Z" fill="#455A64"/>
<path d="M308.037 170.532H313.549V167.768H308.037V170.532Z" fill="#455A64"/>
<path d="M315.088 165.837H320.6V163.073H315.088V165.837Z" fill="#455A64"/>
<path d="M308.037 165.837H313.549V163.073H308.037V165.837Z" fill="#455A64"/>
<path d="M315.088 161.142H320.6V158.378H315.088V161.142Z" fill="#455A64"/>
<path d="M308.037 161.142H313.549V158.378H308.037V161.142Z" fill="#455A64"/>
<path d="M315.088 156.446H320.6V153.682H315.088V156.446Z" fill="#455A64"/>
<path d="M308.037 156.446H313.549V153.682H308.037V156.446Z" fill="#455A64"/>
<path d="M315.088 151.751H320.6V148.987H315.088V151.751Z" fill="#455A64"/>
<path d="M308.037 151.751H313.549V148.987H308.037V151.751Z" fill="#455A64"/>
<path d="M125.347 172.876H100.154V223.845H125.347V172.876Z" fill="#263238"/>
<path d="M108.573 177.285H104.112V180.409H108.573V177.285Z" fill="#467349"/>
<path d="M108.573 183.958H104.112V187.082H108.573V183.958Z" fill="#467349"/>
<path d="M108.573 190.625H104.112V193.749H108.573V190.625Z" fill="#467349"/>
<path d="M108.573 197.299H104.112V200.422H108.573V197.299Z" fill="#467349"/>
<path d="M108.573 203.965H104.112V207.089H108.573V203.965Z" fill="#467349"/>
<path d="M108.573 210.639H104.112V213.762H108.573V210.639Z" fill="#467349"/>
<path d="M108.573 217.305H104.112V220.429H108.573V217.305Z" fill="#467349"/>
<path d="M114.991 177.285H110.53V180.409H114.991V177.285Z" fill="#467349"/>
<path d="M114.991 183.958H110.53V187.082H114.991V183.958Z" fill="#467349"/>
<path d="M114.991 190.625H110.53V193.749H114.991V190.625Z" fill="#467349"/>
<path d="M114.991 197.299H110.53V200.422H114.991V197.299Z" fill="#467349"/>
<path d="M114.991 203.965H110.53V207.089H114.991V203.965Z" fill="#467349"/>
<path d="M114.991 210.639H110.53V213.762H114.991V210.639Z" fill="#467349"/>
<path d="M114.991 217.305H110.53V220.429H114.991V217.305Z" fill="#467349"/>
<path d="M121.388 177.285H116.927V180.409H121.388V177.285Z" fill="#467349"/>
<path d="M121.388 183.958H116.927V187.082H121.388V183.958Z" fill="#467349"/>
<path d="M121.388 190.625H116.927V193.749H121.388V190.625Z" fill="#467349"/>
<path d="M121.388 197.299H116.927V200.422H121.388V197.299Z" fill="#467349"/>
<path d="M121.388 203.965H116.927V207.089H121.388V203.965Z" fill="#467349"/>
<path d="M121.388 210.639H116.927V213.762H121.388V210.639Z" fill="#467349"/>
<path d="M121.388 217.305H116.927V220.429H121.388V217.305Z" fill="#467349"/>
<path d="M125.347 167.568H108.574V172.876H125.347V167.568Z" fill="#467349"/>
<path d="M125.347 164.278H114.713V167.568H125.347V164.278Z" fill="#455A64"/>
<path d="M143.019 172.876H125.347V223.845H143.019V172.876Z" fill="#04BF68"/>
<path d="M137.586 219.929H141.215V216.806H137.586V219.929Z" fill="#263238"/>
<path d="M137.586 213.263H141.215V210.139H137.586V213.263Z" fill="#263238"/>
<path d="M137.586 206.589H141.215V203.466H137.586V206.589Z" fill="#263238"/>
<path d="M137.586 199.923H141.215V196.799H137.586V199.923Z" fill="#263238"/>
<path d="M137.586 193.25H141.215V190.126H137.586V193.25Z" fill="#263238"/>
<path d="M137.586 186.583H141.215V183.459H137.586V186.583Z" fill="#263238"/>
<path d="M137.586 179.909H141.215V176.786H137.586V179.909Z" fill="#263238"/>
<path d="M132.366 219.929H135.994V216.806H132.366V219.929Z" fill="#263238"/>
<path d="M132.366 213.263H135.994V210.139H132.366V213.263Z" fill="#263238"/>
<path d="M132.366 206.589H135.994V203.466H132.366V206.589Z" fill="#263238"/>
<path d="M132.366 199.923H135.994V196.799H132.366V199.923Z" fill="#263238"/>
<path d="M132.366 193.25H135.994V190.126H132.366V193.25Z" fill="#263238"/>
<path d="M132.366 186.583H135.994V183.459H132.366V186.583Z" fill="#263238"/>
<path d="M132.366 179.909H135.994V176.786H132.366V179.909Z" fill="#263238"/>
<path d="M127.158 219.929H130.786V216.806H127.158V219.929Z" fill="#263238"/>
<path d="M127.158 213.263H130.786V210.139H127.158V213.263Z" fill="#263238"/>
<path d="M127.158 206.589H130.786V203.466H127.158V206.589Z" fill="#263238"/>
<path d="M127.158 199.923H130.786V196.799H127.158V199.923Z" fill="#263238"/>
<path d="M127.158 193.25H130.786V190.126H127.158V193.25Z" fill="#263238"/>
<path d="M127.158 186.583H130.786V183.459H127.158V186.583Z" fill="#263238"/>
<path d="M127.158 179.909H130.786V176.786H127.158V179.909Z" fill="#263238"/>
<path d="M140.343 167.568H125.347V172.876H140.343V167.568Z" fill="#263238"/>
<path d="M133.476 164.278H125.347V167.568H133.476V164.278Z" fill="#467349"/>
<path d="M195.573 295.473C258.857 295.473 310.158 293.064 310.158 290.092C310.158 287.12 258.857 284.711 195.573 284.711C132.289 284.711 80.9878 287.12 80.9878 290.092C80.9878 293.064 132.289 295.473 195.573 295.473Z" fill="#EBEBEB"/>
<path d="M334.201 223.826H53.7987V228.354H334.201V223.826Z" fill="#C7C7C7"/>
<path d="M73.4536 223.826C73.9029 225.301 73.9029 226.879 73.4536 228.354C73.218 227.624 73.1063 226.858 73.1231 226.09C73.1124 225.322 73.224 224.558 73.4536 223.826Z" fill="#263238"/>
<path d="M95.3753 223.826C95.6049 224.558 95.7164 225.322 95.7057 226.09C95.7226 226.858 95.6108 227.624 95.3753 228.354C94.9259 226.879 94.9259 225.301 95.3753 223.826Z" fill="#263238"/>
<path d="M117.291 223.826C117.731 225.303 117.731 226.878 117.291 228.354C116.85 226.878 116.85 225.303 117.291 223.826Z" fill="#263238"/>
<path d="M139.206 223.826C139.655 225.301 139.655 226.879 139.206 228.354C138.97 227.624 138.858 226.858 138.875 226.09C138.861 225.322 138.973 224.557 139.206 223.826Z" fill="#263238"/>
<path d="M161.127 223.826C161.357 224.558 161.468 225.322 161.458 226.09C161.475 226.858 161.363 227.624 161.127 228.354C160.678 226.879 160.678 225.301 161.127 223.826Z" fill="#263238"/>
<path d="M183.042 223.826C183.483 225.303 183.483 226.878 183.042 228.354C182.593 226.879 182.593 225.301 183.042 223.826Z" fill="#263238"/>
<path d="M204.958 223.826C205.407 225.301 205.407 226.879 204.958 228.354C204.517 226.878 204.517 225.303 204.958 223.826Z" fill="#263238"/>
<path d="M226.873 223.826C227.322 225.301 227.322 226.879 226.873 228.354C226.637 227.624 226.525 226.858 226.542 226.09C226.531 225.322 226.643 224.558 226.873 223.826Z" fill="#263238"/>
<path d="M248.794 223.826C249.027 224.557 249.139 225.322 249.125 226.09C249.142 226.858 249.03 227.624 248.794 228.354C248.345 226.879 248.345 225.301 248.794 223.826Z" fill="#263238"/>
<path d="M270.709 223.826C271.15 225.303 271.15 226.878 270.709 228.354C270.269 226.878 270.269 225.303 270.709 223.826Z" fill="#263238"/>
<path d="M292.625 223.826C293.074 225.301 293.074 226.879 292.625 228.354C292.389 227.624 292.277 226.858 292.294 226.09C292.28 225.322 292.392 224.557 292.625 223.826Z" fill="#263238"/>
<path d="M314.546 223.826C314.776 224.558 314.888 225.322 314.877 226.09C314.894 226.858 314.782 227.624 314.546 228.354C314.097 226.879 314.097 225.301 314.546 223.826Z" fill="#263238"/>
<path d="M50.0118 228.354L86.0105 228.195L122.003 228.135L194 228.021L265.997 228.135L301.989 228.195L337.988 228.354L301.989 228.521L265.997 228.574L194 228.687L122.003 228.574L86.0105 228.514L50.0118 228.354Z" fill="#263238"/>
<path d="M70.0171 196.306C70.0171 196.306 77.4389 212.916 65.3248 212.956C53.2107 212.996 61.0422 195.78 61.0422 195.78C61.0422 195.78 58.2335 194.535 61.4784 185.264C64.7234 175.993 66.1774 175.987 67.5256 175.98C69.2373 175.98 70.83 179.976 69.6735 186.156C69.6735 186.143 73.9428 193.815 70.0171 196.306Z" fill="#04BF68"/>
<path d="M64.2606 223.959L65.3974 198.917L66.5936 223.952L64.2606 223.959Z" fill="#A26760"/>
<path d="M64.9348 209.413L69.3363 204.225L65.8865 210.099L64.9348 209.413Z" fill="#A26760"/>
<path d="M161.075 198.131C161.075 198.131 157.618 196.752 154.875 201.561C152.073 206.496 155.602 209.746 158.398 207.808C158.398 207.808 160.592 212.47 165.007 211.338C169.422 210.206 170.102 206.676 170.102 206.676C170.102 206.676 174.002 206.949 174.107 204.012C174.213 201.075 171.358 198.484 171.358 198.484C171.358 198.484 171.186 191.191 166.467 191.251C161.749 191.311 161.075 198.131 161.075 198.131Z" fill="#04BF68"/>
<path d="M164.306 223.959L165.271 202.247L166.282 223.952L164.306 223.959Z" fill="#A26760"/>
<path d="M164.987 210.406L161.954 204.318L165.489 209.453L164.987 210.406Z" fill="#A26760"/>
<path d="M86.2749 198.131C86.2749 198.131 82.8185 196.752 80.0824 201.561C77.2736 206.496 80.8028 209.746 83.5983 207.808C83.5983 207.808 85.7991 212.47 90.2072 211.338C94.6154 210.206 95.3027 206.676 95.3027 206.676C95.3027 206.676 99.1953 206.949 99.268 204.012C99.3407 201.075 96.5187 198.484 96.5187 198.484C96.5187 198.484 96.3469 191.191 91.6282 191.251C86.9094 191.311 86.2749 198.131 86.2749 198.131Z" fill="#04BF68"/>
<path d="M89.52 223.959L90.4849 202.247L91.496 223.952L89.52 223.959Z" fill="#A26760"/>
<path d="M90.2007 210.406L87.1606 204.318L90.6963 209.453L90.2007 210.406Z" fill="#A26760"/>
<path d="M257.241 196.306C257.241 196.306 264.669 212.916 252.548 212.956C240.428 212.996 248.266 195.78 248.266 195.78C248.266 195.78 245.457 194.535 248.702 185.264C251.947 175.993 253.401 175.987 254.749 175.98C256.461 175.98 258.053 179.976 256.897 186.156C256.897 186.143 261.166 193.815 257.241 196.306Z" fill="#04BF68"/>
<path d="M251.484 223.959L252.627 198.917L253.824 223.952L251.484 223.959Z" fill="#A26760"/>
<path d="M252.165 209.413L256.56 204.225L253.11 210.099L252.165 209.413Z" fill="#A26760"/>
<path d="M148.068 199.743C148.068 199.743 141.598 214.315 152.212 214.302C162.826 214.288 155.926 199.243 155.926 199.243C155.926 199.243 158.385 198.151 155.523 190.033C152.661 181.914 151.392 181.914 150.236 181.914C148.742 181.914 147.348 185.437 148.379 190.832C148.352 190.805 144.625 197.572 148.068 199.743Z" fill="#04BF68"/>
<path d="M153.164 223.952L152.113 202.027L151.115 223.959L153.164 223.952Z" fill="#A26760"/>
<path d="M152.542 211.218L148.676 206.683L151.71 211.817L152.542 211.218Z" fill="#A26760"/>
<path d="M316.443 198.131C316.443 198.131 312.986 196.752 310.244 201.561C307.442 206.496 310.971 209.746 313.766 207.808C313.766 207.808 315.96 212.47 320.375 211.338C324.79 210.206 325.471 206.676 325.471 206.676C325.471 206.676 329.37 206.949 329.476 204.012C329.581 201.075 326.726 198.484 326.726 198.484C326.726 198.484 326.555 191.191 321.836 191.251C317.117 191.311 316.443 198.131 316.443 198.131Z" fill="#04BF68"/>
<path d="M319.681 223.959L320.64 202.247L321.651 223.952L319.681 223.959Z" fill="#A26760"/>
<path d="M320.349 210.379L317.322 204.318L320.944 209.447L320.349 210.379Z" fill="#A26760"/>
<path d="M306.799 270.35V270.377C305.317 258.573 296.299 249.187 284.639 247.299L258.301 243.033C255.942 242.68 253.718 241.702 251.871 240.181L233.04 224.736C224.98 218.135 214.91 214.535 204.531 214.562L193.209 214.589C167.355 214.657 152.069 217.551 138.604 225.144L114.745 242.327C114.583 242.381 102.546 247.91 102.438 259.986C102.398 264.754 102.883 269.617 104.366 273.542C105.256 278.134 109.272 281.557 114.085 281.557H297.054C303.025 281.543 307.689 276.327 306.799 270.35Z" fill="#04BF68"/>
<path d="M268.168 294.583C277.161 294.583 284.451 287.237 284.451 278.174C284.451 269.112 277.161 261.765 268.168 261.765C259.175 261.765 251.885 269.112 251.885 278.174C251.885 287.237 259.175 294.583 268.168 294.583Z" fill="#363E44"/>
<path d="M276.299 286.374C280.795 281.844 280.795 274.499 276.299 269.969C271.804 265.439 264.515 265.439 260.02 269.969C255.524 274.499 255.524 281.844 260.02 286.374C264.515 290.904 271.804 290.904 276.299 286.374Z" fill="#E0E0E0"/>
<path d="M145.168 294.583C154.161 294.583 161.451 287.237 161.451 278.174C161.451 269.112 154.161 261.765 145.168 261.765C136.175 261.765 128.885 269.112 128.885 278.174C128.885 287.237 136.175 294.583 145.168 294.583Z" fill="#363E44"/>
<path d="M153.303 286.38C157.799 281.85 157.799 274.505 153.303 269.975C148.808 265.444 141.519 265.444 137.024 269.975C132.529 274.505 132.529 281.85 137.024 286.38C141.519 290.91 148.808 290.91 153.303 286.38Z" fill="#E0E0E0"/>
<path d="M143.267 243.278H247.679L219.79 222.02C217.916 220.593 215.679 219.724 213.333 219.52C187.251 217.306 162.907 213.693 140.962 227.236L143.267 243.278Z" fill="#363E44"/>
<path d="M303.265 261.135C304.002 259.162 299.709 255.707 293.676 253.418C287.643 251.128 282.155 250.871 281.418 252.844C280.681 254.817 284.974 258.272 291.007 260.561C297.04 262.851 302.528 263.108 303.265 261.135Z" fill="white"/>
<path d="M245.792 278.473H170.954C170.86 278.473 170.765 278.432 170.712 278.351L147.837 246.185C147.77 246.09 147.77 245.981 147.81 245.872L152.46 236.5C152.528 236.35 152.717 236.296 152.865 236.364C153.013 236.432 153.067 236.622 153 236.771L148.43 245.995L171.116 277.889H245.603L251.898 261.439C255.416 252.257 251.898 241.892 243.527 236.799L218.968 222.291C218.819 222.21 218.779 222.02 218.86 221.884C218.941 221.748 219.13 221.694 219.264 221.775L243.837 236.282C252.451 241.526 256.077 252.189 252.464 261.643L246.088 278.283C246.021 278.405 245.913 278.473 245.792 278.473Z" fill="#363E44"/>
<path d="M200.811 278.555C200.663 278.555 200.542 278.446 200.515 278.297L195.487 241.961C195.46 241.798 195.581 241.648 195.743 241.621C195.905 241.594 196.053 241.716 196.08 241.879L201.108 278.215C201.135 278.378 201.013 278.528 200.852 278.555C200.838 278.555 200.825 278.555 200.811 278.555Z" fill="#363E44"/>
<path d="M162.3 250.111C166.298 250.111 169.539 249.636 169.539 249.051C169.539 248.466 166.298 247.992 162.3 247.992C158.303 247.992 155.062 248.466 155.062 249.051C155.062 249.636 158.303 250.111 162.3 250.111Z" fill="#48764B"/>
<path d="M209.91 250.111C213.907 250.111 217.148 249.636 217.148 249.051C217.148 248.466 213.907 247.992 209.91 247.992C205.912 247.992 202.671 248.466 202.671 249.051C202.671 249.636 205.912 250.111 209.91 250.111Z" fill="#48764B"/>
<path d="M116.08 271.668H106.253C107.965 267.606 111.726 264.795 116.08 264.292C118.102 264.292 119.733 265.949 119.733 267.973C119.733 270.024 118.102 271.668 116.08 271.668Z" fill="#48764B"/>
<path d="M302.19 275.173H298.456C297.445 275.173 296.663 274.29 296.784 273.284L297.202 269.495C297.296 268.639 298.024 267.987 298.874 267.987H302.607C303.618 267.987 304.4 268.87 304.279 269.875L303.861 273.665C303.78 274.521 303.052 275.173 302.19 275.173Z" fill="#48764B"/>
<path d="M113.815 242.613H125.407L133.077 235.44L135.315 227.467C128.48 232.466 120.865 237.818 113.815 242.613Z" fill="#363E44"/>
<path d="M115.702 278.256C115.702 278.256 115.689 278.256 115.702 278.256C106.954 277.903 97.9229 275.688 90.9136 272.17C82.0846 267.742 76.8546 261.466 75.8166 254.023C74.9405 247.828 79.1056 235.318 85.8588 231.623C89.1612 229.817 92.6659 230.401 95.9818 233.321C99.7291 236.608 105.943 235.63 109.825 231.148L120.959 218.298C121.067 218.175 121.256 218.162 121.377 218.27C121.498 218.379 121.512 218.569 121.404 218.692L110.27 231.542C106.159 236.282 99.5808 237.288 95.5774 233.783C92.4233 231.012 89.2421 230.455 86.1284 232.153C79.5639 235.739 75.5471 247.896 76.3828 253.941C77.6633 263.083 85.1309 268.611 91.1562 271.64C98.0846 275.118 107.035 277.305 115.689 277.658C115.85 277.658 115.985 277.807 115.972 277.97C115.985 278.12 115.864 278.256 115.702 278.256Z" fill="#363E44"/>
<path d="M87.0853 272.673C92.3153 270.554 96.75 272.795 97.3701 275.539C97.9901 278.283 94.9707 282.304 89.3364 282.616C83.7424 282.915 77.4745 280.117 77.4745 280.117C77.4745 280.117 81.4913 274.942 87.0853 272.673Z" fill="#04BF68"/>
<path d="M82.1116 279.397C81.9768 279.397 81.8555 279.302 81.8285 279.166C81.7881 279.003 81.8959 278.84 82.0577 278.813L98.6239 275.01C98.7856 274.969 98.9474 275.077 98.9743 275.24C99.0013 275.403 98.9069 275.566 98.7452 275.594L82.179 279.397C82.1655 279.397 82.1386 279.397 82.1116 279.397Z" fill="#363E44"/>
<path d="M102.897 224.315C101.427 229.789 96.9793 232.004 94.4316 230.849C91.884 229.694 90.5226 224.831 93.6633 220.132C96.7905 215.445 102.789 212.117 102.789 212.117C102.789 212.117 104.474 218.461 102.897 224.315Z" fill="#04BF68"/>
<path d="M93.8385 232.343C93.798 232.343 93.7576 232.33 93.7172 232.316C93.5689 232.248 93.5015 232.071 93.5689 231.922L100.524 216.314C100.592 216.165 100.767 216.097 100.915 216.165C101.063 216.233 101.131 216.41 101.063 216.559L94.1081 232.167C94.0676 232.289 93.9598 232.343 93.8385 232.343Z" fill="#363E44"/>
<path d="M87.7997 251.482C82.4079 253.14 78.1888 250.518 77.7979 247.733C77.407 244.949 80.7634 241.2 86.3978 241.39C92.0052 241.566 98.0036 244.922 98.0036 244.922C98.0036 244.922 93.5554 249.717 87.7997 251.482Z" fill="#04BF68"/>
<path d="M76.4771 248.168C76.3289 248.168 76.2075 248.06 76.1806 247.91C76.1536 247.747 76.2749 247.598 76.4367 247.571L93.259 245.221C93.4207 245.193 93.569 245.316 93.596 245.479C93.6229 245.642 93.5016 245.791 93.3399 245.818L76.5176 248.168C76.5041 248.168 76.4906 248.168 76.4771 248.168Z" fill="#363E44"/>
<path d="M181.262 261.741C182.348 260.683 183.662 260.167 185.266 260.134C185.384 260.136 185.503 260.138 185.562 260.139C185.325 260.135 185.088 260.131 184.85 260.127C183.247 260.16 181.931 260.735 180.846 261.734C179.76 262.792 179.203 264.158 179.114 265.891L179.47 265.897C179.618 264.165 180.175 262.799 181.262 261.741Z" fill="#231F20"/>
<path d="M194.464 267.289C194.461 267.469 194.456 267.768 194.449 268.186L179.069 268.581C179.27 270.738 179.955 272.365 181.124 273.461C182.234 274.497 183.591 274.999 185.193 275.026C183.77 274.942 182.533 274.383 181.539 273.468C180.37 272.372 179.685 270.745 179.484 268.588L194.864 268.193C194.871 267.775 194.875 267.536 194.879 267.296C194.815 264.065 193.847 261.596 192.037 259.831C190.344 258.187 188.22 257.373 185.669 257.329C188.041 257.43 190.046 258.242 191.622 259.824C193.432 261.589 194.34 264.057 194.464 267.289Z" fill="#231F20"/>
<path d="M191.138 270.941L194.397 271.236C193.888 273.261 192.852 274.858 191.35 275.969C189.847 277.08 187.878 277.704 185.502 277.783C185.206 277.778 184.968 277.774 184.672 277.769C185.087 277.776 185.443 277.782 185.858 277.789C188.234 277.71 190.202 277.146 191.706 275.975C193.209 274.805 194.244 273.267 194.753 271.242L191.138 270.941C191.197 270.942 191.197 270.942 191.138 270.941Z" fill="#231F20"/>
<path d="M215.196 263.405L212.16 263.952L212.159 264.011L215.552 263.411C215.111 261.43 214.126 259.978 212.719 258.937C211.429 258.017 209.775 257.511 207.758 257.476C209.537 257.566 211.072 258.071 212.304 258.93C213.83 259.972 214.755 261.424 215.196 263.405Z" fill="#231F20"/>
<path d="M207 260.155C205.219 260.184 203.784 260.818 202.754 262.056C201.665 263.294 201.158 265.199 201.233 267.772C201.308 270.405 201.87 272.269 202.977 273.484C204.027 274.579 205.324 275.14 206.866 275.166C205.443 275.082 204.266 274.523 203.333 273.491C202.225 272.335 201.664 270.411 201.589 267.778C201.514 265.205 202.021 263.3 203.11 262.062C204.199 260.825 205.575 260.19 207.356 260.161C207.416 260.162 207.475 260.163 207.535 260.164C207.356 260.161 207.178 260.158 207 260.155Z" fill="#231F20"/>
<path d="M212.648 270.181L215.73 270.473C215.395 272.74 214.475 274.518 212.969 275.809C211.464 277.099 209.553 277.784 207.296 277.865C207.058 277.861 206.821 277.857 206.524 277.852C206.88 277.858 207.236 277.864 207.652 277.871C209.909 277.79 211.82 277.105 213.325 275.815C214.831 274.525 215.752 272.686 216.086 270.479L212.648 270.181Z" fill="#231F20"/>
<path d="M234.138 260.089C232.444 258.505 230.38 257.692 227.888 257.649C230.2 257.808 232.204 258.62 233.782 260.083C235.653 261.789 236.562 264.198 236.688 267.31C236.764 269.824 236.433 271.852 235.638 273.274C234.9 274.756 233.754 275.873 232.255 276.745C230.758 277.557 229.088 278.007 227.306 278.096C227.069 278.092 226.772 278.087 226.535 278.083C226.891 278.089 227.306 278.096 227.662 278.102C229.443 278.072 231.113 277.623 232.611 276.751C234.11 275.879 235.257 274.762 235.994 273.28C236.731 271.797 237.12 269.83 237.044 267.316C236.978 264.205 236.009 261.796 234.138 260.089Z" fill="#231F20"/>
<path d="M221.303 268.004C221.226 265.49 221.733 263.585 222.882 262.349C224.031 261.112 225.467 260.419 227.189 260.389C227.307 260.391 227.367 260.392 227.485 260.394C227.248 260.39 227.011 260.385 226.773 260.381C225.051 260.412 223.615 261.105 222.467 262.341C221.317 263.638 220.811 265.483 220.887 267.997C220.965 270.451 221.646 272.317 222.812 273.533C223.921 274.688 225.276 275.25 226.879 275.277C225.455 275.193 224.16 274.573 223.168 273.539C222.002 272.323 221.38 270.458 221.303 268.004Z" fill="#231F20"/>
<path d="M225.663 256.482C225.84 256.545 225.959 256.547 226.076 256.609C225.509 255.044 224.014 252.207 219.991 247.892C219.171 247.22 218.585 246.791 218.585 246.791C223.312 251.597 225.04 254.737 225.663 256.482Z" fill="#231F20"/>
<path d="M226.688 255.543C226.803 255.784 226.858 256.024 226.973 256.265C226.974 256.206 226.974 256.206 226.975 256.146C226.975 256.146 226.975 256.146 226.974 256.206C226.984 255.608 227.053 255.011 227.181 254.474C227.245 247.118 217.609 244.8 217.609 244.8C217.608 244.86 217.608 244.86 217.608 244.86C219.439 245.43 227.701 248.263 226.688 255.543Z" fill="#231F20"/>
<path d="M227.341 255.554C227.337 255.793 227.274 255.972 227.27 256.211C229.165 252.953 233.718 250.459 235.932 249.42C236.232 249.246 236.532 249.012 236.832 248.838C236.891 248.839 230.257 251.536 227.341 255.554Z" fill="#231F20"/>
<path d="M228.093 256.703C230.527 256.685 238.137 255.918 239.055 247.26C239.055 247.26 238.936 247.258 238.699 247.254C237.788 255.493 230.885 256.571 228.093 256.703Z" fill="#231F20"/>
<path d="M190.782 270.935C190.283 272.362 189.613 273.367 188.711 274.07C187.81 274.712 186.735 275.113 185.428 275.15C185.309 275.148 185.191 275.146 185.131 275.145C183.529 275.118 182.173 274.616 181.062 273.58C179.894 272.483 179.209 270.857 179.008 268.7L194.387 268.305C194.394 267.886 194.398 267.647 194.403 267.408C194.338 264.177 193.371 261.708 191.56 259.942C189.925 258.359 187.98 257.548 185.608 257.448C185.311 257.443 185.014 257.438 184.717 257.433C181.867 257.504 179.595 258.482 177.842 260.366C176.089 262.25 175.274 264.808 175.338 268.099C175.403 271.27 176.37 273.739 178.182 275.445C179.818 276.968 182.001 277.783 184.61 277.888C184.907 277.893 185.144 277.897 185.441 277.902C187.817 277.823 189.785 277.258 191.289 276.088C192.792 274.917 193.827 273.38 194.336 271.355L191.076 271.06L190.782 270.935ZM185.563 260.079C187.046 260.164 188.282 260.784 189.272 261.877C190.031 262.668 190.484 263.932 190.694 265.55L179.531 265.838L179.175 265.832C179.263 264.099 179.82 262.732 180.907 261.674C181.993 260.616 183.307 260.1 184.91 260.068C185.148 260.072 185.385 260.076 185.563 260.079Z" fill="white"/>
<path d="M212.293 270.175C212.086 271.846 211.531 273.093 210.627 273.914C209.723 274.736 208.588 275.136 207.222 275.232C207.103 275.23 207.044 275.229 206.925 275.227C205.323 275.199 204.026 274.639 203.036 273.545C201.927 272.39 201.366 270.466 201.292 267.833C201.216 265.26 201.723 263.354 202.813 262.117C203.902 260.879 205.278 260.245 207.059 260.216C207.237 260.219 207.415 260.222 207.593 260.225C208.541 260.301 209.368 260.554 210.071 261.105C210.891 261.777 211.527 262.745 211.862 264.006L212.219 263.953L215.256 263.406C214.814 261.425 213.83 259.973 212.423 258.932C211.191 258.073 209.656 257.568 207.877 257.478C207.58 257.473 207.224 257.467 206.868 257.461C205.087 257.49 203.477 257.941 201.978 258.813C200.48 259.625 199.391 260.862 198.711 262.466C198.031 264.069 197.703 265.918 197.728 268.011C197.791 271.302 198.758 273.771 200.51 275.476C202.087 276.998 204.151 277.811 206.642 277.914C206.88 277.918 207.117 277.922 207.414 277.927C209.671 277.846 211.581 277.161 213.087 275.871C214.593 274.58 215.514 272.742 215.848 270.534L212.766 270.243L212.293 270.175Z" fill="white"/>
<path d="M233.783 260.023C232.205 258.56 230.201 257.748 227.889 257.589C227.533 257.583 227.177 257.577 226.761 257.57C224.208 257.646 222.057 258.446 220.311 259.912C218.203 261.73 217.209 264.405 217.325 268.055C217.389 271.346 218.355 273.875 220.226 275.582C221.862 277.105 223.985 277.919 226.536 278.023C226.773 278.027 227.07 278.032 227.307 278.036C229.088 278.006 230.758 277.556 232.256 276.685C233.755 275.813 234.901 274.696 235.639 273.214C236.376 271.731 236.765 269.764 236.689 267.25C236.562 264.197 235.595 261.728 233.783 260.023ZM222.812 273.533C221.646 272.316 221.024 270.451 220.948 267.938C220.872 265.424 221.378 263.519 222.527 262.283C223.676 261.046 225.112 260.353 226.834 260.322C227.071 260.327 227.308 260.331 227.546 260.335C228.969 260.419 230.205 261.038 231.256 262.073C232.482 263.29 233.104 265.095 233.122 267.548C233.198 270.121 232.632 272.026 231.541 273.323C230.392 274.619 229.016 275.254 227.234 275.343C227.115 275.341 227.056 275.34 226.937 275.338C225.277 275.25 223.921 274.688 222.812 273.533Z" fill="white"/>
<path d="M225.721 256.543C225.722 256.484 225.722 256.484 225.664 256.423C225.04 254.737 223.312 251.597 218.586 246.731C218.586 246.731 219.172 247.16 219.992 247.832C221.982 249.481 225.487 252.831 226.557 256.259C226.621 256.02 226.625 255.781 226.688 255.543C227.701 248.263 219.439 245.43 217.607 244.92C217.371 244.856 217.194 244.793 217.194 244.793C216.1 253.388 223.298 255.964 225.721 256.543Z" fill="white"/>
<path d="M227.12 254.534C226.993 255.07 226.924 255.607 226.913 256.265C226.913 256.265 226.913 256.265 226.914 256.205C227.036 256.027 227.159 255.79 227.34 255.614C230.257 251.537 236.891 248.839 236.891 248.839C236.592 249.013 236.291 249.247 235.991 249.422C230.83 252.803 228.651 255.278 227.737 256.697C227.856 256.699 227.974 256.701 228.152 256.705C230.944 256.573 237.848 255.495 238.757 247.316C238.699 247.255 228.727 247.264 227.12 254.534Z" fill="white"/>
</svg>
