<svg width="390" height="322" viewBox="0 0 390 322" fill="none" xmlns="http://www.w3.org/2000/svg">
<path d="M130.09 59.3296H59.0457V176.779H130.09V59.3296Z" fill="#E0E0E0"/>
<path d="M127.728 59.3296H56.6833V176.779H127.728V59.3296Z" fill="#EBEBEB"/>
<path d="M124.702 61.7144H59.7096V174.399H124.702V61.7144Z" fill="white"/>
<path d="M112.046 76.353H72.0822V159.75H112.046V76.353Z" fill="#EBEBEB"/>
<path d="M72.0822 130.241C71.9895 122.449 79.0044 114.847 86.7296 113.757C90.4146 113.243 94.3261 113.968 97.7692 112.56C103.914 110.046 105.865 101.894 112.051 99.4731L112.334 159.755H72.0822V130.241Z" fill="#E0E0E0"/>
<path d="M349.966 63.4932V129.244H255.406L251.999 63.9506L349.966 63.4932Z" fill="#E0E0E0"/>
<path d="M251.999 63.9557V129.11H346.559V63.9557H251.999Z" fill="#F5F5F5"/>
<path d="M336.322 72.0459H262.241V121.01H336.322V72.0459Z" fill="white"/>
<path d="M336.317 72.0462H335.952H334.922L330.851 72.0719L315.586 72.1284L262.262 72.2364L262.473 72.0205C262.473 86.983 262.473 103.56 262.473 120.979L262.241 120.743L336.317 120.789L336.132 120.979C336.173 106.073 336.204 93.8603 336.23 85.3485C336.23 81.0977 336.266 77.7773 336.276 75.5003C336.276 74.3746 336.276 73.5111 336.276 72.9303C336.276 72.3494 336.276 72.0308 336.276 72.0308C336.276 72.0308 336.276 72.3186 336.276 72.8892C336.276 73.4597 336.276 74.3335 336.276 75.4592C336.276 77.731 336.302 81.036 336.322 85.2714C336.322 93.8089 336.379 106.063 336.42 121.015V121.2H336.235L262.159 121.246H261.922V121.005C261.922 103.585 261.922 87.0087 261.922 72.0462V71.8354H262.138L315.602 71.9382L330.821 71.9948H334.845H335.875L336.317 72.0462Z" fill="#E0E0E0"/>
<path d="M251.999 63.7705C252.58 64.0476 253.126 64.3927 253.626 64.7985C254.588 65.4975 255.911 66.4896 257.331 67.6255C258.752 68.7614 260.002 69.8357 260.888 70.6427C261.394 71.0459 261.849 71.5104 262.241 72.0253C262.154 72.1281 259.879 70.252 257.038 67.9904C254.197 65.7288 251.917 63.8682 251.999 63.7705Z" fill="#E0E0E0"/>
<path d="M346.559 63.9506C346.641 64.0534 344.413 65.9501 341.582 68.1808C338.752 70.4116 336.4 72.1489 336.317 72.0461C336.235 71.9433 338.463 70.0518 341.294 67.8159C344.125 65.58 346.482 63.8684 346.559 63.9506Z" fill="#E0E0E0"/>
<path d="M346.487 129.115L335.941 120.583L346.487 129.115Z" fill="white"/>
<path d="M335.941 120.583C336.024 120.48 338.448 122.31 341.361 124.669C344.274 127.028 346.564 129.017 346.508 129.115C346.451 129.213 343.996 127.388 341.088 125.029C338.18 122.67 335.859 120.68 335.941 120.583Z" fill="#E0E0E0"/>
<path d="M251.999 129.105C251.917 129.007 254.12 127.131 256.92 124.921C259.719 122.711 262.066 120.999 262.133 121.102C262.2 121.205 260.013 123.076 257.213 125.286C254.413 127.496 252.077 129.208 251.999 129.105Z" fill="#E0E0E0"/>
<path d="M277.28 87.3017V103.698H323.893V87.3017H277.28Z" fill="#E0E0E0"/>
<path d="M221.14 64.1304H168.675V118.748H221.14V64.1304Z" fill="#E0E0E0"/>
<path d="M217.589 64.1304H165.124V118.748H217.589V64.1304Z" fill="#FAFAFA"/>
<path d="M217.604 118.768H165.108V64.1147H217.604V118.768ZM165.149 118.732H217.568V64.1507H165.149V118.732Z" fill="#E0E0E0"/>
<path d="M210.533 71.4756H172.175V111.408H210.533V71.4756Z" fill="white"/>
<path d="M172.175 111.67C171.902 112.072 171.585 112.441 171.228 112.77C170.615 113.413 169.756 114.287 168.788 115.238C167.82 116.188 166.935 117.031 166.282 117.633C165.952 117.983 165.58 118.292 165.175 118.553C165.445 118.152 165.761 117.785 166.117 117.458C166.729 116.816 167.594 115.916 168.562 114.986C169.529 114.055 170.414 113.187 171.068 112.585C171.4 112.239 171.772 111.932 172.175 111.67Z" fill="#E0E0E0"/>
<path d="M210.533 111.578C210.935 111.85 211.305 112.167 211.634 112.523C212.283 113.135 213.178 113.993 214.104 114.955C215.031 115.916 215.901 116.805 216.503 117.458C216.855 117.79 217.166 118.163 217.429 118.568C217.027 118.3 216.659 117.984 216.333 117.627C215.684 117.016 214.789 116.152 213.852 115.186C212.916 114.22 212.051 113.33 211.454 112.678C211.104 112.349 210.795 111.98 210.533 111.578Z" fill="#E0E0E0"/>
<path d="M210.44 71.578C210.711 71.175 211.029 70.8057 211.387 70.4781C211.999 69.8304 212.859 68.9361 213.821 68.0057C214.784 67.0754 215.674 66.2119 216.328 65.6105C216.659 65.2596 217.033 64.9507 217.439 64.6904C217.168 65.0895 216.852 65.4568 216.498 65.7853C215.885 66.4278 215.021 67.3273 214.053 68.2576C213.085 69.1879 212.195 70.0566 211.541 70.658C211.212 71.0074 210.843 71.3163 210.44 71.578Z" fill="#E0E0E0"/>
<path d="M172.066 71.6808C171.666 71.4079 171.299 71.0906 170.97 70.7351C170.322 70.1234 169.426 69.2599 168.495 68.2987C167.563 67.3375 166.693 66.438 166.096 65.7955C165.745 65.4659 165.436 65.0948 165.175 64.6904C165.576 64.96 165.944 65.2757 166.271 65.6311C166.915 66.2427 167.815 67.1011 168.747 68.0674C169.678 69.0337 170.548 69.923 171.15 70.5757C171.501 70.9044 171.809 71.2757 172.066 71.6808Z" fill="#E0E0E0"/>
<path d="M210.44 111.408C210.436 111.343 210.436 111.278 210.44 111.213C210.44 111.079 210.44 110.894 210.44 110.657C210.44 110.143 210.44 109.434 210.44 108.504C210.44 106.612 210.44 103.878 210.404 100.362C210.404 93.3665 210.358 83.4001 210.327 71.4753L210.476 71.6243H172.226L172.396 71.4547C172.396 86.114 172.396 99.8224 172.37 111.387L172.226 111.243L199.925 111.315L207.702 111.357H209.761H210.275H210.44H210.27H209.756H207.723L199.977 111.393L172.185 111.47H172.041V111.321C172.041 99.7555 172.041 86.0472 172.015 71.3879V71.2183H172.19H210.44H210.589V71.3673C210.558 83.3384 210.533 93.3305 210.517 100.352C210.517 103.832 210.486 106.571 210.476 108.452C210.476 109.378 210.476 110.087 210.476 110.58C210.476 110.812 210.476 110.992 210.476 111.125C210.476 111.259 210.44 111.413 210.44 111.408Z" fill="#E0E0E0"/>
<path d="M197.753 85.0503H184.954V97.8335H197.753V85.0503Z" fill="#EBEBEB"/>
<path d="M372.56 261.969C372.56 262.041 293.054 262.102 195 262.102C96.9457 262.102 17.44 262.041 17.44 261.969C17.44 261.897 96.9251 261.835 195 261.835C293.075 261.835 372.56 261.897 372.56 261.969Z" fill="#263238"/>
<path d="M334.222 148.966C334.897 145.209 336.716 141.752 339.431 139.066C342.986 135.541 347.788 133.557 352.797 133.543C357.807 133.53 362.62 135.488 366.194 138.994C367.953 140.715 369.351 142.769 370.309 145.035C371.266 147.301 371.762 149.735 371.769 152.194C371.775 154.653 371.292 157.09 370.348 159.361C369.403 161.632 368.015 163.693 366.266 165.424C362.711 168.949 357.909 170.934 352.899 170.947C347.89 170.96 343.077 169.002 339.503 165.496C336.511 162.565 334.599 158.711 334.078 154.558L329.117 151.371L334.222 148.966Z" fill="white"/>
<path d="M334.222 148.966L333.873 149.11L332.879 149.557L329.081 151.299L328.947 151.361L329.071 151.443L334.017 154.656L333.96 154.568C334.351 157.79 335.578 160.854 337.521 163.456C338.081 164.206 338.695 164.914 339.359 165.573C340.067 166.256 340.822 166.888 341.618 167.465C343.313 168.715 345.211 169.665 347.228 170.271C351.731 171.63 356.575 171.306 360.856 169.361C363.179 168.3 365.264 166.783 366.987 164.9C368.71 163.018 370.037 160.808 370.887 158.403C372.305 154.422 372.305 150.074 370.887 146.093C370.246 144.199 369.287 142.428 368.052 140.855C366.894 139.329 365.505 137.994 363.934 136.897L363.363 136.486C363.167 136.363 362.961 136.25 362.761 136.131C362.359 135.905 361.968 135.658 361.562 135.453C360.752 135.054 359.916 134.711 359.06 134.425C358.228 134.142 357.379 133.912 356.518 133.736C356.091 133.664 355.669 133.618 355.247 133.556L354.619 133.469H353.986C350.877 133.266 347.767 133.847 344.943 135.16C342.627 136.231 340.542 137.741 338.803 139.606C337.511 141.018 336.443 142.62 335.638 144.355C335.136 145.448 334.745 146.588 334.47 147.758C334.377 148.164 334.32 148.467 334.289 148.673C334.267 148.778 334.251 148.884 334.243 148.992C334.284 148.895 334.311 148.793 334.325 148.688C334.372 148.483 334.444 148.174 334.552 147.779C335.334 144.778 336.854 142.021 338.973 139.755C340.704 137.933 342.772 136.462 345.061 135.422C346.397 134.824 347.795 134.376 349.23 134.086C350.791 133.801 352.381 133.706 353.965 133.803L354.583 133.829L355.205 133.916C355.617 133.978 356.034 134.029 356.451 134.101C357.295 134.275 358.127 134.503 358.942 134.785C359.782 135.067 360.601 135.411 361.392 135.813C361.793 136.013 362.174 136.255 362.57 136.481C362.766 136.594 362.967 136.707 363.157 136.83L363.718 137.231C365.259 138.311 366.622 139.623 367.758 141.122C368.966 142.666 369.903 144.405 370.527 146.262C372.03 150.6 371.856 155.342 370.041 159.559C368.225 163.776 364.899 167.163 360.712 169.058C356.51 170.97 351.756 171.297 347.331 169.978C345.345 169.368 343.479 168.423 341.814 167.182C341.029 166.62 340.284 166.003 339.585 165.337C338.929 164.696 338.32 164.009 337.763 163.281C335.834 160.727 334.605 157.715 334.197 154.543V154.486L334.15 154.461L329.174 151.305V151.448L332.962 149.619L333.929 149.141C334.032 149.091 334.13 149.032 334.222 148.966Z" fill="#263238"/>
<path d="M344.624 151.089C344.728 150.058 345.146 149.083 345.823 148.298C346.459 147.499 347.33 146.92 348.314 146.643C348.839 146.511 349.384 146.485 349.918 146.567C350.453 146.648 350.966 146.834 351.428 147.116C351.972 147.457 352.426 147.924 352.75 148.478C353.024 147.966 353.407 147.52 353.872 147.172C354.312 146.85 354.812 146.619 355.342 146.495C355.873 146.37 356.423 146.354 356.96 146.447C357.963 146.648 358.878 147.155 359.58 147.897C360.319 148.626 360.815 149.564 361.001 150.585C361.215 151.886 360.998 153.222 360.383 154.389C359.66 155.579 358.663 156.58 357.475 157.308C355.55 158.567 353.008 160.145 353.008 160.145C353.008 160.145 350.738 158.603 348.715 157.509C347.468 156.882 346.391 155.963 345.576 154.831C344.861 153.719 344.527 152.406 344.624 151.089Z" fill="#04BF68"/>
<path d="M225.829 118.414L232.767 116.872C235.36 118.965 238.461 120.335 241.756 120.844C245.051 121.353 248.422 120.982 251.527 119.769C254.632 118.555 257.36 116.543 259.434 113.936C261.509 111.33 262.855 108.221 263.338 104.926C263.994 99.9826 262.658 94.9809 259.622 91.0215C256.586 87.0621 252.099 84.4694 247.149 83.8137C242.199 83.158 237.191 84.493 233.226 87.5251C229.262 90.5572 226.665 95.0379 226.009 99.9816C225.445 104.077 226.283 108.243 228.387 111.804L225.829 118.414Z" fill="white"/>
<path d="M225.829 118.414L226.009 117.977C226.127 117.674 226.297 117.252 226.523 116.708C226.966 115.587 227.614 113.953 228.458 111.835L228.325 111.861C228.34 111.875 228.36 111.883 228.381 111.883C228.402 111.883 228.423 111.875 228.438 111.861C228.448 111.846 228.453 111.829 228.453 111.812C228.453 111.794 228.448 111.777 228.438 111.763C226.563 108.547 225.713 104.838 226 101.128C226.287 97.4176 227.697 93.8825 230.044 90.9921C231.674 88.9891 233.699 87.3415 235.993 86.1515C238.286 84.9615 240.8 84.2543 243.379 84.0737C246.216 83.9013 249.057 84.3595 251.696 85.4152C253.058 85.9582 254.352 86.6586 255.551 87.5021C255.854 87.7077 256.132 87.9544 256.425 88.1805C256.722 88.4036 257.006 88.6439 257.275 88.9001C257.824 89.4022 258.34 89.9397 258.819 90.509C259.061 90.7968 259.333 91.0744 259.539 91.3673L260.183 92.2874L260.502 92.7449L260.774 93.228L261.32 94.1892C261.49 94.5182 261.624 94.8574 261.773 95.2172C261.933 95.5511 262.072 95.8944 262.19 96.2452C262.442 96.9159 262.648 97.6028 262.807 98.3012C263.453 101.045 263.464 103.9 262.838 106.649C262.24 109.246 261.073 111.679 259.421 113.773C256.46 117.548 252.166 120.05 247.419 120.768C245.414 121.063 243.375 121.042 241.377 120.706C238.24 120.168 235.29 118.845 232.802 116.862C232.792 116.857 232.78 116.855 232.769 116.855C232.757 116.855 232.746 116.857 232.735 116.862L227.589 118.029L226.256 118.337L225.792 118.45L226.225 118.368L227.542 118.095L232.746 117.011H232.679C235.173 119.043 238.146 120.405 241.315 120.969C243.337 121.318 245.402 121.348 247.434 121.056C252.263 120.352 256.636 117.824 259.652 113.994C261.338 111.868 262.528 109.394 263.137 106.751C263.788 103.957 263.788 101.05 263.137 98.2549C262.972 97.5367 262.762 96.8295 262.509 96.1373C262.388 95.7869 262.247 95.4437 262.087 95.1093C261.932 94.77 261.793 94.4205 261.618 94.0813L261.068 93.0995L260.79 92.5855L260.466 92.1178L259.848 91.1617C259.616 90.8636 259.333 90.5809 259.112 90.2879C258.618 89.7092 258.089 89.1615 257.527 88.6483C257.251 88.3884 256.961 88.1447 256.657 87.9184C256.359 87.6871 256.075 87.4352 255.767 87.2245C254.545 86.367 253.227 85.6546 251.84 85.1017C249.155 84.029 246.265 83.5672 243.379 83.7499C240.657 83.947 238.009 84.7234 235.612 86.0269C233.393 87.2259 231.437 88.8565 229.858 90.8225C227.13 94.2114 225.674 98.4458 225.741 102.794C225.796 105.986 226.683 109.109 228.314 111.855L228.438 111.758C228.431 111.75 228.423 111.744 228.414 111.74C228.404 111.736 228.394 111.733 228.384 111.733C228.374 111.733 228.364 111.736 228.354 111.74C228.345 111.744 228.337 111.75 228.33 111.758C228.328 111.766 228.328 111.775 228.33 111.783C227.517 113.942 226.894 115.608 226.467 116.749C226.266 117.294 226.112 117.71 225.998 118.003C225.885 118.296 225.829 118.414 225.829 118.414Z" fill="#263238"/>
<path d="M239.2 102.418C239.202 102.883 239.065 103.339 238.807 103.727C238.55 104.115 238.183 104.417 237.752 104.596C237.322 104.775 236.848 104.823 236.391 104.732C235.934 104.642 235.514 104.418 235.184 104.089C234.855 103.76 234.631 103.34 234.54 102.884C234.45 102.427 234.497 101.954 234.677 101.524C234.856 101.095 235.159 100.728 235.547 100.471C235.936 100.213 236.392 100.077 236.858 100.079C237.479 100.079 238.075 100.326 238.514 100.764C238.953 101.203 239.2 101.798 239.2 102.418Z" fill="#263238"/>
<path d="M247.043 102.469C247.047 102.936 246.912 103.394 246.655 103.784C246.398 104.175 246.03 104.479 245.599 104.66C245.168 104.841 244.692 104.89 244.233 104.8C243.774 104.71 243.352 104.486 243.021 104.156C242.69 103.826 242.465 103.406 242.374 102.947C242.283 102.489 242.331 102.014 242.511 101.583C242.691 101.152 242.995 100.784 243.386 100.526C243.776 100.269 244.234 100.133 244.701 100.136C245.322 100.136 245.916 100.381 246.355 100.819C246.794 101.256 247.042 101.85 247.043 102.469Z" fill="#263238"/>
<path d="M254.881 102.516C254.883 102.981 254.747 103.437 254.489 103.825C254.231 104.213 253.864 104.516 253.433 104.694C253.003 104.873 252.529 104.92 252.071 104.83C251.614 104.739 251.194 104.515 250.864 104.185C250.535 103.855 250.311 103.435 250.222 102.978C250.132 102.521 250.18 102.048 250.36 101.619C250.54 101.189 250.844 100.823 251.233 100.566C251.622 100.309 252.079 100.174 252.545 100.177C253.165 100.178 253.759 100.425 254.197 100.864C254.635 101.302 254.881 101.896 254.881 102.516Z" fill="#263238"/>
<path d="M103.904 123.579L111.181 121.991C114.542 124.704 118.708 126.227 123.028 126.322C127.348 126.418 131.577 125.08 135.054 122.518C138.531 119.956 141.06 116.315 142.244 112.165C143.428 108.015 143.2 103.59 141.597 99.5827C139.993 95.5755 137.105 92.2123 133.383 90.0198C129.661 87.8273 125.317 86.9292 121.03 87.466C116.742 88.0029 112.754 89.9444 109.69 92.9866C106.625 96.0289 104.658 100 104.094 104.279C103.508 108.568 104.386 112.93 106.585 116.661L103.904 123.579Z" fill="white"/>
<path d="M103.904 123.579L104.094 123.122C104.218 122.808 104.393 122.366 104.609 121.791L106.668 116.682L106.529 116.707C106.545 116.722 106.566 116.73 106.588 116.73C106.61 116.73 106.631 116.722 106.647 116.707C106.658 116.694 106.665 116.676 106.665 116.658C106.665 116.641 106.658 116.623 106.647 116.61C104.683 113.235 103.792 109.344 104.094 105.453C104.395 101.561 105.875 97.8535 108.335 94.8212C110.041 92.7197 112.16 90.9903 114.562 89.7402C116.963 88.49 119.597 87.7456 122.298 87.5532C125.283 87.3694 128.272 87.8505 131.048 88.9616C132.476 89.5308 133.832 90.2657 135.088 91.1512C135.407 91.3671 135.695 91.6241 136.004 91.8657C136.318 92.1077 136.615 92.3704 136.894 92.6521C137.475 93.1769 138.02 93.7401 138.526 94.338C138.778 94.6413 139.04 94.9291 139.287 95.2427L139.956 96.2039L140.291 96.6819L140.579 97.1959L141.15 98.2239C141.325 98.5683 141.47 98.9281 141.629 99.2519C141.795 99.5962 141.941 99.9497 142.067 100.311C142.327 101.023 142.544 101.751 142.715 102.49C143.379 105.365 143.379 108.353 142.715 111.228C142.09 113.952 140.868 116.505 139.138 118.702C136.031 122.658 131.528 125.278 126.549 126.026C124.447 126.339 122.309 126.318 120.214 125.964C116.931 125.403 113.843 124.022 111.238 121.95C111.227 121.945 111.214 121.942 111.202 121.942C111.19 121.942 111.177 121.945 111.166 121.95L105.793 123.179L104.419 123.492L103.935 123.605C103.935 123.605 104.079 123.605 104.388 123.518L105.772 123.235L111.228 122.099H111.161C113.778 124.229 116.896 125.656 120.219 126.247C122.34 126.614 124.506 126.646 126.637 126.34C131.693 125.58 136.266 122.915 139.416 118.892C141.184 116.661 142.434 114.067 143.075 111.295C143.757 108.365 143.757 105.317 143.075 102.387C142.905 101.634 142.687 100.892 142.422 100.167C142.293 99.7972 142.143 99.4351 141.974 99.0823C141.809 98.7276 141.67 98.3627 141.49 98.0131L140.909 96.9851L140.615 96.4711L140.276 95.9571L139.591 94.9805C139.344 94.6619 139.076 94.3689 138.819 94.0605C138.301 93.453 137.746 92.878 137.157 92.3386C136.867 92.0683 136.563 91.8143 136.246 91.5779C135.932 91.3363 135.633 91.0639 135.309 90.848C134.028 89.9482 132.646 89.2013 131.192 88.6224C128.373 87.4959 125.338 87.0113 122.308 87.2037C119.561 87.4019 116.884 88.1626 114.444 89.4386C112.004 90.7146 109.852 92.4786 108.124 94.6207C105.27 98.1785 103.748 102.619 103.822 107.178C103.887 110.527 104.822 113.801 106.534 116.682L106.668 116.579C106.652 116.564 106.631 116.556 106.609 116.556C106.587 116.556 106.566 116.564 106.549 116.579C105.7 118.846 105.041 120.593 104.594 121.786C104.383 122.356 104.218 122.814 104.105 123.107C103.992 123.4 103.904 123.579 103.904 123.579Z" fill="#263238"/>
<path d="M131.382 104.027C131.405 102.641 131.054 101.275 130.365 100.071C129.676 98.868 128.675 97.8725 127.467 97.1895C126.259 96.5065 124.89 96.1612 123.502 96.1902C122.115 96.2191 120.76 96.621 119.582 97.3537C118.404 98.0864 117.446 99.1228 116.807 100.354C116.169 101.585 115.875 102.965 115.956 104.348C116.037 105.732 116.49 107.068 117.268 108.217C118.045 109.365 119.118 110.283 120.373 110.873C120.373 111.778 120.373 112.796 120.373 112.796L127.136 112.827C127.136 112.827 127.182 111.747 127.198 110.771C128.448 110.139 129.5 109.175 130.238 107.986C130.976 106.796 131.372 105.426 131.382 104.027Z" fill="#04BF68"/>
<path d="M124.655 112.786C124.655 112.786 124.655 112.755 124.655 112.688C124.655 112.621 124.655 112.534 124.691 112.416C124.722 112.174 124.763 111.819 124.835 111.388C124.908 110.956 125 110.36 125.149 109.732C125.315 109.005 125.553 108.295 125.86 107.615C126.037 107.215 126.253 106.833 126.503 106.474C126.634 106.28 126.811 106.121 127.018 106.011C127.134 105.957 127.261 105.931 127.389 105.935C127.517 105.94 127.642 105.975 127.754 106.037C127.869 106.105 127.955 106.213 127.996 106.34C128.036 106.47 128.023 106.61 127.96 106.731C127.832 106.97 127.619 107.154 127.363 107.245C127.095 107.331 126.812 107.364 126.531 107.341C126.251 107.318 125.977 107.239 125.727 107.109C125.478 106.98 125.256 106.802 125.075 106.586C124.895 106.37 124.759 106.121 124.676 105.852C124.58 105.567 124.566 105.26 124.635 104.968C124.676 104.814 124.768 104.68 124.896 104.586C125.025 104.493 125.181 104.446 125.34 104.454C125.422 104.464 125.501 104.495 125.569 104.542C125.637 104.589 125.693 104.653 125.731 104.726C125.806 104.87 125.826 105.036 125.788 105.194C125.693 105.498 125.501 105.764 125.242 105.949C124.995 106.155 124.708 106.307 124.398 106.396C124.089 106.484 123.765 106.507 123.446 106.463C123.127 106.413 122.825 106.286 122.566 106.093C122.307 105.901 122.099 105.649 121.959 105.358C121.886 105.216 121.845 105.06 121.837 104.901C121.829 104.741 121.855 104.582 121.912 104.433C121.941 104.356 121.987 104.287 122.045 104.229C122.104 104.171 122.174 104.127 122.252 104.099C122.329 104.073 122.411 104.063 122.493 104.07C122.575 104.077 122.654 104.101 122.725 104.14C122.864 104.219 122.977 104.337 123.05 104.479C123.115 104.617 123.153 104.765 123.163 104.916C123.19 105.353 123.09 105.788 122.874 106.168C122.659 106.549 122.337 106.858 121.948 107.06C121.458 107.316 120.893 107.391 120.353 107.27C120.088 107.227 119.844 107.099 119.658 106.905C119.568 106.806 119.515 106.678 119.509 106.544C119.502 106.41 119.542 106.278 119.622 106.17C119.665 106.121 119.718 106.081 119.777 106.052C119.837 106.024 119.901 106.008 119.967 106.006C120.095 105.996 120.223 106.021 120.337 106.078C120.544 106.196 120.708 106.376 120.806 106.592C120.996 107.003 121.15 107.409 121.32 107.795C121.933 109.337 122.35 110.601 122.653 111.48C122.797 111.917 122.9 112.261 122.972 112.508L123.055 112.775C123.055 112.832 123.055 112.863 123.055 112.863L123.024 112.775L122.936 112.513C122.854 112.282 122.741 111.938 122.597 111.485C122.298 110.611 121.856 109.347 121.238 107.81C121.084 107.43 120.924 107.024 120.723 106.618C120.635 106.412 120.481 106.24 120.286 106.129C120.188 106.072 120.074 106.048 119.961 106.062C119.849 106.076 119.744 106.127 119.663 106.206C119.598 106.301 119.567 106.415 119.575 106.53C119.582 106.644 119.628 106.753 119.704 106.839C119.879 107.017 120.106 107.136 120.353 107.178C120.876 107.291 121.422 107.218 121.897 106.972C122.381 106.705 122.748 106.267 122.926 105.744C123.021 105.477 123.059 105.194 123.039 104.911C123.04 104.77 123.004 104.631 122.936 104.508C122.867 104.385 122.768 104.281 122.648 104.207C122.589 104.172 122.523 104.151 122.454 104.145C122.386 104.139 122.317 104.148 122.252 104.171C122.187 104.196 122.128 104.234 122.079 104.283C122.029 104.332 121.99 104.39 121.964 104.454C121.913 104.591 121.89 104.737 121.898 104.883C121.906 105.028 121.944 105.171 122.01 105.302C122.145 105.578 122.345 105.818 122.592 106.001C122.839 106.184 123.127 106.306 123.43 106.356C123.738 106.394 124.05 106.369 124.347 106.28C124.644 106.192 124.919 106.042 125.155 105.842C125.396 105.667 125.576 105.42 125.669 105.137C125.699 105 125.681 104.857 125.618 104.731C125.587 104.671 125.542 104.619 125.486 104.58C125.431 104.542 125.366 104.518 125.299 104.51C125.16 104.5 125.022 104.542 124.913 104.628C124.807 104.718 124.731 104.836 124.691 104.968C124.628 105.244 124.643 105.532 124.733 105.8C124.897 106.318 125.26 106.75 125.742 107.001C126.224 107.253 126.787 107.303 127.306 107.142C127.543 107.063 127.741 106.898 127.862 106.679C127.914 106.577 127.925 106.459 127.893 106.349C127.86 106.239 127.786 106.146 127.687 106.088C127.587 106.032 127.475 106.001 127.36 105.996C127.246 105.992 127.132 106.015 127.028 106.063C126.822 106.164 126.644 106.316 126.513 106.505C126.269 106.859 126.055 107.234 125.875 107.625C125.568 108.301 125.327 109.005 125.155 109.727C125 110.365 124.902 110.92 124.825 111.377C124.748 111.835 124.702 112.184 124.661 112.405C124.661 112.524 124.63 112.616 124.619 112.683L124.655 112.786Z" fill="#263238"/>
<path d="M126.549 114.06L120.749 114.034C120.634 114.034 120.523 113.989 120.442 113.908C120.36 113.827 120.313 113.718 120.312 113.603C120.314 113.488 120.361 113.379 120.443 113.298C120.525 113.218 120.634 113.172 120.749 113.171L126.554 113.202C126.611 113.201 126.668 113.212 126.721 113.233C126.774 113.255 126.821 113.286 126.862 113.327C126.902 113.367 126.934 113.415 126.955 113.467C126.977 113.52 126.988 113.577 126.987 113.634C126.987 113.69 126.975 113.747 126.953 113.799C126.931 113.852 126.899 113.899 126.858 113.939C126.817 113.979 126.769 114.01 126.716 114.031C126.663 114.051 126.606 114.061 126.549 114.06Z" fill="#263238"/>
<path d="M126.549 114.436H120.744C120.629 114.436 120.519 114.481 120.438 114.562C120.357 114.643 120.312 114.753 120.312 114.867C120.312 114.982 120.357 115.092 120.438 115.173C120.519 115.254 120.629 115.299 120.744 115.299H121.403L122.242 116.892C122.29 116.986 122.364 117.063 122.456 117.116C122.547 117.169 122.651 117.195 122.756 117.191H124.815C124.92 117.194 125.024 117.168 125.115 117.115C125.206 117.063 125.28 116.985 125.33 116.892L126.158 115.314H126.549C126.664 115.314 126.774 115.269 126.855 115.188C126.936 115.107 126.982 114.997 126.982 114.883C126.982 114.768 126.936 114.658 126.855 114.577C126.774 114.496 126.664 114.451 126.549 114.451V114.436Z" fill="#263238"/>
<g opacity="0.2">
<path d="M117.373 100.932C117.048 101.625 116.861 102.374 116.822 103.138C116.787 103.751 116.857 104.367 117.028 104.957C117.141 105.355 117.315 105.733 117.543 106.078C117.707 106.319 117.836 106.427 117.893 106.396C117.949 106.365 117.805 105.759 117.702 104.829C117.545 103.632 117.737 102.416 118.256 101.326C118.775 100.237 119.597 99.3199 120.626 98.6863C121.413 98.1723 122 97.9667 121.969 97.8279C121.969 97.7662 121.789 97.7405 121.495 97.7662C121.084 97.8194 120.684 97.9338 120.306 98.1055C119.031 98.6744 117.999 99.676 117.393 100.932H117.373Z" fill="white"/>
</g>
<g opacity="0.2">
<path d="M124.779 97.7923C124.779 97.669 124.712 97.5302 124.537 97.4222C124.312 97.3055 124.062 97.2446 123.809 97.2446C123.555 97.2446 123.305 97.3055 123.08 97.4222C122.9 97.5302 122.813 97.6638 122.833 97.7923C122.88 98.0493 123.312 98.183 123.801 98.1881C123.801 98.1675 124.563 98.0853 124.779 97.7923Z" fill="white"/>
</g>
<path d="M125.196 117.011C125.061 116.977 124.929 116.936 124.799 116.887C124.478 116.799 124.145 116.758 123.811 116.764C123.48 116.771 123.152 116.83 122.839 116.939C122.71 116.994 122.577 117.041 122.442 117.077C122.554 116.991 122.679 116.923 122.813 116.877C123.13 116.748 123.469 116.679 123.811 116.671C124.161 116.66 124.51 116.712 124.841 116.826C124.967 116.871 125.086 116.933 125.196 117.011Z" fill="#455A64"/>
<path d="M126.143 115.314C126.143 115.314 125.113 115.355 123.801 115.35C122.489 115.345 121.459 115.32 121.459 115.294C121.459 115.268 122.489 115.253 123.801 115.258C125.113 115.263 126.143 115.268 126.143 115.314Z" fill="#455A64"/>
<path d="M125.777 115.993C125.589 116.03 125.398 116.049 125.206 116.049C124.851 116.049 124.362 116.085 123.822 116.09C123.281 116.095 122.792 116.09 122.437 116.09C122.246 116.093 122.054 116.078 121.866 116.044C122.056 116.033 122.247 116.033 122.437 116.044H123.822H125.206C125.395 116.016 125.586 115.999 125.777 115.993Z" fill="#455A64"/>
<path d="M201.691 93.089C201.244 92.2532 200.552 91.5744 199.707 91.1442C198.862 90.714 197.905 90.5532 196.966 90.6835C195.859 89.834 194.502 89.3735 193.106 89.3735C191.71 89.3735 190.353 89.834 189.246 90.6835C188.419 90.1902 187.48 89.912 186.518 89.8743C185.555 89.8366 184.598 90.0406 183.734 90.4676C182.884 90.9092 182.161 91.5602 181.633 92.359C181.105 93.1577 180.79 94.0777 180.718 95.0319C179.755 94.8756 178.768 95.0151 177.887 95.4318C177.005 95.8485 176.271 96.5229 175.782 97.3655C175.336 98.2199 175.162 99.1906 175.285 100.147C175.409 101.103 175.823 101.998 176.472 102.711C175.434 103.055 174.553 103.757 173.987 104.692C173.421 105.627 173.207 106.732 173.384 107.81C173.633 108.879 174.255 109.825 175.139 110.479C176.022 111.132 177.109 111.451 178.206 111.377L200.785 98.2598C201.458 97.6004 201.907 96.7471 202.069 95.8197C202.232 94.8923 202.099 93.9374 201.691 93.089Z" fill="#263238"/>
<path d="M177.501 111.984C178.011 107.252 180.285 102.885 183.87 99.7506C187.455 96.6159 192.089 94.9424 196.853 95.0627H197.841C208.464 95.8902 213.682 105.271 212.55 115.746L210.28 150.698L208.736 155.067L190.435 177.734L185.803 157.313L185.736 147.876C185.736 147.876 175.546 146.098 175.628 135.993C175.664 131.11 176.575 121.066 177.501 111.984Z" fill="#FFBF9D"/>
<path d="M185.736 147.892C185.736 147.892 192.159 148.38 199.117 144.258C199.117 144.258 195.834 151.485 185.736 150.4V147.892Z" fill="#FF9A6C"/>
<path d="M179.9 121.051C179.887 121.429 180.024 121.797 180.281 122.075C180.539 122.353 180.895 122.519 181.274 122.536C181.459 122.557 181.647 122.541 181.826 122.488C182.005 122.436 182.172 122.347 182.316 122.229C182.46 122.11 182.579 121.964 182.665 121.799C182.751 121.633 182.803 121.452 182.818 121.267C182.828 120.889 182.69 120.522 182.433 120.245C182.176 119.967 181.821 119.801 181.444 119.781C181.258 119.76 181.07 119.776 180.891 119.829C180.712 119.882 180.546 119.97 180.402 120.088C180.258 120.207 180.139 120.353 180.053 120.518C179.966 120.684 179.914 120.865 179.9 121.051Z" fill="#263238"/>
<path d="M179.478 117.483C179.658 117.679 180.78 116.892 182.349 116.928C183.919 116.964 185.057 117.761 185.232 117.576C185.314 117.494 185.139 117.149 184.645 116.779C183.972 116.3 183.17 116.037 182.344 116.023C181.535 116.01 180.742 116.249 180.075 116.707C179.56 117.062 179.39 117.401 179.478 117.483Z" fill="#263238"/>
<path d="M193.971 121.832C193.961 122.209 194.099 122.576 194.355 122.854C194.612 123.131 194.967 123.297 195.345 123.317C195.53 123.338 195.718 123.321 195.896 123.268C196.075 123.215 196.241 123.127 196.385 123.008C196.529 122.89 196.648 122.744 196.734 122.579C196.821 122.414 196.873 122.233 196.889 122.048C196.899 121.67 196.761 121.304 196.504 121.026C196.247 120.749 195.892 120.582 195.515 120.562C195.329 120.541 195.141 120.557 194.962 120.61C194.783 120.663 194.617 120.751 194.473 120.87C194.329 120.988 194.21 121.134 194.124 121.3C194.037 121.465 193.985 121.646 193.971 121.832Z" fill="#263238"/>
<path d="M194.511 117.576C194.691 117.766 195.813 116.98 197.383 117.015C198.953 117.051 200.09 117.853 200.265 117.668C200.347 117.586 200.172 117.242 199.678 116.866C199.006 116.387 198.203 116.125 197.378 116.116C196.562 116.095 195.76 116.333 195.087 116.794C194.599 117.154 194.424 117.488 194.511 117.576Z" fill="#263238"/>
<path d="M189.097 128.976C189.097 128.889 188.134 128.704 186.554 128.462C186.158 128.416 185.777 128.329 185.715 128.056C185.691 127.645 185.793 127.236 186.009 126.884L187.259 123.893C188.994 119.627 190.26 116.116 190.085 116.049C189.91 115.982 188.361 119.385 186.626 123.651C186.204 124.679 185.808 125.707 185.427 126.663C185.166 127.133 185.081 127.679 185.185 128.205C185.241 128.347 185.329 128.474 185.441 128.576C185.553 128.678 185.688 128.754 185.834 128.797C186.055 128.861 186.283 128.897 186.513 128.904C188.103 129.038 189.092 129.064 189.097 128.976Z" fill="#263238"/>
<path d="M194.583 113.14C194.763 113.546 196.127 113.212 197.769 113.274C199.411 113.336 200.775 113.701 200.95 113.274C201.027 113.084 200.759 112.714 200.193 112.359C199.456 111.924 198.619 111.686 197.764 111.67C196.92 111.642 196.084 111.837 195.34 112.236C194.774 112.585 194.485 112.945 194.583 113.14Z" fill="#263238"/>
<path d="M179.925 113.212C180.162 113.592 181.274 113.335 182.571 113.454C183.868 113.572 184.938 113.932 185.232 113.592C185.36 113.423 185.232 113.053 184.779 112.672C184.174 112.21 183.446 111.934 182.686 111.88C181.926 111.826 181.166 111.996 180.502 112.369C180.008 112.698 179.817 113.053 179.925 113.212Z" fill="#263238"/>
<path d="M178.587 107.373C178.587 107.373 181.418 101.102 184.537 99.6889C188.309 97.9773 189.833 102.064 193.415 101.149C196.997 100.234 200.62 98.5787 204.187 101.39C208.109 104.474 206.194 106.505 206.348 110.992C206.966 129.187 210.219 134.394 211.351 125.852C211.474 124.916 214.125 124.227 214.598 120.269C215.211 115.129 215.54 108.905 214.46 105.235C213.543 102.151 211.814 99.9819 208.685 97.5764C203.744 93.7779 196.848 93.562 192.159 93.9321C187.47 94.3022 178.325 99.4422 178.587 107.373Z" fill="#263238"/>
<path d="M210.708 125.548C210.731 125.176 210.83 124.813 210.998 124.48C211.166 124.148 211.399 123.853 211.684 123.612C211.969 123.372 212.3 123.192 212.657 123.083C213.014 122.974 213.389 122.938 213.76 122.978C215.659 123.194 217.759 124.309 217.553 128.2C217.187 135.103 210.25 133.34 210.25 133.114C210.25 132.888 210.527 128.452 210.708 125.548Z" fill="#FFBF9D"/>
<path d="M211.907 130.601C211.938 130.601 212.025 130.693 212.226 130.796C212.508 130.936 212.833 130.96 213.132 130.863C213.883 130.632 214.568 129.506 214.676 128.267C214.726 127.675 214.642 127.079 214.429 126.525C214.374 126.306 214.267 126.103 214.116 125.935C213.966 125.766 213.776 125.637 213.564 125.558C213.427 125.512 213.278 125.515 213.143 125.568C213.009 125.621 212.897 125.719 212.828 125.846C212.725 126.036 212.761 126.175 212.72 126.185C212.679 126.196 212.581 126.062 212.648 125.779C212.697 125.611 212.803 125.464 212.946 125.363C213.148 125.229 213.393 125.179 213.631 125.224C213.914 125.294 214.174 125.435 214.387 125.634C214.6 125.832 214.758 126.083 214.846 126.36C215.11 126.972 215.22 127.639 215.165 128.303C215.046 129.691 214.254 130.955 213.23 131.192C213.04 131.237 212.842 131.239 212.651 131.197C212.46 131.155 212.282 131.071 212.128 130.95C211.912 130.77 211.881 130.616 211.907 130.601Z" fill="#FF9A6C"/>
<path d="M210.852 112.184C209.93 112.781 208.958 113.392 207.862 113.474C206.765 113.557 205.525 112.914 205.365 111.84C205.293 111.357 205.422 110.812 205.108 110.421C204.794 110.031 204.032 110.097 203.446 110.144C202.427 110.206 201.417 109.917 200.586 109.325C199.754 108.733 199.153 107.873 198.881 106.89C198.366 107.646 197.136 107.589 196.364 107.075C195.592 106.561 195.103 105.728 194.501 105.019C193.899 104.31 193.055 103.672 192.128 103.78C191.613 103.842 191.099 104.14 190.584 104.084C189.668 103.981 189.241 102.912 189.122 102.028C189.004 101.144 188.917 100.074 188.15 99.5656C187.383 99.0567 186.498 99.3446 185.654 99.4474C184.81 99.5502 183.719 99.3343 183.518 98.517C183.487 98.2967 183.501 98.0724 183.559 97.8577C183.618 97.643 183.719 97.4424 183.857 97.268C184.448 96.4422 185.299 95.8376 186.273 95.5507C187.248 95.2637 188.291 95.311 189.236 95.6849C189.614 94.5382 190.321 93.5276 191.269 92.7785C192.218 92.0294 193.365 91.5747 194.569 91.4707C195.774 91.3667 196.982 91.618 198.045 92.1936C199.108 92.7691 199.978 93.6434 200.548 94.7083C201.312 94.0642 202.217 93.6082 203.189 93.377C204.162 93.1457 205.175 93.1458 206.148 93.377C207.113 93.6231 208.007 94.0935 208.755 94.7501C209.504 95.4067 210.086 96.2307 210.455 97.1549C211.315 96.9642 212.211 97.0203 213.04 97.3168C213.868 97.6134 214.596 98.1382 215.139 98.8306C215.652 99.5369 215.951 100.376 215.998 101.248C216.046 102.12 215.84 102.987 215.407 103.744C216.647 104.479 217.697 105.734 217.697 107.168C217.697 108.602 216.251 109.995 214.866 109.589C215.112 110.162 215.14 110.805 214.946 111.398C214.752 111.991 214.349 112.494 213.811 112.811C213.249 113.095 212.602 113.165 211.992 113.009C211.382 112.853 210.848 112.482 210.491 111.963" fill="#263238"/>
<path d="M215.376 109.614C215.401 109.855 215.372 110.098 215.292 110.327C215.212 110.555 215.082 110.763 214.912 110.935C214.555 111.366 214.051 111.649 213.497 111.732C213.142 111.781 212.78 111.751 212.438 111.644C212.095 111.537 211.78 111.357 211.516 111.115L211.814 111.079C211.429 111.716 210.946 112.288 210.383 112.775C210.003 113.104 209.565 113.36 209.092 113.531C208.638 113.685 208.152 113.718 207.681 113.629C207.283 113.589 206.898 113.463 206.554 113.259C206.21 113.054 205.915 112.777 205.69 112.446C205.425 112.001 205.25 111.509 205.175 110.997C205.122 110.815 205.106 110.625 205.129 110.437C205.16 110.437 205.216 110.622 205.324 110.951C205.458 111.423 205.667 111.87 205.942 112.277C206.585 113.305 208.731 113.819 210.141 112.462C210.673 112.004 211.133 111.468 211.505 110.874L211.634 110.673L211.804 110.832C212.026 111.041 212.29 111.2 212.578 111.297C212.867 111.395 213.173 111.429 213.477 111.398C213.964 111.346 214.416 111.121 214.753 110.766C215.037 110.428 215.249 110.036 215.376 109.614Z" fill="#455A64"/>
<path d="M202.499 93.5464C202.499 93.5721 202.319 93.5926 201.984 93.716C201.536 93.8958 201.152 94.2055 200.883 94.6052L200.795 94.7389L200.702 94.6052C199.846 93.4163 198.702 92.4632 197.378 91.8348C196.52 91.4295 195.588 91.2072 194.64 91.182C193.71 91.1698 192.791 91.3805 191.96 91.7964C191.129 92.2123 190.41 92.8212 189.864 93.5721C189.433 94.1831 189.154 94.8879 189.05 95.6281L189.025 95.844L188.814 95.7823C187.842 95.5069 186.802 95.6117 185.906 96.0753C185.204 96.4417 184.635 97.0188 184.279 97.7252C183.981 98.3706 183.818 99.0704 183.801 99.7812C183.739 99.5995 183.714 99.4072 183.729 99.2158C183.734 98.6833 183.852 98.1579 184.074 97.6738C184.426 96.9022 185.015 96.2629 185.757 95.8491C186.724 95.321 187.859 95.1884 188.922 95.479L188.685 95.6332C188.782 94.826 189.075 94.0548 189.539 93.387C190.118 92.5758 190.885 91.9178 191.776 91.4699C192.667 91.0221 193.653 90.798 194.65 90.817C195.651 90.8518 196.634 91.0989 197.532 91.5418C198.895 92.2124 200.052 93.2368 200.883 94.5076H200.702C201.008 94.0843 201.446 93.775 201.948 93.6286C202.121 93.5546 202.311 93.5262 202.499 93.5464Z" fill="#455A64"/>
<path d="M193.24 131.408C193.24 131.408 195.257 135.571 190.939 136.548C190.564 136.633 190.171 136.612 189.807 136.486C189.479 136.379 189.182 136.191 188.946 135.939C188.709 135.688 188.54 135.381 188.453 135.047L187.856 132.78C188.057 132.857 193.24 131.408 193.24 131.408Z" fill="#FF9A6C"/>
<path d="M189.339 136.558C189.527 136.563 189.714 136.58 189.9 136.61C190.402 136.636 190.904 136.561 191.377 136.388C192.159 136.118 192.808 135.559 193.191 134.826C193.573 134.093 193.661 133.241 193.435 132.446C193.346 132.099 193.196 131.77 192.993 131.475L193.137 131.526C191.469 131.948 189.997 132.307 188.937 132.554L187.692 132.837C187.541 132.878 187.385 132.901 187.229 132.904C187.367 132.833 187.514 132.78 187.666 132.744L188.896 132.384C189.925 132.091 191.402 131.701 193.065 131.269H193.157L193.209 131.341C193.43 131.663 193.594 132.022 193.693 132.4C193.818 132.868 193.845 133.356 193.775 133.835C193.704 134.314 193.536 134.774 193.281 135.186C192.917 135.734 192.406 136.17 191.807 136.443C191.207 136.715 190.543 136.814 189.889 136.728C189.696 136.708 189.509 136.65 189.339 136.558Z" fill="#263238"/>
<path d="M158.665 162.556C158.665 162.556 151.351 166.468 149.859 176.712C148.582 185.511 140.878 232.686 140.878 232.686L134.012 261.758H151.809L161.49 210.204L158.665 162.556Z" fill="#04BF68"/>
<path d="M163.883 261.835L173.888 171.351L182.617 151.397L185.54 149.377L187.645 158.259L190.471 168.303L198.191 158.614L210.383 149.177L210.666 153.834L216.518 170.929L211.665 215.534V261.738L163.883 261.835Z" fill="white"/>
<path d="M185.736 261.758C185.752 261.679 185.761 261.598 185.762 261.517C185.762 261.342 185.762 261.11 185.798 260.812C185.798 260.17 185.854 259.27 185.896 258.104C185.978 255.724 186.091 252.321 186.235 248.127C186.534 239.702 187.002 228.081 187.671 215.231C188.34 202.381 189.097 190.764 189.678 182.335C189.977 178.146 190.193 174.753 190.383 172.379C190.461 171.222 190.522 170.323 190.569 169.67C190.569 169.377 190.569 169.156 190.605 168.966C190.618 168.886 190.618 168.804 190.605 168.724C190.587 168.804 190.575 168.884 190.569 168.966C190.569 169.14 190.528 169.372 190.497 169.665C190.435 170.307 190.353 171.207 190.244 172.368C190.033 174.717 189.756 178.115 189.431 182.319C188.778 190.723 187.99 202.365 187.316 215.19C186.642 228.014 186.215 239.672 185.983 248.086C185.87 252.301 185.793 255.708 185.757 258.068C185.757 259.229 185.731 260.124 185.726 260.782V261.486C185.719 261.577 185.723 261.668 185.736 261.758Z" fill="#263238"/>
<path d="M226.487 212.831L240.502 169.495L215.7 156.183L210.522 150.58C210.522 150.58 209.416 173.828 209.246 179.986C209.076 186.144 206.359 209.484 205.129 223.676C204.485 231.258 204.897 243.928 205.278 251.067C205.715 259.255 205.623 261.964 205.623 261.964L229.889 261.83L221.86 229.921L226.487 212.831Z" fill="#04BF68"/>
<path d="M175.571 156.08L158.665 162.556L156.04 225.346L149.509 261.84L168.16 262.19C168.33 257.744 173.075 220.694 173.075 220.694L179.308 162.715L184.192 150.323L175.571 156.08Z" fill="#04BF68"/>
<path d="M175.88 155.735C175.766 155.84 175.663 155.955 175.571 156.08L174.717 157.108L171.542 161.04L171.475 161.122L171.562 161.189L174.254 163.209L174.29 162.988L171.135 163.975L171.032 164.006V164.108C171.094 169.67 171.171 176.676 171.253 184.267C171.387 193.519 171.511 201.918 171.603 208.019C171.665 211.037 171.711 213.488 171.747 215.215C171.773 216.043 171.794 216.696 171.809 217.169C171.809 217.374 171.809 217.544 171.809 217.683C171.803 217.741 171.803 217.799 171.809 217.857C171.816 217.799 171.816 217.741 171.809 217.683C171.809 217.549 171.809 217.379 171.809 217.169C171.809 216.696 171.809 216.038 171.809 215.21C171.809 213.483 171.809 211.031 171.778 208.014C171.711 201.908 171.624 193.519 171.531 184.257C171.423 176.665 171.32 169.665 171.238 164.103L171.14 164.237L174.29 163.209L174.527 163.137L174.326 162.988L171.691 161.014V161.163L174.779 157.175L175.592 156.105C175.698 155.99 175.795 155.867 175.88 155.735Z" fill="#263238"/>
<path d="M206.657 216.413C206.657 216.413 206.688 216.356 206.724 216.243C206.76 216.13 206.822 215.95 206.889 215.729L207.522 213.812C208.073 212.152 208.891 209.751 209.946 206.801C210.461 205.326 211.063 203.717 211.691 201.98C212.377 200.139 212.968 198.264 213.461 196.362C214.526 191.994 215.354 187.573 215.942 183.116C216.801 176.948 217.352 171.135 217.692 166.154V166.087L217.64 166.036L214.918 163.466V163.676L217.491 161.739L217.589 161.662L217.517 161.564L212.859 155.319L211.577 153.633L211.238 153.201C211.155 153.104 211.114 153.057 211.109 153.062C211.137 153.118 211.17 153.171 211.207 153.222C211.289 153.34 211.392 153.489 211.516 153.679L212.746 155.401C213.837 156.917 215.396 159.066 217.311 161.708V161.533L214.737 163.45L214.609 163.548L214.727 163.666L217.429 166.277L217.383 166.159C217.017 171.145 216.446 176.953 215.592 183.121C215.003 187.567 214.187 191.979 213.147 196.341C212.629 198.346 212.051 200.213 211.413 201.944L209.709 206.76C208.68 209.726 207.903 212.136 207.388 213.812C207.131 214.655 206.94 215.308 206.822 215.75C206.77 215.961 206.724 216.125 206.688 216.264C206.673 216.312 206.662 216.362 206.657 216.413Z" fill="#263238"/>
<g opacity="0.3">
<path d="M226.487 248.559L213.055 253.76L212.159 250.805L205.504 256.289L205.139 248.106L210.991 240L225.504 244.647L226.487 248.559Z" fill="black"/>
</g>
<path d="M250.069 234.377C250.778 233.943 251.368 233.34 251.788 232.622C252.207 231.905 252.442 231.095 252.473 230.265C252.519 227.923 252.383 225.581 252.066 223.26C251.104 215.359 240.497 169.495 240.497 169.495L224.851 205.218L229.369 220.777L206.348 231.674L212.756 249.551C212.756 249.551 243.379 238.505 250.069 234.377Z" fill="#04BF68"/>
<path d="M234.377 180.068C234.314 180.196 234.266 180.33 234.233 180.469L233.878 181.636C233.574 182.694 233.157 184.154 232.643 185.943C231.613 189.587 230.208 194.619 228.778 200.217C227.347 205.814 226.204 210.918 225.499 214.634C225.139 216.495 224.871 218.001 224.712 219.05C224.634 219.564 224.573 219.939 224.526 220.252C224.5 220.391 224.486 220.532 224.485 220.674C224.541 220.542 224.579 220.404 224.598 220.263C224.66 219.954 224.743 219.558 224.845 219.07C225.067 217.991 225.36 216.5 225.746 214.686C226.518 210.985 227.692 205.891 229.122 200.294C230.553 194.696 231.922 189.659 232.89 186.005C233.353 184.206 233.739 182.736 234.012 181.666C234.13 181.178 234.228 180.787 234.3 180.479C234.343 180.346 234.369 180.208 234.377 180.068Z" fill="#263238"/>
<path d="M242.452 238.053C242.401 238.06 242.351 238.074 242.303 238.094L241.871 238.243L240.213 238.86L234.037 241.209L212.725 249.433L212.946 249.535L208.654 237.539C207.939 235.534 207.228 233.565 206.544 231.653L206.456 231.869L229.21 221.013C232.272 220.011 235.594 220.15 238.561 221.404C239.36 221.745 240.131 222.147 240.867 222.607L241.438 222.977C241.5 223.023 241.567 223.061 241.639 223.09C241.583 223.038 241.522 222.99 241.459 222.946L240.908 222.545C240.181 222.059 239.413 221.636 238.613 221.281C237.341 220.716 235.988 220.356 234.604 220.212C232.76 220.03 230.9 220.223 229.133 220.777L206.333 231.545L206.189 231.612L206.245 231.761L208.35 237.646L212.658 249.638L212.715 249.803L212.88 249.736L234.115 241.404L240.265 238.962L241.902 238.299L242.324 238.119L242.452 238.053Z" fill="#263238"/>
<path d="M190.759 167.943C190.993 167.77 191.21 167.575 191.408 167.362L193.121 165.676C194.609 164.18 196.616 162.15 198.917 159.827H198.67C199.809 161.23 200.392 163.003 200.306 164.808L200.28 165.203L200.589 164.957C203.523 162.608 205.895 160.331 207.676 158.732C208.556 157.94 209.272 157.308 209.766 156.882C210.035 156.671 210.288 156.441 210.522 156.193C210.226 156.365 209.945 156.562 209.683 156.784C209.169 157.18 208.423 157.786 207.517 158.557C205.7 160.099 203.286 162.366 200.373 164.684L200.656 164.833C200.697 164.185 200.649 163.535 200.512 162.901C200.274 161.685 199.728 160.551 198.927 159.606L198.803 159.462L198.675 159.596L192.967 165.532C192.298 166.252 191.749 166.838 191.32 167.29C191.114 167.491 190.927 167.709 190.759 167.943Z" fill="#263238"/>
<path d="M183.003 155.144C182.97 155.313 182.961 155.486 182.977 155.658C182.977 156.008 182.977 156.522 183.044 157.159C183.19 158.893 183.478 160.612 183.904 162.299L184.012 162.726L184.218 162.335C184.805 161.199 185.561 160.159 186.462 159.251C186.719 158.994 186.976 158.737 187.239 158.531L186.956 158.434C187.478 160.764 188.178 163.051 189.05 165.275C189.38 166.118 189.673 166.786 189.889 167.244C189.984 167.486 190.107 167.717 190.255 167.932C190.198 167.678 190.115 167.43 190.008 167.192C189.812 166.678 189.565 165.989 189.277 165.193C188.476 162.985 187.809 160.732 187.28 158.444L187.213 158.156L186.992 158.346C186.724 158.572 186.451 158.819 186.189 159.086C185.262 160.011 184.488 161.079 183.899 162.248L184.207 162.284C183.766 160.606 183.439 158.901 183.23 157.179C183.096 155.874 183.044 155.144 183.003 155.144Z" fill="#263238"/>
<g opacity="0.3">
<path d="M171.176 164.098L169.267 166.74C169.267 166.74 169.807 206.549 171.84 216.434L171.176 164.098Z" fill="black"/>
</g>
<path d="M149.509 261.835C149.509 261.835 149.509 261.768 149.534 261.645C149.56 261.521 149.591 261.326 149.632 261.09C149.72 260.576 149.853 259.872 150.018 258.951C150.373 257.086 150.878 254.392 151.511 251.056C152.797 244.349 154.599 235.04 156.601 224.57V224.596C156.601 223.192 156.57 221.702 156.554 220.196C156.441 208.507 156.338 197.929 156.261 190.26C156.261 186.436 156.22 183.342 156.204 181.188V178.721C156.204 178.449 156.204 178.238 156.204 178.079C156.196 178.007 156.196 177.935 156.204 177.863C156.211 177.935 156.211 178.007 156.204 178.079V178.721C156.204 179.297 156.235 180.124 156.256 181.188C156.292 183.342 156.338 186.436 156.4 190.26C156.493 197.929 156.626 208.507 156.771 220.191C156.771 221.702 156.801 223.187 156.817 224.591V224.621C154.758 235.086 152.952 244.39 151.639 251.087L150.095 258.972C149.91 259.887 149.761 260.601 149.658 261.1L149.54 261.65C149.537 261.713 149.527 261.775 149.509 261.835Z" fill="#263238"/>
<path d="M151.706 223.095C151.706 223.172 150.368 223.059 148.737 223.177C147.105 223.295 145.798 223.578 145.782 223.501C146.718 223.133 147.711 222.932 148.716 222.91C149.716 222.797 150.728 222.86 151.706 223.095Z" fill="#263238"/>
<path d="M206.611 232.887C206.611 232.887 193.631 235.59 191.686 236.012C189.74 236.433 182.138 242.149 181.392 242.57C180.646 242.992 178.438 244.385 178.438 244.385C178.438 244.385 179.853 246.708 182.37 245.865C183.887 245.356 185.302 244.584 186.549 243.583L181.181 248.471L175.067 252.203C174.698 252.42 174.419 252.761 174.28 253.165C174.14 253.569 174.149 254.01 174.305 254.408C174.394 254.662 174.575 254.873 174.813 254.999C175.05 255.124 175.327 255.156 175.587 255.086C177.321 254.778 182.957 252.583 182.957 252.583C182.957 252.583 183.219 255.981 186.323 256.402C186.323 256.402 186.992 259.317 189.694 258.695C189.694 258.695 192.349 260.869 194.696 259.625C197.043 258.381 203.152 255.893 204.413 253.364C205.246 251.722 206.199 250.143 207.265 248.641L211.984 247.829L206.611 232.887Z" fill="#FFBF9D"/>
<path d="M182.962 252.583C183.003 252.676 184.629 252.023 186.523 250.975C188.417 249.926 189.771 248.769 189.699 248.682C189.627 248.595 188.206 249.597 186.328 250.625C184.449 251.653 182.91 252.475 182.962 252.583Z" fill="#FF9A6C"/>
<path d="M192.864 252.079C192.802 251.976 191.197 252.881 189.354 254.171C187.512 255.461 185.998 256.474 186.05 256.566C186.101 256.659 187.728 255.801 189.581 254.51C191.433 253.22 192.941 252.172 192.864 252.079Z" fill="#FF9A6C"/>
<path d="M195.288 254.685C195.216 254.613 194.038 255.6 192.458 256.669C190.878 257.739 189.632 258.669 189.699 258.767C189.766 258.864 191.099 258.083 192.684 256.998C194.269 255.914 195.376 254.768 195.288 254.685Z" fill="#FF9A6C"/>
<path d="M193.724 238.202C193.253 238.205 192.788 238.306 192.36 238.5C191.299 238.886 190.308 239.441 189.426 240.145C188.547 240.848 187.756 241.654 187.069 242.545C186.756 242.894 186.506 243.294 186.328 243.727C186.436 243.815 187.656 242.062 189.673 240.463C191.691 238.865 193.76 238.32 193.724 238.202Z" fill="#FF9A6C"/>
<path d="M261.907 187.881C261.979 188.472 256.58 203.105 256.58 203.105L249.04 175.812L238.649 177.976C238.649 177.976 241.469 215.698 243.281 220.797C245.232 226.241 256.631 230.311 263.008 222.93C264.83 220.818 270.651 207.341 270.651 207.341L261.907 187.881Z" fill="#A26760"/>
<path d="M249.04 175.812C249.04 175.812 250.306 172.425 249.303 169.5C248.299 166.575 244.923 164.303 245.129 162.556C245.334 160.808 243.538 156.583 241.907 156.902C240.275 157.221 239.076 158.819 240.45 161.528C241.332 163.298 242.06 165.139 242.627 167.033C242.627 167.033 225.643 158.295 224.279 158.11C222.916 157.925 221.511 157.735 221.15 158.824C220.79 159.914 224.176 161.312 224.176 161.312L228.731 167.182C229.489 169.419 230.554 171.54 231.896 173.483C233.852 176.1 237.707 177.847 237.707 177.847L242.653 183.733C242.653 183.733 250.152 181.199 249.04 175.812Z" fill="#A26760"/>
<path d="M224.465 161.554C224.49 161.554 224.614 161.451 224.882 161.328C225.259 161.157 225.679 161.107 226.086 161.184C227.115 161.369 228.428 162.243 229.503 163.471C230.405 164.566 231.174 165.763 231.794 167.038C232.025 167.585 232.321 168.102 232.674 168.58C232.561 167.99 232.365 167.419 232.092 166.884C231.544 165.533 230.789 164.276 229.853 163.157C228.716 161.867 227.321 160.973 226.127 160.844C225.658 160.786 225.183 160.897 224.789 161.158C224.521 161.364 224.444 161.528 224.465 161.554Z" fill="#7B4B45"/>
<path d="M230.682 163.743C230.615 163.856 231.711 164.591 233.121 165.393C234.532 166.195 235.731 166.75 235.798 166.642C235.865 166.534 234.768 165.794 233.353 164.992C231.938 164.191 230.744 163.635 230.682 163.743Z" fill="#7B4B45"/>
<path d="M239.668 167.511C239.725 167.403 238.386 166.956 236.817 167.485C235.247 168.015 234.449 169.156 234.562 169.207C234.676 169.259 235.53 168.385 236.966 167.922C238.402 167.46 239.647 167.65 239.668 167.511Z" fill="#7B4B45"/>
<path d="M281.258 161.867L287.125 159.328L307.341 159.842L314.933 163.029L316.477 182.417C316.477 182.417 287.728 192.635 287.614 192.635C287.501 192.635 270.496 175.977 270.496 175.977L281.258 161.867Z" fill="#A26760"/>
<path d="M274.423 173.304C275.995 173.802 277.595 174.207 279.215 174.517C287.484 176.363 296.104 175.871 304.109 173.098L311.901 170.395C311.901 170.395 324.768 196.095 325 196.984C325.231 197.873 313.816 262.015 313.816 262.015H268.042L269.158 225.151C269.158 225.151 268.386 191.273 268.515 190.893L274.423 173.304Z" fill="#263238"/>
<path d="M286.611 156.938L280.671 161.127C276.101 162.577 267.98 165.347 265.515 167.809C261.788 171.489 256.909 196.218 256.909 196.218C256.909 196.218 256.055 194.095 254.115 194.095L240.805 214.917C240.805 214.917 242.154 225.809 245.365 226.95C248.577 228.091 257.403 227.464 257.532 227.464H263.039L260.98 261.969L271.706 262.015L272.138 223.66L274.135 199.749L279.699 177.462L286.611 156.938Z" fill="#455A64"/>
<path d="M264.3 182.427C264.328 182.582 264.341 182.738 264.341 182.895L264.403 184.231C264.449 185.398 264.495 187.079 264.532 189.161C264.609 193.319 264.609 199.065 264.418 205.413C264.228 211.761 263.878 217.503 263.554 221.666C263.394 223.722 263.245 225.418 263.132 226.575C263.07 227.13 263.024 227.572 262.988 227.906C262.977 228.062 262.955 228.216 262.921 228.369C262.906 228.213 262.906 228.056 262.921 227.901C262.921 227.567 262.972 227.125 263.008 226.564C263.085 225.372 263.199 223.701 263.337 221.651C263.605 217.503 263.919 211.761 264.109 205.418C264.3 199.076 264.331 193.334 264.31 189.176C264.31 187.12 264.31 185.444 264.279 184.252C264.279 183.692 264.279 183.224 264.279 182.91C264.273 182.749 264.28 182.587 264.3 182.427Z" fill="#263238"/>
<path d="M264.166 180.628C263.796 179.708 263.516 178.754 263.327 177.781C263.048 176.83 262.867 175.854 262.787 174.866C263.445 176.734 263.907 178.665 264.166 180.628Z" fill="#263238"/>
<g opacity="0.3">
<path d="M264.346 183.497C264.29 183.769 264.238 184.036 264.182 184.309C261.48 197.776 261.315 213.843 263.039 227.485C263.554 227.552 265.417 185.594 264.29 183.795" fill="black"/>
</g>
<path d="M338.896 177.287C337.588 171.993 334.531 169.475 334.531 169.475L321.15 186.812L326.173 261.969H345.483L343.275 223.815C343.275 223.815 340.203 182.602 338.896 177.287Z" fill="#455A64"/>
<path d="M333.106 173.864L335.725 170.585C331.984 166.945 327.556 164.083 322.699 162.165C318.932 160.742 313.162 158.146 313.162 158.146L309.019 153.042L308.016 167.773C308.016 167.773 307.285 200.315 306.77 206.21C306.255 211.864 300.316 237.688 300.393 262L329.287 261.953L322.864 224.149C322.864 224.149 325.489 200.052 325.653 199.266C325.818 198.48 333.106 173.864 333.106 173.864Z" fill="#455A64"/>
<path d="M334.526 173.679C334.593 173.731 332.498 176.249 329.853 179.297C327.208 182.345 325.01 184.771 324.948 184.72C324.886 184.668 326.976 182.15 329.621 179.102C332.267 176.054 334.475 173.623 334.526 173.679Z" fill="#263238"/>
<path d="M276.23 182.006C276.207 181.923 276.191 181.839 276.184 181.754C276.184 181.559 276.137 181.317 276.101 181.019C276.034 180.335 275.942 179.4 275.828 178.238L275.988 178.295C274.085 180.462 272.408 182.818 270.985 185.326L270.666 185.892L270.718 185.244C271.214 178.643 273.276 172.254 276.734 166.606C277.589 165.126 278.34 163.964 278.86 163.163L279.477 162.253C279.544 162.143 279.622 162.039 279.709 161.944C279.658 162.062 279.597 162.175 279.529 162.284C279.38 162.525 279.194 162.839 278.963 163.224C278.448 164.041 277.753 165.224 276.904 166.709C274.679 170.546 273.016 174.681 271.963 178.989C271.489 181.057 271.162 183.155 270.985 185.27L270.718 185.187C272.163 182.671 273.876 180.319 275.828 178.171L275.978 178.017V178.228C276.06 179.389 276.122 180.325 276.168 181.009C276.168 181.312 276.194 181.553 276.204 181.749C276.225 181.833 276.234 181.919 276.23 182.006Z" fill="#263238"/>
<path d="M251.994 224.832C252.02 224.734 252.058 224.639 252.107 224.55L252.473 223.753C252.638 223.408 252.838 222.987 253.044 222.488C253.25 221.99 253.518 221.435 253.754 220.797C253.991 220.16 254.269 219.471 254.526 218.711C254.784 217.95 255.041 217.143 255.304 216.284C255.837 214.411 256.268 212.51 256.595 210.589C256.901 208.666 257.1 206.727 257.192 204.781C257.218 203.882 257.254 203.028 257.234 202.211C257.213 201.394 257.197 200.669 257.167 199.991C257.136 199.312 257.074 198.695 257.033 198.161C256.992 197.626 256.945 197.158 256.894 196.778C256.842 196.398 256.827 196.136 256.801 195.909C256.788 195.807 256.788 195.703 256.801 195.601C256.835 195.698 256.857 195.798 256.868 195.899C256.909 196.125 256.956 196.413 257.012 196.768C257.069 197.123 257.146 197.606 257.197 198.145C257.249 198.685 257.336 199.297 257.367 199.975C257.398 200.654 257.465 201.404 257.47 202.206C257.475 203.008 257.47 203.866 257.47 204.776C257.33 208.694 256.692 212.578 255.571 216.336C255.298 217.199 255.056 218.022 254.768 218.772C254.48 219.523 254.223 220.222 253.96 220.854C253.698 221.486 253.446 222.041 253.214 222.535C252.982 223.028 252.782 223.444 252.596 223.784L252.185 224.56C252.135 224.66 252.071 224.751 251.994 224.832Z" fill="#263238"/>
<path d="M313.162 158.161C313.186 158.3 313.196 158.441 313.193 158.583C313.193 158.886 313.193 159.292 313.229 159.801C313.229 160.885 313.27 162.407 313.296 164.278C313.337 168.061 313.384 173.283 313.358 179.055C313.358 180.351 313.332 181.625 313.317 182.843C313.317 183.455 313.317 184.062 313.26 184.658C313.26 184.807 313.26 184.951 313.229 185.105V185.223C313.233 185.247 313.233 185.271 313.229 185.295C313.23 185.309 313.23 185.323 313.229 185.336L313.193 185.367C313.168 185.376 313.141 185.376 313.116 185.367C313.094 185.372 313.071 185.372 313.049 185.367C312.97 185.327 312.897 185.275 312.833 185.213C312.612 185.012 312.411 184.802 312.215 184.596C310.671 182.921 309.318 181.332 308.149 179.97L308.33 179.919C307.975 182.15 307.681 183.969 307.475 185.264C307.372 185.876 307.29 186.359 307.228 186.719L307.156 187.099C307.151 187.143 307.141 187.187 307.125 187.228C307.117 187.184 307.117 187.138 307.125 187.094C307.125 186.991 307.125 186.863 307.166 186.709C307.213 186.349 307.28 185.861 307.362 185.244C307.542 183.949 307.805 182.124 308.124 179.888L308.155 179.667L308.299 179.837C309.477 181.188 310.836 182.771 312.416 184.427C312.612 184.632 312.812 184.838 313.023 185.028L313.152 185.131C313.152 185.131 313.152 185.172 313.152 185.223C313.152 185.275 313.101 185.192 313.049 185.198V185.167V185.064C313.049 184.925 313.049 184.776 313.08 184.632C313.106 184.041 313.121 183.44 313.131 182.828C313.131 181.6 313.131 180.335 313.167 179.045C313.167 173.288 313.167 168.076 313.167 164.273C313.167 162.402 313.167 160.875 313.167 159.791C313.167 159.277 313.167 158.876 313.167 158.572C313.157 158.436 313.156 158.298 313.162 158.161Z" fill="#263238"/>
<path d="M324.948 188.585C324.952 188.643 324.952 188.702 324.948 188.76C324.948 188.888 324.948 189.058 324.948 189.274C324.948 189.741 324.892 190.405 324.85 191.253C324.753 192.99 324.609 195.483 324.434 198.567C324.053 204.766 323.528 213.355 322.941 222.961V222.93C323.08 223.748 323.234 224.616 323.384 225.5C325.118 235.575 326.693 244.698 327.83 251.314C328.386 254.608 328.86 257.281 329.148 259.142C329.292 260.057 329.41 260.771 329.493 261.275C329.524 261.506 329.554 261.691 329.575 261.83C329.582 261.893 329.582 261.957 329.575 262.02L329.529 261.835C329.529 261.696 329.467 261.516 329.421 261.285C329.328 260.771 329.199 260.072 329.03 259.162C328.695 257.302 328.216 254.634 327.63 251.349C326.466 244.734 324.871 235.616 323.106 225.547C322.956 224.668 322.802 223.799 322.663 222.977V222.946C323.286 213.339 323.837 204.755 324.238 198.551C324.449 195.467 324.619 192.985 324.753 191.247C324.82 190.399 324.866 189.736 324.902 189.274L324.948 188.76C324.94 188.702 324.94 188.643 324.948 188.585Z" fill="#263238"/>
<path d="M280.275 108.673C275.674 108.771 271.732 115.52 272.411 119.323C272.746 121.169 273.59 123.292 272.077 124.659C270.563 126.026 267.445 125.897 266.003 127.29C266.003 127.29 264.176 129.089 264.377 131.402C264.578 133.715 264.192 136.841 262.318 137.668L271.644 140.968C272.607 140.007 272.993 138.485 273.955 137.524C272.854 138.552 271.783 142.15 276.775 142.541L279.863 139.837C288.35 141.996 297.275 144.684 304.053 141.04" fill="#263238"/>
<path d="M323.512 128.894C322.9 127.152 321.896 125.538 321.454 123.754C320.543 119.884 322.375 115.474 320.424 112.009C319.024 109.547 316.111 108.375 313.358 107.594C310.604 106.813 307.98 106.345 305.906 104.397C304.362 102.968 303.497 100.984 301.979 99.5499C299.817 97.4939 296.667 96.8566 293.682 96.7281C290.594 96.5944 287.444 96.9439 284.717 98.3317C281.989 99.7195 279.735 102.269 279.302 105.271C279.086 106.736 279.302 108.267 278.855 109.681C278.371 111.223 277.167 112.462 276.436 113.921C275.697 115.485 275.505 117.252 275.893 118.937C276.28 120.623 277.224 122.129 278.572 123.214L300.105 149.706C304.557 151.279 309.405 145.692 312.766 142.402C316.127 139.113 325.061 133.309 323.512 128.894Z" fill="#263238"/>
<path d="M279.066 120.064C279.822 113.947 284.387 106.659 290.538 107.661L309.58 113.613C311.449 113.921 312.452 115.397 312.303 117.262L308.376 162.68C308.422 162.68 307.902 163.409 307.949 163.42C307.995 163.43 302.802 176.162 290.255 171.479C287.769 170.554 286.652 171.412 286.302 168.57C285.756 168.354 283.168 167.46 283.183 167.141L286.611 156.938C286.786 153.217 286.899 152.091 286.894 152.122C286.889 152.153 279.035 150.647 278 140.3C277.47 135.186 278.227 126.859 279.066 120.064Z" fill="#A26760"/>
<path d="M294.089 128.863C294.067 129.207 294.181 129.546 294.406 129.807C294.631 130.068 294.949 130.231 295.293 130.261C295.46 130.285 295.63 130.275 295.794 130.233C295.957 130.19 296.11 130.115 296.245 130.013C296.379 129.911 296.491 129.783 296.575 129.636C296.659 129.49 296.713 129.329 296.734 129.161C296.756 128.817 296.642 128.478 296.417 128.216C296.192 127.954 295.874 127.789 295.53 127.758C295.362 127.735 295.192 127.745 295.029 127.789C294.865 127.832 294.712 127.907 294.578 128.01C294.444 128.113 294.332 128.241 294.248 128.387C294.164 128.534 294.11 128.696 294.089 128.863Z" fill="#263238"/>
<path d="M280.857 128.524C280.834 128.867 280.947 129.206 281.171 129.467C281.395 129.729 281.713 129.892 282.056 129.922C282.223 129.946 282.393 129.936 282.557 129.894C282.72 129.851 282.873 129.776 283.007 129.674C283.142 129.572 283.254 129.443 283.338 129.297C283.422 129.151 283.476 128.989 283.497 128.822C283.519 128.479 283.406 128.14 283.182 127.878C282.958 127.616 282.641 127.452 282.298 127.419C282.13 127.395 281.96 127.405 281.796 127.448C281.632 127.491 281.479 127.566 281.345 127.669C281.21 127.772 281.098 127.9 281.014 128.047C280.931 128.194 280.877 128.356 280.857 128.524Z" fill="#263238"/>
<path d="M280.285 124.453C280.435 124.69 281.654 123.898 283.204 124.094C284.753 124.289 285.777 125.317 285.962 125.122C286.055 125.034 285.931 124.608 285.494 124.145C284.917 123.543 284.15 123.16 283.322 123.06C282.495 122.964 281.661 123.161 280.965 123.616C280.435 123.975 280.213 124.345 280.285 124.453Z" fill="#263238"/>
<path d="M294.449 125.743C294.634 125.964 295.834 125.07 297.496 125.111C299.158 125.152 300.352 126.057 300.538 125.846C300.63 125.754 300.445 125.363 299.925 124.941C299.228 124.405 298.376 124.106 297.496 124.088C296.623 124.07 295.769 124.341 295.067 124.859C294.542 125.265 294.356 125.646 294.449 125.743Z" fill="#263238"/>
<path d="M288.86 135.473C288.86 135.391 287.99 135.191 286.564 134.923C286.199 134.867 285.859 134.774 285.813 134.523C285.803 134.148 285.911 133.779 286.122 133.469C286.513 132.616 286.93 131.721 287.362 130.786C289.091 126.967 290.368 123.816 290.213 123.744C290.059 123.672 288.525 126.72 286.796 130.544L285.581 133.258C285.327 133.681 285.231 134.18 285.309 134.666C285.355 134.796 285.43 134.914 285.528 135.01C285.626 135.107 285.745 135.181 285.875 135.227C286.075 135.29 286.283 135.331 286.492 135.35C287.949 135.494 288.849 135.55 288.86 135.473Z" fill="#263238"/>
<path d="M286.878 152.122C291.745 152.479 296.616 151.494 300.96 149.274C300.96 149.274 297.033 156.563 286.729 155.006L286.878 152.122Z" fill="#7B4B45"/>
<path d="M294.495 120.922C294.614 121.318 296.039 121.215 297.717 121.513C299.395 121.811 300.713 122.341 300.954 122.027C301.063 121.868 300.846 121.513 300.321 121.087C299.623 120.578 298.813 120.245 297.959 120.115C297.102 119.957 296.22 120.006 295.386 120.259C294.773 120.47 294.449 120.753 294.495 120.922Z" fill="#263238"/>
<path d="M280.728 119.38C281.001 119.719 282.143 119.452 283.497 119.514C284.851 119.575 285.983 119.874 286.266 119.555C286.389 119.396 286.23 119.041 285.751 118.732C285.086 118.315 284.319 118.088 283.533 118.075C282.754 118.036 281.979 118.214 281.294 118.589C280.79 118.866 280.615 119.195 280.728 119.38Z" fill="#263238"/>
<path d="M329.637 126.936C328.659 125.152 330.548 123.158 329.045 121.513C327.676 120.007 324.068 119.971 322.787 118.429C321.757 117.231 321.757 116.918 321.706 115.797C321.665 114.389 321.021 108.488 312.303 107.286L311.093 112.652C310.548 112.4 309.982 112.179 309.426 111.978C302.316 109.406 294.928 107.681 287.414 106.838C286.508 108.38 287.414 110.436 288.834 111.511C290.255 112.585 292.082 112.996 293.775 113.567C295.468 114.137 297.218 115.109 297.939 116.717C298.711 118.45 298.124 120.526 298.808 122.294C299.977 125.332 304.315 126.242 305.473 129.29C306.343 131.598 305.031 134.091 304.732 136.532C304.578 137.925 304.754 139.335 305.247 140.648C305.74 141.961 306.535 143.139 307.568 144.088C309.205 145.573 311.994 148.267 312.2 147.727L335.504 133.335C336.868 130.097 330.98 129.382 329.637 126.936Z" fill="#263238"/>
<path d="M278.443 144.422C278.368 144.47 278.289 144.509 278.206 144.54C277.973 144.65 277.733 144.741 277.486 144.813C276.571 145.074 275.613 145.142 274.67 145.013C273.265 144.824 271.948 144.217 270.893 143.271C270.281 142.707 269.788 142.027 269.441 141.271C269.083 140.459 268.879 139.588 268.839 138.701C268.753 136.966 269.352 135.266 270.507 133.967C271.459 132.918 272.721 132.198 274.109 131.911C275.042 131.721 276.005 131.739 276.93 131.963C277.179 132.025 277.423 132.106 277.661 132.204C277.745 132.235 277.828 132.271 277.908 132.312C277.818 132.298 277.73 132.274 277.645 132.24C277.405 132.162 277.161 132.097 276.914 132.045C276 131.851 275.055 131.851 274.14 132.045C272.789 132.339 271.564 133.047 270.635 134.07C269.526 135.338 268.954 136.988 269.04 138.67C269.078 139.531 269.274 140.378 269.616 141.168C269.952 141.901 270.427 142.561 271.016 143.111C272.039 144.039 273.314 144.643 274.681 144.849C275.605 144.988 276.548 144.942 277.455 144.715C277.701 144.652 277.943 144.575 278.18 144.484C278.265 144.452 278.353 144.431 278.443 144.422Z" fill="#E0E0E0"/>
<path d="M324.603 139.796C324.617 139.743 324.636 139.692 324.66 139.642C324.724 139.49 324.778 139.334 324.82 139.174C324.987 138.568 325.014 137.932 324.897 137.314C324.724 136.326 324.23 135.423 323.492 134.744C323.032 134.324 322.478 134.02 321.876 133.86C321.237 133.68 320.527 133.623 319.817 133.376C319.437 133.257 319.086 133.059 318.788 132.796C318.49 132.517 318.26 132.174 318.113 131.793C317.837 130.991 317.735 130.14 317.815 129.295C317.912 128.413 317.924 127.523 317.851 126.638C317.792 126.184 317.641 125.747 317.408 125.353C317.158 124.955 316.822 124.618 316.425 124.366C315.554 123.885 314.61 123.55 313.631 123.374C312.584 123.184 311.577 122.816 310.656 122.284C310.193 121.981 309.807 121.575 309.529 121.097C309.264 120.616 309.079 120.095 308.983 119.555C308.772 118.465 308.772 117.35 308.566 116.26C308.351 115.197 307.869 114.206 307.165 113.379C306.461 112.553 305.558 111.919 304.542 111.537C303.541 111.226 302.502 111.053 301.454 111.023C300.93 110.988 300.412 110.895 299.91 110.745C299.417 110.598 298.967 110.335 298.597 109.979C297.872 109.249 297.619 108.278 297.3 107.409C297.017 106.569 296.561 105.797 295.962 105.142C294.86 103.964 293.376 103.214 291.773 103.025C290.447 102.877 289.109 103.162 287.959 103.837C287.094 104.342 286.347 105.026 285.767 105.842C285.403 106.358 285.12 106.926 284.928 107.527C284.873 107.681 284.827 107.837 284.789 107.995C284.776 108.051 284.759 108.106 284.737 108.16C284.773 107.941 284.823 107.724 284.887 107.512C285.067 106.901 285.341 106.322 285.7 105.795C286.276 104.96 287.026 104.259 287.897 103.739C289.068 103.041 290.432 102.738 291.788 102.876C293.433 103.061 294.958 103.824 296.091 105.029C296.709 105.697 297.181 106.487 297.475 107.348C297.794 108.206 298.052 109.152 298.736 109.83C299.421 110.509 300.445 110.724 301.449 110.812C302.509 110.836 303.561 111.009 304.573 111.326C305.622 111.717 306.555 112.369 307.282 113.221C308.009 114.073 308.506 115.096 308.726 116.193C308.937 117.314 308.937 118.429 309.143 119.488C309.23 120.013 309.404 120.521 309.657 120.989C309.918 121.444 310.283 121.83 310.723 122.115C312.498 123.256 314.763 123.112 316.482 124.202C316.895 124.467 317.246 124.817 317.511 125.23C317.752 125.647 317.908 126.109 317.969 126.587C318.044 127.482 318.03 128.382 317.928 129.275C317.845 130.097 317.94 130.928 318.206 131.711C318.341 132.07 318.556 132.393 318.834 132.657C319.124 132.934 319.475 133.139 319.858 133.258C320.548 133.5 321.263 133.567 321.917 133.772C322.534 133.948 323.101 134.264 323.574 134.697C324.32 135.397 324.815 136.322 324.984 137.329C325.095 137.958 325.055 138.605 324.866 139.216C324.818 139.372 324.758 139.525 324.686 139.673L324.603 139.796Z" fill="#455A64"/>
<path d="M293.888 137.581C293.8 137.448 293.672 137.347 293.523 137.293C293.346 137.267 293.166 137.297 293.008 137.38L288.777 139.051C288.891 141.395 290.378 142.299 291.495 142.32C292.053 142.323 292.601 142.174 293.08 141.889C293.559 141.603 293.95 141.192 294.212 140.701C294.453 140.202 294.55 139.646 294.493 139.095C294.435 138.544 294.226 138.02 293.888 137.581Z" fill="#7B4B45"/>
<path d="M290.903 142.238C291.528 142.275 292.153 142.175 292.735 141.945C293.043 141.827 293.325 141.65 293.564 141.423C293.804 141.197 293.996 140.925 294.13 140.624C294.421 139.857 294.421 139.011 294.13 138.244C294.005 137.926 293.832 137.63 293.615 137.365L293.765 137.401C292.329 137.977 291.032 138.429 290.1 138.691C289.599 138.867 289.082 138.996 288.556 139.077C289.03 138.86 289.518 138.676 290.018 138.527C290.934 138.203 292.21 137.74 293.62 137.16L293.708 137.124L293.77 137.195C294.006 137.48 294.194 137.801 294.326 138.146C294.649 138.973 294.649 139.89 294.326 140.716C294.177 141.043 293.964 141.337 293.698 141.579C293.433 141.821 293.121 142.007 292.782 142.125C292.338 142.298 291.863 142.375 291.387 142.351C291.219 142.348 291.054 142.31 290.903 142.238Z" fill="#263238"/>
<path d="M105.726 206.452L112.849 204.396L121.681 201.065L128.695 197.267C128.695 197.267 129.308 196.66 128.448 195.905C127.589 195.149 123.775 197.261 123.775 197.261L120.754 198.387C120.754 198.387 118.181 198.593 118.351 198.356C118.521 198.12 122.468 196.208 122.468 196.208L129.205 192.548C129.205 192.548 131.104 191.566 130.517 190.307C130.234 189.711 129.534 189.356 128.243 189.85C126.951 190.343 124.913 191.623 124.182 191.906C123.451 192.188 119.287 194.07 119.287 194.07L127.913 188.169C127.913 188.169 130.723 186.498 129.823 185.316C128.922 184.134 127.208 185.434 126.22 185.83C125.232 186.226 119.823 189.665 117.712 190.621C115.906 191.443 116.343 190.759 116.343 190.759L121.459 187.603C123.719 186.21 125.432 184.828 123.961 183.913C123.003 183.317 118.675 185.619 118.675 185.619L112.283 189.187L109.236 190.533L111.773 188.261C112.985 187.372 113.943 186.181 114.552 184.807C115.443 182.612 113.636 182.541 113.636 182.541L103.209 189.665C101.588 191.078 99.6734 197.889 99.6734 197.889L79.5345 205.938L87.8824 218.135L105.726 206.452Z" fill="#FFBF9D"/>
<path d="M108.953 190.312C108.953 190.312 109.082 190.425 109.267 190.677C109.519 191.033 109.738 191.411 109.92 191.808C110.529 193.132 110.747 194.601 110.548 196.044C110.349 197.488 109.742 198.844 108.798 199.955C108.521 200.293 108.208 200.601 107.867 200.875C107.749 200.983 107.615 201.073 107.471 201.142C107.44 201.101 107.985 200.695 108.654 199.836C109.536 198.726 110.103 197.399 110.294 195.994C110.486 194.59 110.297 193.16 109.745 191.854C109.334 190.857 108.912 190.312 108.953 190.312Z" fill="#FF9A6C"/>
<path d="M108.402 162.515C108.557 161.78 109.308 161.348 109.946 160.906C111.041 160.112 111.897 159.035 112.422 157.79C112.947 156.545 113.121 155.181 112.926 153.844C112.68 152.506 112.079 151.259 111.186 150.233C110.292 149.207 109.139 148.439 107.846 148.01C107.184 147.868 106.552 147.612 105.978 147.254C104.661 146.226 105.083 144.201 104.583 142.628C103.523 139.298 98.6493 138.64 96.8994 135.597C95.834 133.741 96.1891 131.485 96.2869 129.342C96.3847 127.198 95.9678 124.741 94.079 123.688C93.0497 123.117 91.7887 123.081 90.7954 122.469C88.7368 121.21 88.8294 118.357 88.0729 116.106C86.8788 112.575 82.8078 110.21 79.0507 110.863C79.0507 110.863 80.5484 107.666 76.5906 106.026C71.8094 104.053 71.5057 107.394 69.303 105.312C68.0885 104.229 66.5481 103.581 64.9242 103.468C63.3002 103.356 61.6849 103.786 60.3323 104.69C59.5089 105.271 58.8192 106.032 57.9185 106.489C56.8223 107.054 55.5408 107.111 54.3159 107.373C49.6839 108.365 46.0812 112.739 46.1275 117.34L76.3076 168.647C77.3369 173.525 74.2952 175.715 78.5772 178.454C79.4728 179.025 85.901 180.721 86.9612 180.901C88.2787 181.127 91.4542 181.24 92.6791 180.711C95.3399 179.564 99.3698 177.822 100.399 175.185C101.844 175.783 103.438 175.921 104.964 175.578C106.49 175.236 107.872 174.431 108.922 173.273C109.902 172.089 110.472 170.621 110.548 169.087C110.624 167.553 110.202 166.036 109.344 164.761C108.871 164.067 108.227 163.327 108.402 162.515Z" fill="#263238"/>
<path d="M46.6782 125.034L46.2613 121.503L67.5737 115.484C74.2026 114.179 82.0821 120.049 83.1526 126.551C84.3364 133.777 85.4944 142.649 85.1444 148.139C84.4393 159.21 75.9936 161.384 75.9936 161.384L77.9442 180.212L77.6097 185.054L56.5083 166.637L46.6782 125.034Z" fill="#FFBF9D"/>
<path d="M80.9807 135.607C81.0183 135.976 80.9086 136.345 80.6754 136.634C80.4422 136.923 80.1043 137.108 79.7352 137.149C79.5557 137.181 79.3718 137.177 79.1938 137.138C79.0158 137.098 78.8474 137.024 78.6982 136.919C78.5491 136.815 78.422 136.682 78.3244 136.528C78.2268 136.374 78.1606 136.203 78.1295 136.024C78.0946 135.655 78.2054 135.288 78.4381 134.999C78.6707 134.711 79.007 134.525 79.375 134.482C79.5545 134.449 79.7387 134.452 79.9169 134.492C80.0952 134.531 80.2638 134.605 80.4132 134.71C80.5625 134.814 80.6896 134.947 80.787 135.102C80.8844 135.256 80.9503 135.428 80.9807 135.607Z" fill="#263238"/>
<path d="M81.2586 131.403C81.0991 131.603 79.9359 130.92 78.3919 131.064C76.8479 131.208 75.7877 132.092 75.6025 131.896C75.5098 131.824 75.6591 131.48 76.1171 131.084C76.7459 130.567 77.5183 130.255 78.3302 130.19C79.1336 130.117 79.9399 130.296 80.6359 130.704C81.1248 130.997 81.3204 131.315 81.2586 131.403Z" fill="#263238"/>
<path d="M66.848 136.959C66.8842 137.328 66.774 137.696 66.541 137.984C66.3081 138.273 65.9711 138.458 65.6025 138.501C65.4229 138.534 65.2384 138.531 65.06 138.492C64.8815 138.454 64.7125 138.38 64.563 138.275C64.4135 138.17 64.2864 138.036 64.1892 137.882C64.092 137.728 64.0265 137.555 63.9967 137.375C63.9577 137.007 64.0663 136.638 64.2986 136.349C64.531 136.06 64.8684 135.875 65.2371 135.833C65.4169 135.801 65.6012 135.805 65.7795 135.845C65.9578 135.884 66.1265 135.958 66.2761 136.063C66.4257 136.167 66.5532 136.3 66.6514 136.454C66.7495 136.608 66.8163 136.779 66.848 136.959Z" fill="#263238"/>
<path d="M66.076 133.084C65.9164 133.279 64.7481 132.595 63.2041 132.744C61.6601 132.893 60.5999 133.747 60.4146 133.577C60.3271 133.5 60.4713 133.156 60.9293 132.76C61.5585 132.247 62.328 131.935 63.1372 131.865C63.9421 131.795 64.7491 131.975 65.4481 132.379C65.9627 132.678 66.1532 132.991 66.076 133.084Z" fill="#263238"/>
<path d="M72.7821 143.729C72.7821 143.646 73.7136 143.394 75.2525 143.055C75.6436 142.983 76.0091 142.87 76.0502 142.603C76.0408 142.202 75.9098 141.813 75.6745 141.488L74.218 138.666C72.1851 134.646 70.6771 131.331 70.8418 131.254C71.0065 131.177 72.7924 134.369 74.8202 138.388L76.2304 141.225C76.5221 141.664 76.6479 142.193 76.5855 142.716C76.5399 142.858 76.4624 142.988 76.3589 143.096C76.2555 143.204 76.1288 143.286 75.9885 143.338C75.7756 143.415 75.5545 143.466 75.3297 143.492C73.7703 143.718 72.7975 143.816 72.7821 143.729Z" fill="#263238"/>
<path d="M75.9885 161.43C70.6044 162.007 65.1636 161.143 60.2242 158.927C60.2242 158.927 64.8253 166.591 76.3178 164.525L75.9885 161.43Z" fill="#FF9A6C"/>
<path d="M65.8959 127.147C65.7826 127.568 64.218 127.517 62.427 127.897C60.636 128.277 59.2155 128.894 58.9376 128.545C58.814 128.38 59.0302 127.974 59.5809 127.517C60.3294 126.956 61.1936 126.57 62.1106 126.385C63.0276 126.2 63.9743 126.221 64.882 126.448C65.5716 126.653 65.9422 126.946 65.8959 127.147Z" fill="#263238"/>
<path d="M80.2293 127.09C79.9874 127.455 78.8912 127.198 77.6097 127.301C76.3282 127.404 75.268 127.748 74.9797 127.414C74.8562 127.25 74.9797 126.9 75.4326 126.525C76.0246 126.067 76.7435 125.803 77.4913 125.769C78.2442 125.717 78.9951 125.896 79.6426 126.283C80.1624 126.576 80.3477 126.921 80.2293 127.09Z" fill="#263238"/>
<path d="M83.5695 118.45C80.7672 115.435 77.0714 113.396 73.024 112.631L54.9746 115.479L50.1625 118.44C49.7662 117.412 49.5089 116.748 49.5089 116.748C47.7384 115.613 42.916 113.32 39.0097 117.463C37.6046 118.959 36.565 122.824 36.6371 124.808C36.6679 125.564 36.7915 126.473 36.1224 126.915C35.8768 127.054 35.6084 127.148 35.3298 127.193C30.7647 128.319 27.7385 133.181 28.9891 137.401C29.0946 137.673 29.1436 137.963 29.1332 138.254C29.0038 138.702 28.7418 139.099 28.3818 139.395C27.3662 140.502 26.7367 141.907 26.5873 143.401C26.4379 144.894 26.7768 146.396 27.5532 147.681C28.0679 148.473 28.7163 149.223 28.9222 150.102C29.2876 151.7 28.0884 153.186 27.1723 154.584C24.4292 158.768 24.0843 164.694 27.7848 168.246C28.6803 169.11 29.8126 169.865 30.1934 171.006C30.3368 171.574 30.4009 172.159 30.3839 172.744C30.5228 175.694 32.3859 178.912 35.5305 179.426C37.2804 179.703 39.3648 179.164 40.6772 180.289C41.1647 180.823 41.5658 181.43 41.8661 182.088C43.302 184.473 46.7142 185.686 49.4934 184.746C52.2726 183.805 54.0688 180.911 53.513 178.233C56.8635 176.948 59.0868 173.53 58.7471 170.189C58.7471 170.189 56.7657 159.909 57.6252 157.036C58.4847 154.163 56.1378 148.298 54.8254 145.44C53.513 142.582 54.5269 135.777 54.6916 133.104C54.6698 132.329 54.5488 131.561 54.3313 130.817C54.1717 130.169 53.9659 129.439 53.7291 128.658C53.6274 127.942 53.5672 127.222 53.549 126.499C53.4564 123.96 56.1223 122.027 58.7729 122.726C59.4173 122.898 60.0822 122.981 60.7492 122.973C61.8039 122.958 62.8421 122.71 63.7891 122.246C64.736 121.782 65.5681 121.114 66.2252 120.29C67.5865 121.451 69.2183 122.25 70.9703 122.616C72.7223 122.982 74.5383 122.901 76.251 122.382C77.7538 124.13 79.2772 125.903 81.2175 127.229C83.1578 128.555 85.6024 129.413 87.9802 129.069C87.8139 125.12 86.2511 121.357 83.5695 118.45Z" fill="#263238"/>
<path d="M81.8248 122.001C81.7939 122.001 81.8248 121.601 81.7322 120.891C81.5853 119.878 81.2201 118.908 80.6617 118.049C79.8179 116.741 78.5438 115.769 77.059 115.299C76.1283 115.011 75.1486 114.915 74.1797 115.018C73.2108 115.12 72.273 115.419 71.4234 115.895L71.2999 115.967L71.1969 115.859C70.4493 115.062 69.5809 114.388 68.6236 113.86C66.5342 112.73 64.1295 112.322 61.7837 112.698C59.8743 113.018 58.092 113.864 56.637 115.14C55.6663 115.984 54.8572 116.998 54.249 118.131C53.8269 118.933 53.6725 119.416 53.6365 119.406C53.6532 119.284 53.6843 119.165 53.7291 119.051C53.8366 118.716 53.9655 118.388 54.1151 118.069C54.6897 116.889 55.4865 115.829 56.462 114.949C57.9306 113.616 59.747 112.725 61.7013 112.379C64.1229 111.982 66.608 112.404 68.7626 113.577C69.7566 114.116 70.6583 114.81 71.4337 115.633L71.2021 115.602C72.0951 115.103 73.0815 114.793 74.0998 114.691C75.1181 114.59 76.1464 114.698 77.1208 115.011C78.6709 115.511 79.9907 116.549 80.8418 117.936C81.4023 118.827 81.7427 119.838 81.8351 120.886C81.863 121.165 81.863 121.445 81.8351 121.724C81.8447 121.816 81.8413 121.91 81.8248 122.001Z" fill="#455A64"/>
<path d="M30.0596 139.031C31.5216 138.913 32.9701 138.666 34.3879 138.29C37.775 137.332 40.7858 135.359 43.0138 132.637L43.3998 132.148L43.4512 132.081H43.5336C45.3832 131.926 47.1504 131.249 48.6288 130.128C49.8295 129.239 50.8218 128.099 51.5366 126.787C52.1676 125.58 52.5673 124.265 52.7152 122.912C52.7152 122.912 52.7152 123.009 52.7152 123.194C52.7164 123.469 52.6993 123.744 52.6638 124.017C52.5294 125.024 52.2194 126 51.7477 126.9C51.0456 128.255 50.0506 129.437 48.8346 130.359C47.3142 131.543 45.4807 132.258 43.5593 132.415L43.6983 132.344L43.3071 132.858C42.0757 134.387 40.5802 135.684 38.8913 136.687C37.5103 137.516 36.0182 138.144 34.46 138.553C33.4097 138.832 32.3337 139.005 31.2485 139.067C30.8676 139.092 30.5691 139.067 30.3633 139.067C30.2608 139.069 30.1586 139.057 30.0596 139.031Z" fill="#455A64"/>
<path d="M32.6175 170.122C32.8299 170.294 33.0534 170.452 33.2866 170.595C33.5729 170.755 33.8792 170.876 34.1975 170.955C34.6344 171.055 35.0847 171.083 35.5305 171.037C36.0769 170.982 36.6043 170.807 37.0745 170.523C37.3419 170.358 37.583 170.153 37.7899 169.917C38.0071 169.66 38.181 169.371 38.3046 169.058C38.5797 168.364 38.6389 167.603 38.4744 166.874C38.2978 166.051 37.8277 165.32 37.1517 164.818L36.9562 164.679H37.1981C38.5391 164.658 39.8501 164.28 40.9963 163.584C42.2357 162.807 43.2897 161.769 44.0843 160.541C44.3056 160.233 44.4806 159.889 44.6762 159.554C44.8717 159.22 45.0313 158.861 45.1908 158.491C45.4947 157.75 45.7156 156.977 45.8496 156.188C46.1256 154.535 46.162 152.85 45.9577 151.187C45.6197 148.712 45.0932 146.267 44.3828 143.872V143.806L44.4394 143.77C46.8874 142.073 48.888 139.811 50.2706 137.175C50.8622 136.061 51.3448 134.892 51.7117 133.685C51.8558 133.114 52.0359 132.575 52.1234 132.04C52.1749 131.773 52.2263 131.526 52.2726 131.259C52.319 130.992 52.3395 130.745 52.3756 130.508C52.572 128.973 52.572 127.418 52.3756 125.882C52.319 125.343 52.2057 124.937 52.1697 124.659C52.144 124.525 52.1285 124.423 52.1131 124.34V124.232C52.256 124.773 52.371 125.32 52.4579 125.872C52.685 127.404 52.7075 128.96 52.5248 130.498C52.4939 130.745 52.4837 131.012 52.4322 131.259C52.3807 131.506 52.3344 131.773 52.2881 132.045C52.2057 132.585 52.0256 133.13 51.8815 133.705C51.5202 134.924 51.041 136.105 50.4507 137.231C49.0661 139.902 47.0505 142.196 44.5784 143.913L44.6195 143.811C45.3338 146.215 45.862 148.671 46.1996 151.156C46.4089 152.836 46.3725 154.538 46.0915 156.208C45.953 157.012 45.727 157.798 45.4173 158.552C45.2783 158.927 45.0827 159.277 44.9026 159.632C44.7225 159.986 44.5218 160.32 44.2953 160.66C43.4758 161.907 42.3917 162.96 41.1198 163.744C39.9542 164.442 38.6239 164.818 37.265 164.833L37.3113 164.694C38.0125 165.218 38.4992 165.978 38.6803 166.833C38.8465 167.589 38.7801 168.377 38.4899 169.094C38.3538 169.418 38.168 169.718 37.9392 169.984C37.7187 170.225 37.4659 170.434 37.1878 170.605C36.695 170.897 36.1424 171.073 35.5717 171.119C35.1162 171.16 34.6572 171.125 34.213 171.017C33.8904 170.929 33.5807 170.799 33.2917 170.631C33.1058 170.529 32.933 170.405 32.7771 170.261L32.6175 170.122Z" fill="#455A64"/>
<path d="M94.5062 176.434C94.5062 176.434 94.5422 176.404 94.6142 176.357L94.9385 176.152C95.1161 176.043 95.2879 175.924 95.4532 175.797C95.6907 175.639 95.9192 175.467 96.1377 175.283C97.5632 174.1 98.7046 172.612 99.4778 170.929C100.015 169.762 100.362 168.516 100.507 167.239C100.667 165.76 100.527 164.263 100.095 162.839C99.6147 161.243 98.8106 159.763 97.7331 158.491C96.5672 157.091 95.0952 155.978 93.4305 155.237L93.3018 155.181L93.4048 155.078C94.9355 153.545 95.9777 151.593 96.4001 149.47C96.5453 148.78 96.6194 148.078 96.6214 147.373C96.6307 146.683 96.5668 145.994 96.431 145.317C96.3051 144.649 96.1085 143.996 95.8443 143.369C95.5934 142.754 95.2831 142.165 94.9179 141.611C93.562 139.51 91.5395 137.925 89.1742 137.108L89.0816 137.077L89.1228 136.99C90.1304 134.882 90.3601 132.486 89.7712 130.226C89.3031 128.483 88.3566 126.906 87.0384 125.672C86.1907 124.869 85.2104 124.219 84.1408 123.749C83.7702 123.585 83.4769 123.477 83.2761 123.41L83.0548 123.333C83.0034 123.333 82.9776 123.323 82.9776 123.302C83.3825 123.401 83.7785 123.534 84.1614 123.698C85.2489 124.154 86.2472 124.797 87.1104 125.6C88.4569 126.837 89.4272 128.428 89.9102 130.19C90.5249 132.483 90.3005 134.92 89.2772 137.062L89.2308 136.944C91.6376 137.76 93.7013 139.358 95.0929 141.482C95.4633 142.049 95.7787 142.65 96.0347 143.276C96.3033 143.913 96.5051 144.577 96.6369 145.255C96.7751 145.947 96.839 146.652 96.8273 147.357C96.8279 148.076 96.7537 148.793 96.606 149.496C96.1774 151.659 95.1131 153.645 93.5489 155.201V155.042C95.2388 155.798 96.7321 156.933 97.9133 158.357C99.0019 159.65 99.813 161.153 100.296 162.772C100.73 164.219 100.865 165.739 100.692 167.239C100.309 170.42 98.6898 173.323 96.184 175.324C95.9599 175.508 95.7263 175.679 95.484 175.838C95.3195 175.962 95.1476 176.075 94.9694 176.177L94.6348 176.373L94.5062 176.434Z" fill="#455A64"/>
<path d="M68.6236 146.339C70.064 146.551 71.474 146.934 72.8233 147.48V147.516C72.6998 148.488 72.4527 149.572 71.6292 150.086C71.316 150.281 70.9574 150.389 70.5889 150.402C70.2205 150.415 69.8552 150.331 69.5294 150.158C69.2161 149.998 68.9432 149.77 68.7311 149.489C68.5189 149.209 68.3731 148.884 68.3045 148.539C68.2357 147.791 68.345 147.037 68.6236 146.339Z" fill="#FF9A6C"/>
<path d="M70.7852 150.297C70.7852 150.297 70.672 150.415 70.3992 150.457C70.0127 150.507 69.6204 150.429 69.2824 150.236C68.7704 149.959 68.3837 149.497 68.2016 148.945C67.9961 148.275 67.9961 147.559 68.2016 146.889C68.2467 146.702 68.3105 146.519 68.392 146.345C68.44 146.269 68.5089 146.21 68.5903 146.174C68.6717 146.137 68.7619 146.125 68.85 146.139C68.9388 146.158 69.0264 146.182 69.1125 146.211L70.0183 146.463L71.5623 146.92C72.0459 147.02 72.5111 147.193 72.9416 147.434C72.4446 147.443 71.9493 147.372 71.4749 147.224L69.9309 146.864L69.0147 146.632L68.7986 146.581C68.7986 146.617 68.7986 146.489 68.7986 146.504C68.7986 146.519 68.8809 146.581 68.85 146.566C68.798 146.702 68.7533 146.841 68.7162 146.982C68.5462 147.563 68.5373 148.18 68.6905 148.766C68.8272 149.231 69.1243 149.634 69.5294 149.901C69.9052 150.143 70.3388 150.279 70.7852 150.297Z" fill="#263238"/>
<path d="M40.1265 261.969H101.495L100.049 237.569L97.8772 208.302C97.4633 202.783 95.5329 197.484 92.2982 192.99L87.6302 186.503L81.8608 178.793L78.3096 171.844L56.2767 162.849L53.5541 168.462C53.5541 168.462 50.3478 170.76 48.2942 172.512C44.3004 175.92 41.9638 180.407 40.6309 185.45C40.6309 185.496 40.6309 185.547 40.5948 185.599C39.3082 190.549 40.3118 197.703 40.3118 197.703L47.6355 232.871C45.087 238.009 43.2202 243.458 42.0822 249.078C41.7683 250.64 40.7801 256.87 40.1265 261.969Z" fill="#455A64"/>
<path d="M79.2823 175.504C79.0745 175.238 78.9015 174.946 78.7677 174.635L77.5376 172.158H77.8464C77.1825 173.792 76.359 175.823 75.4326 178.095L75.3451 178.311L75.1187 178.223L71.6344 176.81C68.0317 175.35 64.8151 173.998 62.4836 173.001L59.7456 171.808C59.3973 171.68 59.067 171.507 58.7626 171.294C59.1168 171.366 59.462 171.476 59.7919 171.623L62.602 172.687C64.9695 173.602 68.2273 174.903 71.8094 176.362L75.2885 177.791L74.9746 177.92L77.5222 172.035L77.6766 171.675L77.831 172.029C78.2633 173.057 78.6236 173.88 78.9221 174.569C79.0783 174.865 79.1992 175.179 79.2823 175.504Z" fill="#263238"/>
<path d="M77.7486 246.642C77.3886 246.623 77.0324 246.559 76.6884 246.451C76.0142 246.302 75.0466 246.045 73.8629 245.691C67.689 243.838 61.8006 241.143 56.3642 237.683C55.3349 237.014 54.5063 236.454 53.9556 236.043C53.653 235.851 53.3733 235.625 53.1218 235.37C53.4567 235.5 53.7733 235.672 54.0637 235.884L56.5495 237.39C59.3008 239.017 62.1335 240.502 65.0364 241.841C67.9484 243.167 70.9271 244.343 73.9607 245.362L76.7296 246.266C77.0828 246.351 77.4249 246.477 77.7486 246.642Z" fill="#263238"/>
<path opacity="0.3" d="M42.7564 198.161C42.7564 198.161 54.0791 229.155 57.7847 234.768C61.4903 240.381 63.3431 241.964 69.0199 241.003C74.6967 240.042 99.622 231.854 99.622 231.854L99.2565 226.776L76.184 231.648L62.8696 228.919L50.7132 210.22L42.7564 198.161Z" fill="black"/>
<path d="M91.2535 210.22L89.9977 208.164L83.904 209.613L74.6864 211.669C74.6864 211.669 69.339 180.531 61.6087 175.535C53.8784 170.539 48.2273 171.423 43.477 180.238C38.7266 189.053 41.2845 194.183 41.2845 194.183C41.2845 194.183 53.585 228.503 61.6087 235.508C69.6323 242.514 96.0913 229.294 96.0913 229.294L101.454 224.848L91.2535 210.22Z" fill="#455A64"/>
<path d="M91.2535 210.22C91.3199 210.295 91.3818 210.374 91.4388 210.456L91.9534 211.181L93.9709 214.008L101.557 224.802L101.629 224.905L101.531 224.987L96.184 229.428C91.5974 231.67 86.8615 233.593 82.0101 235.185C79.2222 236.1 76.3722 236.814 73.4821 237.323C71.951 237.582 70.4027 237.727 68.8501 237.755C67.2267 237.808 65.6062 237.584 64.0585 237.092C63.663 236.961 63.2791 236.798 62.9108 236.603L62.355 236.305C62.18 236.187 62.0153 236.058 61.8403 235.93C61.5011 235.684 61.1919 235.4 60.919 235.082L60.0441 234.172C59.5294 233.535 59.0148 232.841 58.5001 232.173C57.9854 231.504 57.5737 230.759 57.1002 230.05C55.2828 227.08 53.6249 224.016 52.1337 220.87C49.0457 214.481 46.1944 207.66 43.4461 200.598C42.6175 198.454 41.8095 196.331 41.0581 194.255V194.281C40.3722 192.397 40.167 190.373 40.461 188.39C40.7228 186.469 41.2422 184.591 42.005 182.808C42.7266 181.053 43.625 179.375 44.6865 177.802C45.6963 176.219 47.0015 174.846 48.531 173.756C50.0749 172.697 51.9253 172.175 53.7961 172.271C55.5903 172.422 57.3381 172.92 58.9427 173.736C59.7147 174.142 60.4867 174.538 61.2073 175.006C61.9569 175.437 62.6371 175.98 63.2247 176.614C64.3072 177.875 65.2287 179.265 65.9679 180.752C67.342 183.545 68.4966 186.441 69.4213 189.413C70.3426 192.24 71.1146 194.98 71.7837 197.596C73.1218 202.833 74.0945 207.562 74.815 211.654L74.6452 211.546L84.0585 209.49L90.008 208.128H90.0492V208.159L90.9704 209.701C91.1711 210.045 91.2586 210.215 91.2586 210.215C91.2586 210.215 91.1403 210.06 90.9241 209.701L89.9565 208.159H90.0131L84.1202 209.608L74.7224 211.746L74.5834 211.782L74.5526 211.633C73.8063 207.562 72.8027 202.839 71.4646 197.622C70.7852 195.01 70.0029 192.281 69.0714 189.469C68.1312 186.528 66.9646 183.663 65.5819 180.901C64.8551 179.45 63.9528 178.093 62.8954 176.861C62.333 176.253 61.6824 175.734 60.9654 175.319C60.25 174.862 59.4934 174.471 58.7369 174.075C57.1901 173.294 55.5077 172.815 53.7806 172.667C52.0106 172.58 50.2613 173.079 48.8038 174.085C47.3252 175.141 46.0651 176.473 45.093 178.007C44.051 179.554 43.1681 181.202 42.4579 182.926C41.722 184.672 41.2218 186.508 40.9706 188.385C40.6928 190.275 40.8837 192.204 41.5264 194.003V194.029C42.2727 196.085 43.0704 198.223 43.9093 200.361C46.6525 207.413 49.4831 214.239 52.5711 220.602C54.05 223.735 55.6959 226.785 57.5017 229.741C57.9649 230.446 58.3817 231.181 58.881 231.849C59.3802 232.517 59.8537 233.19 60.3838 233.817L61.2227 234.696C61.4839 235.001 61.7792 235.276 62.1028 235.514C62.2623 235.632 62.4167 235.755 62.5763 235.863L63.0909 236.146C63.4396 236.331 63.8028 236.487 64.1769 236.614C65.6736 237.087 67.2394 237.306 68.8089 237.261C70.3423 237.238 71.8718 237.098 73.3843 236.845C76.2555 236.353 79.0868 235.652 81.8557 234.748C86.6957 233.188 91.4229 231.299 96.0039 229.094H95.973L101.362 224.75L101.336 224.935C98.1243 220.273 95.5973 216.604 93.8577 214.085L91.902 211.217C91.691 210.898 91.5314 210.657 91.3873 210.477C91.3353 210.395 91.2905 210.309 91.2535 210.22Z" fill="#263238"/>
<path d="M70.3271 227.367C70.2654 227.367 70.1521 226.452 70.183 224.956C70.2405 223.004 70.5237 221.066 71.0271 219.179C71.5259 217.291 72.239 215.467 73.1527 213.741C73.4957 212.998 73.9391 212.307 74.4702 211.685C74.5423 211.726 74.0893 212.528 73.4717 213.869C72.659 215.614 72.0011 217.427 71.5057 219.287C71.0198 221.14 70.6943 223.032 70.533 224.941C70.5163 225.753 70.4476 226.563 70.3271 227.367Z" fill="#263238"/>
<path d="M96.0914 229.304C96.0914 229.33 95.8237 229.109 95.412 228.693C95.0003 228.276 94.4238 227.665 93.729 226.873C91.919 224.831 90.2657 222.656 88.7831 220.366C87.2908 218.077 86.0811 215.615 85.1804 213.036C84.9094 212.256 84.6877 211.459 84.5165 210.651C84.4309 210.361 84.3859 210.06 84.3827 209.757C84.4702 209.757 84.7738 210.985 85.5098 212.918C86.495 215.433 87.7294 217.844 89.1948 220.114C90.6703 222.383 92.27 224.569 93.9864 226.662C94.735 227.505 95.4376 228.387 96.0914 229.304Z" fill="#263238"/>
<path d="M117.445 210.739L124.563 208.683L133.4 205.352L140.409 201.553C140.409 201.553 141.022 200.947 140.162 200.191C139.303 199.436 135.489 201.548 135.489 201.548L132.473 202.669C132.473 202.669 129.926 202.88 130.064 202.643C130.203 202.407 134.156 200.495 134.156 200.495L140.893 196.835C140.893 196.835 142.797 195.853 142.205 194.594C141.928 193.993 141.228 193.638 139.931 194.136C138.634 194.635 136.601 195.91 135.87 196.192C135.139 196.475 130.981 198.356 130.981 198.356L139.601 192.456C139.601 192.456 142.411 190.785 141.511 189.598C140.61 188.41 138.901 189.721 137.908 190.112C136.915 190.502 131.511 193.946 129.401 194.902C127.589 195.725 128.026 195.041 128.026 195.041L133.173 191.885C135.427 190.492 137.141 189.11 135.674 188.195C134.717 187.593 130.384 189.901 130.384 189.901L123.976 193.479L120.929 194.825L123.472 192.553C124.683 191.664 125.639 190.473 126.246 189.099C127.136 186.904 125.335 186.833 125.335 186.833L114.908 193.957C113.281 195.37 111.372 202.181 111.372 202.181L91.2535 209.921L99.8124 222.257L117.445 210.739Z" fill="#FFBF9D"/>
<path d="M117.445 210.739L117.146 210.944L116.256 211.541L112.808 213.818L99.8484 222.35L99.7815 222.396L99.7403 222.329L91.166 209.993L91.0939 209.891L91.2123 209.844L111.32 202.088L111.248 202.165C111.645 200.798 112.097 199.395 112.633 197.976C112.9 197.272 113.189 196.557 113.523 195.858C113.84 195.128 114.278 194.458 114.82 193.874L125.263 186.714H125.299H125.34C125.668 186.738 125.98 186.866 126.23 187.079C126.351 187.195 126.448 187.333 126.515 187.487C126.581 187.641 126.615 187.806 126.616 187.974C126.588 188.614 126.401 189.238 126.071 189.788C125.451 190.925 124.588 191.911 123.544 192.677L121.022 194.938L120.878 194.717L123.925 193.371L129.329 190.359C130.249 189.823 131.199 189.339 132.175 188.909C132.689 188.693 133.163 188.488 133.677 188.313C134.197 188.114 134.747 188.002 135.304 187.984C135.449 187.986 135.592 188.023 135.721 188.092C135.836 188.162 135.943 188.245 136.04 188.339C136.147 188.434 136.23 188.554 136.282 188.688C136.334 188.822 136.353 188.967 136.338 189.11C136.296 189.377 136.184 189.629 136.014 189.839C135.861 190.043 135.689 190.23 135.499 190.4C134.747 191.044 133.937 191.619 133.08 192.117L128.093 195.165L128.134 195.123C127.944 195.242 128.407 195.175 128.649 195.062C128.951 194.954 129.247 194.829 129.534 194.687C130.111 194.404 130.677 194.095 131.238 193.777C132.365 193.144 133.466 192.492 134.563 191.839L136.204 190.873C136.749 190.543 137.311 190.243 137.887 189.973C138.448 189.737 138.994 189.397 139.596 189.187C139.904 189.066 140.233 189.007 140.564 189.012C140.735 189.018 140.903 189.059 141.058 189.13C141.214 189.202 141.353 189.303 141.47 189.428C141.594 189.553 141.684 189.707 141.732 189.876C141.78 190.045 141.783 190.224 141.742 190.395C141.651 190.711 141.487 191.001 141.264 191.243C140.848 191.711 140.368 192.117 139.838 192.451C138.809 193.129 137.831 193.818 136.838 194.507L131.006 198.495L130.888 198.279L134.696 196.599C135.324 196.311 135.947 196.085 136.534 195.74L138.304 194.779C138.89 194.453 139.501 194.177 140.131 193.951C140.463 193.841 140.812 193.794 141.161 193.813C141.339 193.822 141.514 193.867 141.675 193.945C141.835 194.023 141.979 194.131 142.097 194.265C142.212 194.401 142.298 194.558 142.35 194.728C142.402 194.897 142.419 195.075 142.401 195.252C142.347 195.592 142.191 195.907 141.953 196.157C141.73 196.399 141.478 196.613 141.202 196.794C140.924 196.974 140.641 197.107 140.363 197.262C138.15 198.454 136.019 199.631 133.935 200.731C132.875 201.245 131.84 201.759 130.847 202.273C130.608 202.397 130.378 202.536 130.157 202.689C130.157 202.689 130.157 202.715 130.157 202.664C130.16 202.656 130.162 202.649 130.162 202.641C130.162 202.633 130.16 202.625 130.157 202.618H130.229H130.425H130.836C131.387 202.618 131.938 202.576 132.478 202.535H132.453L135.474 201.415C136.468 200.859 137.516 200.406 138.603 200.063C138.869 199.985 139.141 199.93 139.416 199.898C139.704 199.85 140.001 199.912 140.245 200.073C140.466 200.249 140.629 200.487 140.713 200.757C140.748 200.898 140.747 201.046 140.71 201.187C140.673 201.328 140.602 201.458 140.502 201.564L133.482 205.347L124.635 208.657L119.313 210.163L117.96 210.543L117.501 210.662L117.949 210.518L119.293 210.117L124.604 208.575L133.43 205.224L140.435 201.415C140.514 201.331 140.57 201.228 140.599 201.117C140.627 201.006 140.628 200.889 140.6 200.777C140.525 200.542 140.381 200.335 140.188 200.181C139.979 200.053 139.729 200.007 139.488 200.053C139.223 200.084 138.962 200.137 138.706 200.212C137.635 200.557 136.6 201.006 135.618 201.554L132.597 202.679C132.051 202.72 131.5 202.756 130.939 202.761C130.8 202.761 130.662 202.761 130.517 202.761C130.444 202.766 130.37 202.766 130.296 202.761C130.251 202.758 130.208 202.746 130.167 202.725L130.121 202.695C130.096 202.67 130.082 202.637 130.08 202.602C130.08 202.51 130.116 202.515 130.131 202.494C130.368 202.317 130.619 202.16 130.883 202.026C131.886 201.512 132.941 200.998 133.971 200.459C136.029 199.359 138.176 198.177 140.389 196.979C140.661 196.825 140.95 196.686 141.207 196.521C141.466 196.355 141.702 196.155 141.907 195.925C142.116 195.711 142.254 195.439 142.303 195.144C142.317 194.999 142.301 194.852 142.258 194.713C142.215 194.573 142.144 194.444 142.051 194.332C141.953 194.221 141.834 194.131 141.7 194.067C141.567 194.004 141.422 193.968 141.274 193.962C140.96 193.949 140.646 193.992 140.348 194.09C139.731 194.314 139.134 194.587 138.562 194.908L136.796 195.869C136.204 196.208 135.556 196.455 134.938 196.737L131.14 198.423L131.017 198.213L136.848 194.214C137.841 193.54 138.834 192.846 139.848 192.158C140.354 191.833 140.815 191.442 141.217 190.996C141.412 190.784 141.556 190.531 141.639 190.256C141.673 190.126 141.671 189.99 141.634 189.862C141.597 189.734 141.526 189.618 141.428 189.526C141.053 189.079 140.399 189.135 139.833 189.351C139.267 189.567 138.731 189.865 138.134 190.132C137.023 190.646 135.942 191.351 134.846 191.983C133.75 192.615 132.648 193.294 131.521 193.926C130.955 194.244 130.389 194.558 129.797 194.846C129.501 194.991 129.196 195.12 128.886 195.231C128.72 195.293 128.547 195.336 128.371 195.36C128.313 195.373 128.253 195.374 128.194 195.362C128.136 195.351 128.08 195.327 128.032 195.293C128 195.265 127.977 195.23 127.963 195.19C127.949 195.15 127.946 195.108 127.954 195.067C127.963 195.007 127.984 194.949 128.016 194.897H128.047L132.998 191.839C133.84 191.348 134.638 190.784 135.381 190.153C135.558 189.997 135.72 189.825 135.865 189.639C136.01 189.47 136.104 189.263 136.138 189.043C136.149 188.939 136.135 188.834 136.096 188.738C136.058 188.641 135.996 188.555 135.916 188.488C135.836 188.41 135.748 188.342 135.654 188.282C135.54 188.242 135.417 188.233 135.299 188.256C134.77 188.276 134.248 188.384 133.755 188.575C133.24 188.745 132.756 188.945 132.272 189.161C131.305 189.586 130.361 190.065 129.447 190.595L124.043 193.612L120.986 194.938L120.219 195.278L120.842 194.722L123.384 192.451C124.394 191.707 125.229 190.753 125.834 189.654C126.139 189.144 126.316 188.567 126.349 187.974C126.349 187.84 126.323 187.708 126.27 187.585C126.218 187.462 126.142 187.351 126.045 187.259C125.84 187.087 125.586 186.985 125.319 186.966L125.396 186.941L114.964 194.065C114.452 194.629 114.034 195.273 113.729 195.972C113.4 196.66 113.111 197.364 112.844 198.069C112.329 199.477 111.856 200.88 111.464 202.232V202.294H111.408L91.2844 210.004L91.3307 209.855L99.869 222.227L99.7609 222.201L112.772 213.73L116.235 211.484L117.131 210.908L117.445 210.739Z" fill="#FF9A6C"/>
</svg>
