<svg width="337" height="146" viewBox="0 0 337 146" fill="none" xmlns="http://www.w3.org/2000/svg">
<path d="M141.413 46.0266H130.316V102H117.634V46.0266H108.488V34.4417H117.634V11.7596H130.316V34.4417H141.413V46.0266ZM215.599 67.3672C215.599 69.481 215.477 71.5947 215.233 73.7084H159.259C160.56 79.0741 163.202 83.5048 167.186 87.0006C171.251 90.4151 176.007 92.1223 181.454 92.1223C185.437 92.1223 189.177 91.1061 192.673 89.0737C196.25 87.0412 198.933 84.2771 200.721 80.7813H213.404C210.802 87.6916 206.575 93.2605 200.721 97.488C194.868 101.634 188.283 103.707 180.966 103.707C171.454 103.707 163.324 100.171 156.577 93.0979C149.91 86.025 146.577 77.692 146.577 68.0989C146.577 58.2619 149.91 49.8882 156.577 42.9779C163.243 36.0676 171.454 32.6125 181.21 32.6125C190.722 32.6125 198.811 36.027 205.477 42.856C212.225 49.685 215.599 57.8554 215.599 67.3672ZM202.916 63.9527C202.591 58.4245 200.233 53.7499 195.843 49.9289C191.535 46.1079 186.616 44.1974 181.088 44.1974C175.56 44.1974 170.6 46.1079 166.21 49.9289C161.902 53.7499 159.585 58.4245 159.259 63.9527H202.916ZM257.5 45.6608C254.329 45.6608 251.28 46.4737 248.354 48.0997C243.395 50.6199 240.915 56.2701 240.915 65.0502V102H228.232V34.4417H240.061V40.539H240.305C243.882 35.4985 249.614 32.8564 257.5 32.6125V45.6608ZM331.948 67.3672C331.948 69.481 331.826 71.5947 331.582 73.7084H275.609C276.909 79.0741 279.552 83.5048 283.535 87.0006C287.6 90.4151 292.356 92.1223 297.803 92.1223C301.787 92.1223 305.526 91.1061 309.022 89.0737C312.599 87.0412 315.282 84.2771 317.07 80.7813H329.753C327.151 87.6916 322.924 93.2605 317.07 97.488C311.217 101.634 304.632 103.707 297.315 103.707C287.803 103.707 279.674 100.171 272.926 93.0979C266.259 86.025 262.926 77.692 262.926 68.0989C262.926 58.2619 266.259 49.8882 272.926 42.9779C279.592 36.0676 287.803 32.6125 297.559 32.6125C307.071 32.6125 315.16 36.027 321.826 42.856C328.574 49.685 331.948 57.8554 331.948 67.3672ZM319.266 63.9527C318.94 58.4245 316.583 53.7499 312.193 49.9289C307.884 46.1079 302.965 44.1974 297.437 44.1974C291.909 44.1974 286.95 46.1079 282.56 49.9289C278.251 53.7499 275.934 58.4245 275.609 63.9527H319.266Z" fill="#262626"/>
<path d="M90.9585 39.8073L90.7222 39.2312L90.2831 39.6727L81.5383 48.4637L81.3715 48.6314L81.4315 48.8601C82.1626 51.6472 82.5285 54.5268 82.5285 57.5C82.5285 76.7971 66.8434 92.4822 47.5463 92.4822C28.2026 92.4822 12.5178 76.7967 12.5178 57.5C12.5178 54.4797 12.8839 51.5539 13.6147 48.7676L13.6747 48.5388L13.508 48.3712L4.76319 39.5801L4.32265 39.1373L4.08728 39.7159C1.84725 45.2226 0.586667 51.1978 0.586667 57.5C0.586667 83.3611 21.6389 104.413 47.5 104.413C73.3611 104.413 94.4133 83.3611 94.4133 57.5C94.4133 51.2461 93.1998 45.2705 90.9585 39.8073ZM76.5836 38.066L76.8636 38.4836L77.2191 38.1281L85.1774 30.1699L85.4293 29.9179L85.2172 29.6316C76.6758 18.103 62.952 10.5867 47.5 10.5867C32.0949 10.5867 18.3709 18.0562 9.82908 29.5853L9.61693 29.8716L9.86892 30.1236L17.8271 38.0818L18.1827 38.4374L18.4627 38.0197C23.7675 30.1082 32.2273 24.4841 42.0116 22.9293C43.7942 22.6551 45.6236 22.5178 47.5 22.5178C49.3765 22.5178 51.2059 22.6551 52.9885 22.9293C62.818 24.484 71.2782 30.1537 76.5836 38.066Z" fill="#262626" stroke="#0F1011" stroke-width="0.826667"/>
<path d="M53.0667 57.877H53.48V57.4636L53.48 14.3875V13.9742H53.0667L41.9622 13.9742H41.5488V14.3875L41.5488 57.4636V57.877H41.9622H53.0667Z" fill="#262626" stroke="#0F1011" stroke-width="0.826667"/>
</svg>
