<svg width="390" height="322" viewBox="0 0 390 322" fill="none" xmlns="http://www.w3.org/2000/svg">
<path d="M358.642 236.763C358.534 236.709 358.479 236.601 358.534 236.546C361.187 228.411 368.011 222.12 376.352 220.168C376.46 220.168 376.569 220.222 376.569 220.331C376.569 220.439 376.514 220.548 376.406 220.548C368.228 222.446 361.512 228.628 358.858 236.655C358.858 236.763 358.75 236.817 358.642 236.763Z" fill="#263238"/>
<path d="M365.141 231.557C363.3 230.039 360.375 232.587 360.429 232.642C360.212 233.021 360.05 233.347 359.833 233.726C360.212 233.347 361.566 233.13 363.354 233.509C365.141 233.835 366.982 232.913 365.141 231.557Z" fill="#263238"/>
<path d="M359.671 227.381C357.829 225.971 356.909 229.062 358.1 230.527C359.238 231.991 359.833 233.184 359.833 233.726C359.996 233.347 360.158 232.967 360.375 232.587C360.267 232.587 361.35 228.791 359.671 227.381Z" fill="#263238"/>
<path d="M367.524 228.899C365.953 227.11 362.704 229.062 362.704 229.171C362.433 229.496 362.216 229.821 361.946 230.147C362.379 229.876 363.733 229.876 365.412 230.581C367.091 231.177 369.095 230.581 367.524 228.899Z" fill="#263238"/>
<path d="M362.812 223.856C361.242 222.12 359.833 224.995 360.754 226.622C361.621 228.249 362.054 229.496 361.946 230.038C362.162 229.713 362.379 229.388 362.65 229.008C362.541 229.062 364.22 225.591 362.812 223.856Z" fill="#263238"/>
<path d="M370.286 226.676C369.04 224.615 365.52 226.025 365.52 226.134C365.195 226.405 364.924 226.676 364.599 226.947C365.087 226.73 366.387 227.001 367.957 227.978C369.474 228.845 371.532 228.628 370.286 226.676Z" fill="#263238"/>
<path d="M366.441 220.927C365.141 218.975 363.3 221.578 364.004 223.314C364.599 225.049 364.816 226.351 364.599 226.893C364.87 226.622 365.141 226.296 365.466 226.025C365.358 226.025 367.578 222.88 366.441 220.927Z" fill="#263238"/>
<path d="M373.373 224.995C372.507 222.771 368.77 223.53 368.77 223.639C368.445 223.856 368.066 224.073 367.741 224.29C368.282 224.181 369.528 224.669 370.882 225.862C372.236 227.001 374.294 227.055 373.373 224.995Z" fill="#263238"/>
<path d="M370.557 218.649C369.636 216.48 367.361 218.758 367.741 220.602C368.066 222.446 368.011 223.747 367.741 224.235C368.066 223.964 368.39 223.747 368.715 223.53C368.607 223.476 371.369 220.765 370.557 218.649Z" fill="#263238"/>
<path d="M376.731 223.802C376.244 221.47 372.398 221.632 372.398 221.687C372.019 221.849 371.64 222.012 371.261 222.175C371.803 222.121 372.94 222.826 374.077 224.236C375.269 225.591 377.273 226.025 376.731 223.802Z" fill="#263238"/>
<path d="M375.052 217.131C374.51 214.853 371.857 216.697 371.911 218.595C371.911 220.439 371.64 221.741 371.315 222.175C371.694 222.012 372.019 221.795 372.398 221.632C372.29 221.524 375.485 219.3 375.052 217.131Z" fill="#263238"/>
<path d="M374.565 220.819C374.51 220.765 377.381 218.812 379.277 218.541C381.118 218.161 381.822 219.463 381.497 220.222C381.226 220.982 379.926 221.198 378.789 221.144C377.76 220.982 374.619 220.765 374.565 220.819Z" fill="#263238"/>
<path d="M374.51 220.927C374.456 220.873 374.402 220.819 374.456 220.765C374.456 220.71 374.456 220.71 374.51 220.71C374.998 220.277 377.652 218.65 379.276 218.433C380.197 218.27 380.955 218.487 381.389 219.029C381.714 219.409 381.822 219.951 381.659 220.331C381.28 221.361 379.385 221.361 378.843 221.307C377.814 221.144 374.89 220.982 374.619 220.982C374.565 220.927 374.565 220.927 374.51 220.927ZM380.685 218.758C380.36 218.65 379.926 218.541 379.331 218.704C377.868 218.921 375.756 220.222 374.944 220.71C375.215 220.71 375.648 220.765 376.298 220.819C377.164 220.873 378.247 220.982 378.843 221.036C379.872 221.09 381.118 220.927 381.389 220.222C381.497 219.897 381.443 219.463 381.172 219.192C381.118 219.029 380.955 218.867 380.685 218.758Z" fill="#263238"/>
<path d="M358.75 236.601C358.642 236.655 358.534 236.601 358.479 236.492C354.309 229.008 354.363 219.734 358.642 212.25C358.696 212.142 358.804 212.142 358.913 212.196C359.021 212.25 359.021 212.358 358.967 212.467C354.797 219.788 354.742 228.954 358.858 236.329C358.913 236.438 358.858 236.546 358.75 236.601Z" fill="#263238"/>
<path d="M359.4 228.249C357.017 228.574 356.909 232.425 357.017 232.425C357.125 232.804 357.288 233.184 357.396 233.618C357.396 233.076 358.154 231.937 359.617 230.906C361.025 229.876 361.621 227.869 359.4 228.249Z" fill="#263238"/>
<path d="M352.576 229.496C350.247 229.876 351.926 232.642 353.822 232.75C355.663 232.913 356.963 233.238 357.342 233.672C357.18 233.292 357.017 232.913 356.855 232.533C356.8 232.533 354.797 229.171 352.576 229.496Z" fill="#263238"/>
<path d="M359.075 224.724C356.692 224.615 355.88 228.357 355.988 228.412C356.042 228.791 356.096 229.225 356.151 229.605C356.259 229.062 357.18 228.086 358.804 227.327C360.429 226.568 361.35 224.724 359.075 224.724Z" fill="#263238"/>
<path d="M352.143 224.778C349.814 224.778 350.951 227.761 352.793 228.195C354.58 228.628 355.771 229.225 356.096 229.659C355.988 229.279 355.934 228.845 355.826 228.466C355.771 228.466 354.363 224.886 352.143 224.778Z" fill="#263238"/>
<path d="M359.346 221.199C357.017 220.711 355.609 224.236 355.663 224.29C355.663 224.67 355.663 225.103 355.663 225.483C355.826 224.995 356.909 224.182 358.696 223.748C360.375 223.26 361.566 221.578 359.346 221.199Z" fill="#263238"/>
<path d="M352.522 220.114C350.193 219.734 350.843 222.88 352.63 223.531C354.309 224.29 355.392 225.049 355.663 225.483C355.609 225.103 355.609 224.67 355.609 224.29C355.446 224.344 354.688 220.548 352.522 220.114Z" fill="#263238"/>
<path d="M360.158 217.782C357.938 216.914 355.988 220.168 356.042 220.222C355.934 220.602 355.88 221.036 355.826 221.415C356.096 220.927 357.288 220.331 359.075 220.168C360.862 219.951 362.325 218.541 360.158 217.782Z" fill="#263238"/>
<path d="M353.659 215.558C351.439 214.799 351.547 217.999 353.172 218.975C354.688 220.005 355.663 220.927 355.826 221.415C355.88 221.036 355.934 220.602 355.988 220.222C355.826 220.222 355.717 216.372 353.659 215.558Z" fill="#263238"/>
<path d="M361.621 214.474C359.563 213.226 357.071 216.155 357.125 216.209C356.963 216.589 356.855 216.968 356.692 217.348C357.017 216.914 358.317 216.535 360.104 216.697C361.891 216.806 363.624 215.613 361.621 214.474Z" fill="#263238"/>
<path d="M355.555 211.22C353.497 210.081 353.063 213.281 354.472 214.528C355.826 215.775 356.584 216.86 356.638 217.402C356.746 217.023 356.855 216.643 356.963 216.263C356.909 216.209 357.45 212.359 355.555 211.22Z" fill="#263238"/>
<path d="M357.938 214.04C357.884 214.04 358.425 210.623 359.454 208.996C360.429 207.423 361.891 207.749 362.216 208.508C362.595 209.267 361.837 210.352 361.025 211.111C360.267 211.816 357.938 213.986 357.938 214.04Z" fill="#263238"/>
<path d="M357.992 214.148C357.938 214.148 357.884 214.148 357.829 214.094C357.829 214.04 357.775 214.04 357.829 213.986C357.829 213.335 358.479 210.298 359.4 208.942C359.888 208.183 360.592 207.749 361.242 207.749C361.729 207.803 362.162 208.074 362.379 208.454C362.866 209.43 361.566 210.786 361.187 211.165C360.375 211.816 358.263 213.823 358.046 214.04C358.046 214.148 358.046 214.148 357.992 214.148ZM360.537 208.183C360.212 208.345 359.888 208.617 359.563 209.105C358.75 210.352 358.209 212.738 358.1 213.66C358.317 213.443 358.588 213.172 359.075 212.738C359.725 212.142 360.537 211.382 360.971 211.003C361.729 210.298 362.433 209.267 362.108 208.562C361.946 208.237 361.621 208.02 361.187 208.02C361.079 208.02 360.808 208.02 360.537 208.183Z" fill="#263238"/>
<path d="M36.1783 236.763C36.2325 236.709 36.2866 236.655 36.2866 236.546C34.1203 229.876 28.5419 224.778 21.7178 223.151C21.6095 223.151 21.5553 223.205 21.5012 223.259C21.5012 223.368 21.5553 223.422 21.6095 223.476C28.3252 225.049 33.7953 230.093 35.9617 236.655C36.0158 236.763 36.07 236.818 36.1783 236.763Z" fill="#263238"/>
<path d="M30.8165 232.479C32.333 231.232 34.716 233.292 34.6618 233.347C34.8243 233.618 34.9868 233.943 35.1493 234.214C34.8243 233.889 33.7411 233.726 32.2788 234.052C30.8707 234.377 29.3542 233.618 30.8165 232.479Z" fill="#263238"/>
<path d="M35.3659 229.116C36.8824 227.923 37.6406 230.472 36.6116 231.665C35.6909 232.859 35.1493 233.835 35.2034 234.269C35.0951 233.943 34.9327 233.672 34.7702 233.347C34.8243 233.347 33.9578 230.255 35.3659 229.116Z" fill="#263238"/>
<path d="M28.921 230.31C30.2208 228.845 32.8746 230.418 32.8204 230.527C33.0371 230.798 33.2537 231.015 33.4162 231.286C33.0371 231.069 31.9539 231.069 30.5999 231.611C29.2459 232.208 27.6212 231.72 28.921 230.31Z" fill="#263238"/>
<path d="M32.7663 226.242C34.0661 224.832 35.2034 227.218 34.4452 228.52C33.7412 229.821 33.362 230.906 33.4704 231.34C33.3079 231.069 33.0912 230.798 32.9288 230.526C32.9829 230.472 31.5748 227.598 32.7663 226.242Z" fill="#263238"/>
<path d="M26.6463 228.52C27.6753 226.839 30.5458 227.977 30.5458 228.032C30.8166 228.249 31.0332 228.465 31.304 228.682C30.8707 228.52 29.8417 228.737 28.596 229.496C27.2962 230.309 25.6173 230.092 26.6463 228.52Z" fill="#263238"/>
<path d="M29.7875 223.856C30.8166 222.229 32.333 224.398 31.7914 225.808C31.304 227.218 31.1415 228.303 31.304 228.737C31.0874 228.52 30.8707 228.249 30.5999 228.032C30.7082 227.977 28.8668 225.429 29.7875 223.856Z" fill="#263238"/>
<path d="M24.1008 227.11C24.8049 225.32 27.892 225.917 27.892 226.025C28.1628 226.188 28.4336 226.351 28.7044 226.567C28.2711 226.459 27.2421 226.839 26.1589 227.815C25.0757 228.791 23.3968 228.845 24.1008 227.11Z" fill="#263238"/>
<path d="M26.4297 221.958C27.1879 220.222 29.0293 222.066 28.7585 223.585C28.4877 225.049 28.5419 226.134 28.7585 226.513C28.4877 226.296 28.2169 226.134 27.9461 225.917C28.0003 225.917 25.7798 223.693 26.4297 221.958Z" fill="#263238"/>
<path d="M21.3929 226.188C21.8261 224.29 24.9132 224.398 24.9674 224.452C25.2923 224.561 25.5631 224.724 25.8881 224.832C25.4548 224.832 24.4799 225.374 23.5592 226.513C22.5844 227.652 20.9596 227.977 21.3929 226.188Z" fill="#263238"/>
<path d="M22.801 220.71C23.2884 218.866 25.4548 220.385 25.4007 221.904C25.4007 223.422 25.6173 224.507 25.8881 224.832C25.6173 224.669 25.2923 224.507 25.0215 224.398C25.0215 224.344 22.4219 222.5 22.801 220.71Z" fill="#263238"/>
<path d="M23.126 223.748C23.1801 223.748 20.7971 222.121 19.2807 221.849C17.7642 221.578 17.2226 222.609 17.4392 223.259C17.6559 223.91 18.7391 224.073 19.6598 224.019C20.5263 223.856 23.126 223.693 23.126 223.748Z" fill="#263238"/>
<path d="M23.1801 223.856C23.2343 223.802 23.2343 223.802 23.2343 223.748C23.2343 223.693 23.2343 223.693 23.1801 223.693C22.801 223.314 20.6346 222.012 19.2807 221.795C18.5224 221.632 17.9267 221.795 17.5476 222.283C17.2768 222.609 17.2226 223.042 17.3309 223.368C17.6559 224.236 19.1723 224.181 19.6056 224.181C20.4722 224.073 22.8552 223.91 23.0718 223.91C23.126 223.856 23.1801 223.856 23.1801 223.856ZM18.1975 222.012C18.4683 221.904 18.7932 221.849 19.2807 221.958C20.4722 222.175 22.2053 223.205 22.8552 223.639C22.6385 223.639 22.2594 223.693 21.7178 223.693C21.0138 223.748 20.093 223.802 19.6598 223.91C18.7932 223.964 17.8184 223.802 17.6017 223.259C17.4934 222.988 17.5476 222.663 17.7642 222.392C17.8184 222.229 17.9267 222.121 18.1975 222.012Z" fill="#263238"/>
<path d="M36.07 236.655C36.1241 236.709 36.2325 236.655 36.2866 236.6C39.6986 230.472 39.6445 222.88 36.1783 216.805C36.1241 216.751 36.0158 216.697 35.9617 216.751C35.9075 216.805 35.8533 216.914 35.9075 216.968C39.3195 222.934 39.3737 230.418 36.0158 236.438C35.9617 236.492 35.9617 236.6 36.07 236.655Z" fill="#263238"/>
<path d="M35.5826 229.821C37.5323 230.093 37.6406 233.238 37.5323 233.238C37.424 233.564 37.3156 233.889 37.2073 234.214C37.2073 233.78 36.6116 232.858 35.3659 231.991C34.2286 231.123 33.7411 229.496 35.5826 229.821Z" fill="#263238"/>
<path d="M41.1068 230.798C43.0024 231.123 41.6484 233.401 40.0778 233.455C38.5613 233.563 37.5323 233.889 37.2073 234.214C37.3698 233.889 37.4781 233.618 37.5865 233.292C37.6948 233.346 39.3195 230.581 41.1068 230.798Z" fill="#263238"/>
<path d="M35.8534 226.947C37.8031 226.893 38.453 229.93 38.3988 229.984C38.3447 230.309 38.2905 230.635 38.2364 230.96C38.1822 230.526 37.3698 229.713 36.07 229.116C34.716 228.411 33.9578 226.947 35.8534 226.947Z" fill="#263238"/>
<path d="M41.4859 226.947C43.3815 226.947 42.4608 229.388 40.9443 229.713C39.482 230.093 38.5072 230.526 38.2364 230.906C38.2905 230.581 38.3988 230.255 38.453 229.93C38.5072 229.984 39.6445 227.055 41.4859 226.947Z" fill="#263238"/>
<path d="M35.6367 224.019C37.5323 223.639 38.6696 226.513 38.6155 226.568C38.6155 226.893 38.6155 227.218 38.6155 227.544C38.453 227.11 37.5864 226.459 36.1783 226.134C34.7702 225.7 33.7953 224.344 35.6367 224.019Z" fill="#263238"/>
<path d="M41.1609 223.151C43.0565 222.825 42.5149 225.374 41.1068 225.971C39.7528 226.568 38.8321 227.218 38.6696 227.598C38.6696 227.273 38.7238 226.947 38.7238 226.622C38.7779 226.622 39.3737 223.531 41.1609 223.151Z" fill="#263238"/>
<path d="M34.9327 221.253C36.7741 220.548 38.3447 223.205 38.2905 223.259C38.3447 223.585 38.3988 223.91 38.453 224.236C38.2364 223.856 37.2615 223.368 35.7992 223.259C34.3369 223.042 33.1454 221.849 34.9327 221.253Z" fill="#263238"/>
<path d="M40.2403 219.409C42.0275 218.758 41.9734 221.415 40.6194 222.175C39.3737 222.988 38.5613 223.747 38.453 224.181C38.3989 223.856 38.3989 223.53 38.3447 223.205C38.453 223.259 38.5613 220.114 40.2403 219.409Z" fill="#263238"/>
<path d="M33.7411 218.541C35.4201 217.565 37.4781 219.897 37.424 220.005C37.5323 220.331 37.6406 220.602 37.7489 220.927C37.4781 220.602 36.3949 220.276 34.9326 220.385C33.5245 220.439 32.1164 219.463 33.7411 218.541Z" fill="#263238"/>
<path d="M38.7238 215.884C40.4027 214.962 40.7818 217.565 39.5903 218.595C38.5071 219.626 37.8572 220.493 37.8031 220.927C37.6947 220.602 37.6406 220.277 37.5323 219.951C37.5864 220.005 37.1532 216.806 38.7238 215.884Z" fill="#263238"/>
<path d="M36.7199 218.216C36.7741 218.216 36.3408 215.395 35.4742 214.094C34.6619 212.792 33.4704 213.118 33.1996 213.714C32.8746 214.311 33.5245 215.179 34.1744 215.829C34.8785 216.372 36.7741 218.161 36.7199 218.216Z" fill="#263238"/>
<path d="M36.7199 218.324C36.7741 218.324 36.8282 218.324 36.8282 218.27C36.8282 218.27 36.8282 218.216 36.8282 218.161C36.8282 217.619 36.2866 215.124 35.5284 214.04C35.1493 213.389 34.5535 213.063 34.0119 213.063C33.5787 213.063 33.2537 213.335 33.0912 213.66C32.7121 214.474 33.7411 215.558 34.0661 215.884C34.716 216.426 36.5033 218.053 36.6116 218.216C36.6657 218.27 36.6657 218.27 36.7199 218.324ZM34.6077 213.389C34.8785 213.497 35.1493 213.714 35.3659 214.148C36.07 215.179 36.4491 217.131 36.5574 217.89C36.3949 217.728 36.1242 217.511 35.745 217.131C35.2576 216.643 34.5535 216.046 34.1744 215.721C33.5787 215.124 32.9829 214.311 33.2537 213.714C33.362 213.443 33.687 213.28 34.0119 213.28C34.1744 213.28 34.3911 213.28 34.6077 213.389Z" fill="#263238"/>
<path d="M382.201 236.763H11.8067" stroke="#263238" stroke-miterlimit="10" stroke-linecap="round" stroke-linejoin="round"/>
<path d="M291.972 176.348H102.902C90.9874 176.348 81.2929 166.64 81.2929 154.709V63.2182C81.2929 51.287 90.9874 41.5793 102.902 41.5793H291.972C303.887 41.5793 313.581 51.287 313.581 63.2182V154.655C313.581 166.64 303.887 176.348 291.972 176.348Z" fill="white"/>
<path d="M292.026 44.7791H102.577C92.0705 44.7791 83.5676 53.2936 83.5676 63.8148V96.8968V122.223V154.004C83.5676 164.525 92.0705 173.04 102.577 173.04H291.972C302.479 173.04 310.982 164.525 310.982 154.004V63.8148C311.036 53.2936 302.533 44.7791 292.026 44.7791Z" fill="#E7FFE8"/>
<path d="M222.323 94.4021H162.423V66.8518C162.423 66.3637 162.153 65.9298 161.719 65.7129L116.009 44.7791H109.997L159.932 67.6653V94.4021H83.6217V96.8968H114.276C111.839 121.79 123.537 136.378 133.936 144.242C142.872 151.021 152.187 154.058 155.978 155.089L144.605 173.04H147.53L167.948 140.825H204.342L198.493 173.04H201.039L214.904 96.8968H221.728L282.494 173.04H285.69L258.231 138.602L293.705 112.353C294.03 112.136 294.193 111.757 294.193 111.377C294.193 111.268 294.192 111.16 294.138 111.052L283.577 69.6719H311.036V67.1772H259.476C258.989 67.1772 258.556 67.4484 258.339 67.8822L253.627 77.156L236.296 61.2658L242.633 44.7791H239.979L233.697 61.1574C233.534 61.6455 233.643 62.1878 234.022 62.5132L252.49 79.4338L236.405 111.268L223.298 94.8359C223.082 94.5648 222.702 94.4021 222.323 94.4021ZM260.235 69.6719H280.978L291.539 110.835L256.66 136.649L238.138 113.438L260.235 69.6719ZM212.412 96.8968L204.83 138.385H169.518L195.839 96.8968H212.412ZM192.861 96.8968L157.386 152.865C154.462 152.106 144.659 149.231 135.452 142.235C121.1 131.335 114.817 116.095 116.821 96.8968H192.861Z" fill="white"/>
<path d="M196.706 44.7791V48.5211L220.265 57.9576V76.7764L197.248 66.8518V81.4947H174.772V59.5304L146.23 44.7791H196.706Z" fill="#D6ECD7"/>
<path d="M105.589 149.518V168.229H121.133V149.518H105.589Z" fill="#D6ECD7"/>
<path d="M105.577 132.965V146.415H116.788V132.965H105.577Z" fill="#D6ECD7"/>
<path d="M155.166 147.225L185.008 100.964H122.4C122.4 100.964 119.204 134.046 155.166 147.225Z" fill="#D6ECD7"/>
<path d="M105.617 120.245V128.977H112.875V120.245H105.617Z" fill="#D6ECD7"/>
<path d="M251.894 104.001L263.701 120.868L281.14 111.485L279.245 77.861L263.105 75.9629L257.473 89.0872L266.192 94.6732L263.105 100.259L253.736 95.2698L251.894 104.001Z" fill="#D6ECD7"/>
<path d="M216.745 157.963H250.378L258.068 173.04H216.041L216.745 157.963Z" fill="#D6ECD7"/>
<path d="M237.65 132.799H217.936L216.962 153.787H248.266L237.65 132.799Z" fill="#D6ECD7"/>
<path d="M218.099 129.653H236.026L229.689 117.125H218.695L218.099 129.653Z" fill="#D6ECD7"/>
<path d="M116.334 45.9722L117.038 46.2976" stroke="#263238" stroke-linejoin="round"/>
<path d="M118.554 47.0027L159.553 65.9842" stroke="#263238" stroke-linejoin="round" stroke-dasharray="3.03 3.03"/>
<path d="M160.311 66.3638L161.015 66.6892V67.5027" stroke="#263238" stroke-linejoin="round"/>
<path d="M161.015 69.1296V93.914" stroke="#263238" stroke-linejoin="round" stroke-dasharray="2.95 2.95"/>
<path d="M161.015 94.7275V95.541H160.203" stroke="#263238" stroke-linejoin="round"/>
<path d="M158.578 95.541H117.2" stroke="#263238" stroke-linejoin="round" stroke-dasharray="3 3"/>
<path d="M116.388 95.541H115.576C115.576 95.541 115.521 95.8122 115.413 96.3545" stroke="#263238" stroke-linejoin="round"/>
<path d="M115.196 97.9272C114.33 104.489 113.518 123.362 128.845 138.385C139.46 148.798 152.295 152.757 156.682 153.895" stroke="#263238" stroke-linejoin="round" stroke-dasharray="2.97 2.97"/>
<path d="M157.441 154.004C157.928 154.112 158.253 154.167 158.253 154.167L158.686 153.462" stroke="#263238" stroke-linejoin="round"/>
<path d="M159.553 152.106L194.648 96.7883" stroke="#263238" stroke-linejoin="round" stroke-dasharray="3.06 3.06"/>
<path d="M195.081 96.0832L195.515 95.4324H196.327" stroke="#263238" stroke-linejoin="round"/>
<path d="M197.952 95.4324H219.94" stroke="#263238" stroke-linejoin="round" stroke-dasharray="3.01 3.01"/>
<path d="M220.753 95.4324H221.565L222.107 96.0832" stroke="#263238" stroke-linejoin="round"/>
<path d="M223.081 97.2764L260.343 143.862" stroke="#263238" stroke-linejoin="round" stroke-dasharray="2.93 2.93"/>
<path d="M260.83 144.513L261.318 145.11" stroke="#263238" stroke-linejoin="round"/>
<path d="M116.496 98.1983L110.106 102.862L104.256 98.361C101.603 96.4629 99.8695 93.3716 99.8695 89.9007C99.8695 84.152 104.527 79.5422 110.214 79.5422C115.955 79.5422 120.558 84.2063 120.558 89.9007C120.612 93.3174 119.042 96.3002 116.496 98.1983Z" fill="white" stroke="#455A64" stroke-width="0.2" stroke-miterlimit="10" stroke-linecap="round" stroke-linejoin="round"/>
<path d="M101.169 89.7923C101.169 92.0158 101.982 94.0224 103.281 95.5952C104.96 97.6018 107.452 98.9034 110.322 98.9034C112.922 98.9034 115.251 97.8187 116.93 96.0833C118.5 94.4563 119.421 92.2327 119.421 89.7923C119.421 84.7486 115.359 80.6812 110.322 80.6812C105.231 80.6812 101.169 84.8028 101.169 89.7923Z" fill="#04BF68" stroke="#455A64" stroke-width="0.2" stroke-miterlimit="10" stroke-linejoin="round"/>
<path d="M110.268 98.9576C112.543 98.9576 114.601 98.1441 116.171 96.7883C115.846 93.697 113.301 91.3108 110.106 91.3108C107.018 91.3108 104.473 93.5886 104.094 96.5714C105.719 98.0357 107.885 98.9576 110.268 98.9576Z" fill="#263238" stroke="#455A64" stroke-width="0.2" stroke-miterlimit="10" stroke-linejoin="round"/>
<path d="M114.041 87.7992C114.396 85.6114 112.912 83.5499 110.727 83.1949C108.542 82.8398 106.483 84.3255 106.129 86.5134C105.774 88.7012 107.258 90.7627 109.443 91.1178C111.628 91.4728 113.686 89.9871 114.041 87.7992Z" fill="#263238" stroke="#455A64" stroke-width="0.2" stroke-miterlimit="10" stroke-linejoin="round"/>
<path d="M189.99 125.261L183.6 129.925L177.75 125.423C175.097 123.525 173.363 120.434 173.363 116.963C173.363 111.214 178.021 106.604 183.708 106.604C189.449 106.604 194.052 111.269 194.052 116.963C194.106 120.38 192.536 123.362 189.99 125.261Z" fill="white" stroke="#455A64" stroke-width="0.2" stroke-miterlimit="10" stroke-linecap="round" stroke-linejoin="round"/>
<path d="M174.663 116.855C174.663 119.078 175.476 121.085 176.775 122.657C178.454 124.664 180.946 125.966 183.816 125.966C186.416 125.966 188.745 124.881 190.424 123.146C191.994 121.519 192.915 119.295 192.915 116.855C192.915 111.811 188.853 107.743 183.816 107.743C178.725 107.743 174.663 111.811 174.663 116.855Z" fill="#04BF68" stroke="#455A64" stroke-width="0.2" stroke-miterlimit="10" stroke-linejoin="round"/>
<path d="M183.762 125.966C186.037 125.966 188.095 125.152 189.665 123.796C189.395 120.705 186.795 118.319 183.599 118.319C180.512 118.319 177.967 120.597 177.588 123.579C179.213 125.044 181.379 125.966 183.762 125.966Z" fill="#263238" stroke="#455A64" stroke-width="0.2" stroke-miterlimit="10" stroke-linejoin="round"/>
<path d="M183.6 118.21C185.813 118.21 187.607 116.414 187.607 114.197C187.607 111.981 185.813 110.184 183.6 110.184C181.386 110.184 179.592 111.981 179.592 114.197C179.592 116.414 181.386 118.21 183.6 118.21Z" fill="#263238" stroke="#455A64" stroke-width="0.2" stroke-miterlimit="10" stroke-linejoin="round"/>
<path d="M236.134 122.278C235.538 122.929 235.051 123.634 235.051 123.905C235.051 124.176 238.084 128.298 238.463 128.786C238.896 129.274 240.033 130.25 240.033 130.25L248.266 140.283C247.995 140.392 247.291 140.717 247.182 140.771C247.02 140.88 247.399 141.151 247.832 141.205C248.266 141.259 248.915 141.042 248.915 141.042L253.844 146.791C253.844 146.791 255.36 147.279 256.552 146.9C257.743 146.466 259.747 145.164 261.426 143.591C263.105 142.019 263.593 141.531 263.593 141.531C263.593 141.531 263.918 141.205 263.972 141.042C264.026 140.88 264.622 138.277 264.351 137.734C264.08 137.138 263.809 137.029 263.809 137.029C263.809 137.029 260.018 132.365 259.856 132.148C259.964 131.931 260.289 131.281 260.343 131.064C260.343 130.792 260.126 130.359 259.964 130.467C259.856 130.576 259.314 131.281 259.206 131.443L250.757 121.085C250.757 121.085 249.728 119.512 249.078 118.699C248.428 117.885 246.153 115.445 245.72 115.336C245.287 115.228 244.908 115.445 244.799 115.499C244.691 115.553 241.875 117.397 240.9 118.102C239.817 118.753 236.675 121.681 236.134 122.278Z" fill="#263238"/>
<path d="M257.852 131.715H258.502L253.79 125.966L252.273 126.4C252.273 126.345 256.823 131.335 257.852 131.715Z" fill="white"/>
<path d="M251.461 125.478L252.761 124.827L247.724 119.241C247.724 119.241 248.103 121.356 248.32 121.627C248.59 121.844 251.461 125.478 251.461 125.478Z" fill="white"/>
<path d="M238.029 124.773C238.029 124.773 238.463 123.851 239.329 123.037C240.25 122.224 244.366 118.698 244.799 118.59C245.233 118.427 246.153 118.536 246.153 118.536C246.153 118.536 245.666 117.18 245.178 116.746C244.745 116.312 244.041 116.421 243.879 116.529C243.716 116.638 240.088 119.241 239.113 120.217C238.192 121.139 236.567 122.712 236.459 122.929C236.351 123.146 236.567 124.013 236.784 124.23C237.109 124.447 238.029 124.773 238.029 124.773Z" fill="white"/>
<path d="M238.625 126.671C238.625 126.671 240.25 127.484 240.467 127.647C240.737 127.864 243.933 131.606 243.933 131.606L242.958 132.745L239.708 128.623L238.625 126.671Z" fill="white"/>
<path d="M243.933 133.829L244.691 132.582C244.691 132.582 246.532 135.023 246.912 135.728C247.291 136.378 248.915 139.036 248.915 139.036L248.753 139.741L243.933 133.829Z" fill="white"/>
<path d="M247.778 135.999C247.778 135.999 253.032 132.419 254.873 129.979L259.585 134.263C259.585 134.263 260.181 134.968 260.181 135.131C260.181 135.294 260.181 135.619 260.181 135.619C260.181 135.619 258.989 138.331 257.364 139.632C255.74 140.934 252.977 142.127 252.652 142.181C252.328 142.236 251.84 142.073 251.84 142.073L251.082 141.639L247.778 135.999Z" fill="white"/>
<path d="M261.697 136.107C261.697 136.107 262.726 138.493 262.726 139.47C262.78 140.446 262.618 140.988 262.618 140.988C262.618 140.988 263.376 140.12 263.43 139.578C263.484 139.036 263.43 138.439 263.268 138.06C263.105 137.68 261.697 136.107 261.697 136.107Z" fill="white"/>
<path d="M252.436 143.7C252.436 143.7 254.44 145.11 255.09 145.381C255.739 145.598 256.823 145.598 256.823 145.598C256.823 145.598 255.848 146.086 255.523 146.14C255.198 146.14 253.898 145.707 253.681 145.544C253.411 145.327 252.49 143.917 252.436 143.7Z" fill="white"/>
<path d="M176.938 176.673C176.938 176.673 171.739 189.96 170.493 194.191C169.247 198.421 168.76 204.874 168.76 204.874L208.459 208.888C208.459 208.888 215.283 207.098 214.795 203.356C214.308 199.614 209.867 192.726 203.638 186.761C197.464 180.795 188.041 175.86 185.062 175.86C182.137 175.86 176.938 176.673 176.938 176.673Z" fill="#757575" stroke="#263238" stroke-width="0.5" stroke-miterlimit="10" stroke-linecap="round" stroke-linejoin="round"/>
<path d="M316.181 190.882L318.51 201.566L309.682 203.356L316.181 190.882Z" fill="#263238" stroke="#263238" stroke-width="0.5" stroke-miterlimit="10" stroke-linecap="round" stroke-linejoin="round"/>
<path d="M342.827 202.38C341.094 197.499 338.549 197.227 338.549 197.227L331.129 178.083C331.129 178.083 322.843 179.222 319.431 182.096C316.019 184.971 308.003 203.247 308.003 203.247L314.286 242.946C314.286 242.946 340.228 237.522 341.094 236.926C341.961 236.329 342.827 230.906 343.098 227.489C343.423 224.073 344.56 207.261 342.827 202.38ZM311.253 201.675C311.253 201.675 318.022 187.14 319.539 185.025C321.11 182.964 323.709 181.771 323.709 181.771L329.071 180.524L334.487 197.878L311.253 201.675Z" fill="#04BF68" stroke="#263238" stroke-width="0.5" stroke-miterlimit="10" stroke-linecap="round" stroke-linejoin="round"/>
<path d="M310.982 202.868L318.51 201.566C318.51 201.566 321.489 195.872 322.409 195.058C323.33 194.299 324.63 193.485 326.796 194.028C329.017 194.57 333.674 197.173 333.404 198.855C333.133 200.536 332.754 201.078 330.262 201.458C327.771 201.837 321.326 201.837 321.326 201.837C321.326 201.837 319.647 204.549 319.268 205.091C318.889 205.634 312.498 207.694 312.498 207.694C312.498 207.694 311.794 205.579 310.982 202.868Z" fill="#263238" stroke="#263238" stroke-width="0.5" stroke-miterlimit="10" stroke-linecap="round" stroke-linejoin="round"/>
<path d="M285.473 260.951C285.473 260.951 283.956 262.307 283.198 262.903C282.44 263.5 281.248 264.53 280.057 264.91C278.865 265.29 278.216 265.561 278.27 266.212C278.324 266.862 278.324 267.513 278.757 267.567C279.136 267.622 293.759 267.567 293.759 267.567C293.759 267.567 294.138 266.917 294.084 265.452C294.03 263.988 293.543 262.849 293.543 262.849C293.543 262.849 289.806 261.819 288.181 260.897C286.502 260.083 285.473 260.951 285.473 260.951Z" fill="#FFBF9D" stroke="#263238" stroke-width="0.5" stroke-miterlimit="10" stroke-linecap="round" stroke-linejoin="round"/>
<path d="M293.976 266.917H278.324C278.378 267.296 278.486 267.622 278.757 267.622C279.136 267.676 293.759 267.622 293.759 267.622C293.759 267.622 293.868 267.405 293.976 266.917Z" fill="#FFBF9D" stroke="#263238" stroke-width="0.5" stroke-miterlimit="10" stroke-linecap="round" stroke-linejoin="round"/>
<path d="M280.707 205.525C280.707 205.525 279.678 212.358 280.707 219.409C281.736 226.459 282.873 231.503 282.873 231.503C282.873 231.503 284.498 238.553 284.66 240.831C284.823 243.108 286.339 255.148 286.285 255.365C286.231 255.582 286.069 256.179 286.069 256.558C286.069 256.938 285.04 257.534 285.202 258.023C285.365 258.511 285.527 260.843 285.527 260.843C285.527 260.843 287.368 260.517 288.181 260.843C288.993 261.168 292.622 262.47 292.622 262.47L293.488 262.795C293.488 262.795 294.463 262.09 294.463 260.951C294.463 259.812 293.001 258.511 293.001 258.511C293.001 258.511 293.976 258.131 294.03 257.697C294.084 257.317 293.651 255.853 293.651 255.582C293.651 255.365 293.488 252.925 293.488 252.437C293.488 251.948 293.543 245.766 293.543 245.061C293.543 244.356 292.839 233.13 292.839 233.13L292.026 224.995C292.026 224.995 293.976 234.16 294.788 237.089C295.601 240.017 297.929 252.274 298.038 252.708C298.092 253.087 298.417 256.287 298.363 256.504C298.309 256.721 297.388 257.317 297.496 257.643C297.55 257.968 298.146 262.036 298.146 262.036L303.995 262.524C303.995 262.524 304.645 261.331 304.97 260.409C305.295 259.541 304.754 258.728 304.754 258.402C304.754 258.077 305.241 258.185 305.078 256.884C304.916 255.582 304.754 254.552 304.754 254.552C304.754 254.552 304.374 253.901 304.266 251.623C304.212 249.345 305.458 243.108 304.591 239.529C303.725 235.95 302.641 232.967 302.587 229.062C302.533 225.157 302.533 217.836 302.208 215.884C301.883 213.931 301.342 207.857 301.342 207.857L301.125 206.989L280.707 205.525Z" fill="#8C8C8C" stroke="#263238" stroke-width="0.5" stroke-miterlimit="10" stroke-linecap="round" stroke-linejoin="round"/>
<path d="M287.639 216.751L290.726 218.215L291.809 224.127" stroke="#263238" stroke-width="0.5" stroke-miterlimit="10" stroke-linecap="round" stroke-linejoin="round"/>
<path d="M298.796 260.897C298.796 260.897 298.254 262.903 297.659 263.88C297.117 264.856 296.196 265.398 295.98 265.995C295.763 266.537 295.817 267.622 295.817 267.622H304.483C304.483 267.622 305.133 266.808 305.133 264.856C305.133 262.903 304.429 261.927 303.779 260.788C303.075 259.649 300.908 258.836 298.796 260.897Z" fill="#FFBF9D" stroke="#263238" stroke-width="0.5" stroke-miterlimit="10" stroke-linecap="round" stroke-linejoin="round"/>
<path d="M304.916 266.537L304.808 266.483H295.817C295.709 267.025 295.763 267.622 295.763 267.622H304.429C304.483 267.622 304.754 267.296 304.916 266.537Z" fill="#FFBF9D" stroke="#263238" stroke-width="0.5" stroke-miterlimit="10" stroke-linecap="round" stroke-linejoin="round"/>
<path d="M286.285 170.599C286.285 170.599 284.66 172.226 283.415 172.931C282.169 173.636 280.057 174.287 279.678 175.046C279.299 175.805 278.865 181.12 279.407 183.832C280.003 186.598 280.653 188.496 280.653 188.496L281.086 198.637L280.382 206.393C280.382 206.393 288.072 207.423 293.001 207.966C297.875 208.562 301.287 207.749 301.287 207.749C301.287 207.749 301.558 203.085 301.612 200.698C301.666 198.258 301.829 186.869 301.829 186.869L305.728 193.377C305.728 193.377 308.436 195.112 312.823 192.292C314.069 191.479 309.303 186.381 308.978 184.808C308.653 183.235 306.595 179.819 306.595 179.819C306.595 179.819 304.916 174.829 303.67 173.582C302.425 172.335 300.692 172.009 298.85 171.738C297.009 171.467 293.976 170.219 293.976 170.219L286.285 170.599Z" fill="#04BF68" stroke="#263238" stroke-width="0.5" stroke-miterlimit="10" stroke-linecap="round" stroke-linejoin="round"/>
<path d="M308.545 186.652C308.545 186.652 306.541 186.923 305.999 190.394" stroke="#263238" stroke-width="0.5" stroke-miterlimit="10" stroke-linecap="round" stroke-linejoin="round"/>
<path d="M304.699 188.008C304.699 188.008 306.053 186.652 307.624 186.652" stroke="#263238" stroke-width="0.5" stroke-miterlimit="10" stroke-linecap="round" stroke-linejoin="round"/>
<path d="M280.869 157.963C280.869 157.963 281.032 163.495 281.248 164.362C281.465 165.284 282.927 167.128 283.577 167.996C284.227 168.864 285.527 169.081 285.689 169.081C285.852 169.081 286.285 169.731 286.285 170.599C286.285 171.467 285.906 171.684 285.96 174.287C286.014 176.89 286.394 179.114 286.394 179.114C286.394 179.114 287.91 178.083 290.564 175.263C293.218 172.389 293.922 170.274 293.922 170.274C293.922 170.274 292.73 169.189 292.405 167.996C292.026 166.749 292.08 163.712 292.08 163.712C292.08 163.712 293.976 162.247 294.084 161.38C294.192 160.512 293.38 158.939 293.38 158.939C293.38 158.939 292.459 155.739 291.484 154.167C290.455 152.594 290.293 151.78 286.989 152.702C283.631 153.624 282.494 153.841 281.411 154.6C280.328 155.414 280.165 156.336 280.165 156.336L280.869 157.963Z" fill="#FFBF9D" stroke="#263238" stroke-width="0.5" stroke-miterlimit="10" stroke-linecap="round" stroke-linejoin="round"/>
<path d="M285.689 169.081C285.689 169.081 286.718 168.972 287.26 168.809C287.856 168.647 288.614 168.321 288.614 168.321L286.231 170.599L285.689 169.081Z" fill="#263238" stroke="#263238" stroke-width="0.5" stroke-miterlimit="10" stroke-linecap="round" stroke-linejoin="round"/>
<path d="M282.765 163.983C282.765 163.983 283.144 164.579 283.686 164.362C284.227 164.145 284.498 163.983 284.498 163.983" stroke="#263238" stroke-width="0.5" stroke-miterlimit="10" stroke-linecap="round" stroke-linejoin="round"/>
<path d="M284.227 165.555C284.227 165.555 286.123 165.827 287.26 164.254" stroke="#263238" stroke-width="0.5" stroke-miterlimit="10" stroke-linecap="round" stroke-linejoin="round"/>
<path d="M284.931 159.807C284.931 159.807 286.61 159.319 287.531 159.807" stroke="#263238" stroke-width="0.5" stroke-miterlimit="10" stroke-linecap="round" stroke-linejoin="round"/>
<path d="M282.711 160.024C282.711 160.024 281.79 159.427 281.303 160.132" stroke="#263238" stroke-width="0.5" stroke-miterlimit="10" stroke-linecap="round" stroke-linejoin="round"/>
<path d="M282.223 161.325C282.277 161.651 282.169 161.976 281.952 161.976C281.79 161.976 281.573 161.759 281.519 161.38C281.465 161.054 281.573 160.729 281.79 160.729C281.952 160.675 282.169 160.946 282.223 161.325Z" fill="#263238"/>
<path d="M285.96 161.162C286.014 161.488 285.906 161.813 285.689 161.813C285.527 161.813 285.31 161.596 285.256 161.217C285.202 160.891 285.31 160.566 285.527 160.566C285.744 160.566 285.96 160.837 285.96 161.162Z" fill="#263238"/>
<path d="M288.56 154.655C288.56 154.655 286.773 156.011 286.177 156.119C285.581 156.227 283.523 155.522 282.765 155.468C282.007 155.414 280.653 156.553 280.653 156.553L280.869 157.909C280.869 157.909 278.865 157.421 278.432 156.661C277.999 155.848 279.461 154.817 279.407 154.546C279.353 154.275 278.595 153.299 279.136 152.973C279.678 152.648 282.007 151.889 282.007 151.889C282.007 151.889 283.252 149.34 284.065 149.286C284.877 149.231 286.502 149.557 286.502 149.557C286.502 149.557 287.368 148.743 288.343 148.906C289.372 149.069 290.835 150.913 290.835 150.913C290.835 150.913 293.055 150.696 293.488 151.672C293.922 152.648 294.355 153.895 294.03 154.926C293.705 155.956 293.38 158.071 293.38 158.071V158.885C293.38 158.885 292.459 159.048 292.08 159.427C291.647 159.807 291.701 160.132 291.376 160.403C291.051 160.675 290.889 160.675 290.672 160.566C290.456 160.458 290.347 160.132 290.239 159.481C290.131 158.831 290.022 158.668 289.589 158.505C289.156 158.343 288.56 158.017 288.181 157.529C287.748 157.041 287.206 156.607 287.531 156.227C287.856 155.794 288.56 154.655 288.56 154.655Z" fill="#263238" stroke="#263238" stroke-width="0.5" stroke-miterlimit="10" stroke-linecap="round" stroke-linejoin="round"/>
<path d="M299.446 183.615L301.775 186.923L297.821 185.567" stroke="#263238" stroke-width="0.5" stroke-miterlimit="10" stroke-linecap="round" stroke-linejoin="round"/>
<path d="M193.836 206.989C193.619 206.339 200.118 207.369 200.118 207.369C200.118 207.369 202.176 198.312 201.58 197.282C200.985 196.306 195.731 194.462 195.731 194.462L183.383 193.811C183.383 193.811 178.075 196.034 178.021 196.631C177.967 196.956 174.501 201.241 173.038 204.603L193.836 206.989Z" fill="#B2B2B2" stroke="#263238" stroke-width="0.5" stroke-miterlimit="10" stroke-linecap="round" stroke-linejoin="round"/>
<path d="M185.982 193.323C185.982 193.323 185.224 194.082 185.224 196.305C185.224 198.475 186.632 201.349 186.632 201.349L191.507 198.746L197.193 201.675C197.193 201.675 197.735 196.251 195.731 194.462C193.673 192.672 187.12 191.75 185.982 193.323Z" fill="#455A64" stroke="#263238" stroke-width="0.5" stroke-miterlimit="10" stroke-linecap="round" stroke-linejoin="round"/>
<path d="M186.795 194.299C186.795 194.299 187.824 197.282 188.907 199.288C189.99 201.295 192.427 202.814 192.427 202.814C192.427 202.814 193.619 198.746 193.781 196.739C193.89 194.733 193.673 193.648 193.673 193.648L186.795 194.299Z" fill="#FFBF9D" stroke="#263238" stroke-width="0.5" stroke-miterlimit="10" stroke-linecap="round" stroke-linejoin="round"/>
<path d="M183.058 188.876C183.058 188.876 183.491 193.323 183.979 193.702C184.412 194.082 186.795 194.299 186.795 194.299L191.94 194.624C192.482 193.648 192.752 188.116 190.965 183.832C189.178 179.548 186.903 178.843 186.47 179.656C186.47 179.656 183.816 183.29 183.979 184.049C184.087 184.808 184.358 185.188 184.249 185.622C184.141 186.001 182.57 186.706 182.354 187.411C182.191 188.062 183.058 188.876 183.058 188.876Z" fill="#FFBF9D" stroke="#263238" stroke-width="0.5" stroke-miterlimit="10" stroke-linecap="round" stroke-linejoin="round"/>
<path d="M184.304 189.689C184.304 189.689 185.712 189.689 186.416 189.038" stroke="#263238" stroke-width="0.5" stroke-miterlimit="10" stroke-linecap="round" stroke-linejoin="round"/>
<path d="M185.387 185.676C185.387 185.676 186.091 185.459 186.524 185.947" stroke="#263238" stroke-width="0.5" stroke-miterlimit="10" stroke-linecap="round" stroke-linejoin="round"/>
<path d="M184.953 184.266C184.953 184.266 186.199 183.127 186.903 184.646" stroke="#263238" stroke-width="0.5" stroke-miterlimit="10" stroke-linecap="round" stroke-linejoin="round"/>
<path d="M186.47 179.602C186.47 179.602 187.011 183.995 188.474 187.14C189.936 190.286 190.694 191.262 190.694 191.262C190.694 191.262 190.694 193.757 189.936 194.516C189.178 195.221 188.311 195.167 188.311 195.167C188.311 195.167 187.391 196.468 190.315 196.848C193.24 197.228 193.998 195.872 195.027 195.763C196.056 195.655 196.598 195.817 196.598 195.817C196.598 195.817 196.868 195.058 196.652 194.19C196.435 193.377 196.327 192.726 196.327 192.726C196.327 192.726 198.277 190.448 198.222 187.899C198.168 185.296 198.927 183.832 197.518 180.795C196.11 177.758 188.636 177.216 187.174 177.161C185.766 177.107 185.549 177.216 184.899 178.246C184.249 179.276 182.408 180.849 182.408 181.988C182.408 183.127 184.304 185.567 184.304 185.567L184.033 183.995C183.979 183.995 185.549 181.337 186.47 179.602Z" fill="#263238" stroke="#263238" stroke-width="0.5" stroke-miterlimit="10" stroke-linecap="round" stroke-linejoin="round"/>
<path d="M233.588 252.328C172.659 250.376 123.266 255.04 123.266 262.741C123.266 265.995 132.04 269.249 146.825 272.069C133.502 272.34 123.754 273.154 123.754 274.184C123.754 275.377 138.214 276.353 156.087 276.353C162.532 276.353 168.597 276.245 173.634 276.028C190.911 277.98 211.491 279.445 233.588 280.15C294.517 282.102 343.911 277.438 343.911 269.737C343.911 262.036 294.517 254.226 233.588 252.328Z" fill="#263238" stroke="#263238" stroke-width="0.5" stroke-miterlimit="10" stroke-linecap="round" stroke-linejoin="round"/>
<path d="M126.028 242.349C126.028 242.349 127.382 245.278 128.303 246.254C129.278 247.23 146.555 251.515 146.555 251.515L202.664 263.825L209.488 263.12L233.263 263.88C233.263 263.88 238.029 252.274 232.83 240.831C227.631 229.388 201.797 224.941 194.431 227.273C187.12 229.605 170.006 237.089 157.657 232.967C145.363 228.845 135.506 220.819 131.444 221.903C127.328 222.988 125.378 229.605 125.378 232.425C125.378 235.299 126.028 242.349 126.028 242.349Z" fill="#263238" stroke="#263238" stroke-width="0.5" stroke-miterlimit="10" stroke-linecap="round" stroke-linejoin="round"/>
<path d="M246.587 258.294C246.099 246.471 238.192 236.872 228.985 236.872H218.965L219.128 241.102C215.228 245.006 212.845 251.189 213.116 258.185C213.387 265.181 216.312 271.418 220.536 275.323L220.698 279.607H230.718C240.033 279.607 247.128 270.062 246.587 258.294Z" fill="#263238" stroke="#263238" stroke-width="0.5" stroke-miterlimit="10" stroke-linecap="round" stroke-linejoin="round"/>
<path d="M222.224 279.532C231.381 278.517 237.75 268.162 236.45 256.404C235.151 244.645 226.674 235.935 217.518 236.95C208.361 237.964 201.992 248.32 203.292 260.078C204.591 271.837 213.068 280.547 222.224 279.532Z" fill="#878787" stroke="#263238" stroke-width="0.5" stroke-miterlimit="10" stroke-linecap="round" stroke-linejoin="round"/>
<path d="M232.83 265.507C232.993 264.964 233.155 264.422 233.263 263.88C233.372 263.337 233.48 262.741 233.588 262.198C233.751 260.951 233.805 259.649 233.751 258.294C233.643 255.419 232.993 252.708 231.964 250.321C231.964 250.321 231.964 250.267 231.909 250.267C231.693 249.725 231.422 249.237 231.151 248.749C231.151 248.694 231.097 248.694 231.097 248.64C230.826 248.152 230.555 247.664 230.231 247.23L230.176 247.176C227.468 243.163 223.515 240.614 219.128 240.614C215.391 240.614 212.141 242.458 209.758 245.495C209.596 245.712 209.433 245.929 209.325 246.091C209.163 246.308 209.054 246.525 208.892 246.742C208.729 246.959 208.621 247.176 208.513 247.393C208.404 247.61 208.242 247.827 208.134 248.044C208.134 248.044 208.134 248.044 208.134 248.098C208.025 248.315 207.917 248.532 207.809 248.803V248.857C207.7 249.074 207.592 249.291 207.538 249.562C207.538 249.562 207.538 249.616 207.484 249.616C207.375 249.833 207.321 250.05 207.213 250.321C207.213 250.376 207.213 250.376 207.159 250.43C207.105 250.647 206.996 250.864 206.942 251.081C206.942 251.135 206.888 251.189 206.888 251.189C206.834 251.406 206.78 251.623 206.725 251.84C206.725 251.894 206.671 251.948 206.671 252.003C206.617 252.22 206.563 252.437 206.509 252.653C206.509 252.708 206.455 252.762 206.455 252.87C206.401 253.087 206.401 253.304 206.346 253.521C206.346 253.575 206.292 253.684 206.292 253.738C206.238 253.955 206.238 254.172 206.184 254.335C206.184 254.443 206.184 254.497 206.13 254.606C206.13 254.823 206.076 254.985 206.076 255.202C206.076 255.311 206.076 255.419 206.021 255.474C206.021 255.69 206.021 255.853 205.967 256.07C205.967 256.179 205.967 256.287 205.967 256.396C205.967 256.612 205.967 256.829 205.967 257.046C205.967 257.155 205.967 257.209 205.967 257.317C205.967 257.643 205.967 257.914 205.967 258.239C205.967 258.619 206.021 258.999 206.021 259.378C206.021 259.487 206.021 259.541 206.021 259.649C206.076 259.975 206.076 260.3 206.13 260.571C206.13 260.626 206.13 260.68 206.13 260.734C206.238 261.493 206.401 262.253 206.617 263.012C207.592 266.7 209.433 269.899 211.816 272.231C211.871 272.286 211.871 272.286 211.925 272.34C212.196 272.611 212.52 272.882 212.845 273.153L212.9 273.208C215.12 274.997 217.774 276.082 220.536 276.082C223.352 276.082 225.898 275.052 228.01 273.208C230.176 271.255 231.855 268.598 232.83 265.507Z" fill="white" stroke="#263238" stroke-width="0.5" stroke-miterlimit="10" stroke-linecap="round" stroke-linejoin="round"/>
<path d="M232.126 258.782C232.018 256.721 231.639 254.768 230.935 252.979L225.41 256.45C225.627 257.155 225.789 257.968 225.844 258.782C225.844 258.89 225.844 258.999 225.844 259.107L232.072 260.137C232.18 259.704 232.18 259.27 232.126 258.782Z" fill="#263238" stroke="#263238" stroke-width="0.5" stroke-miterlimit="10" stroke-linecap="round" stroke-linejoin="round"/>
<path d="M222.377 252.491C222.973 252.816 223.461 253.25 223.948 253.738L227.848 247.772C226.494 246.308 224.923 245.169 223.19 244.573L222.377 252.491Z" fill="#263238" stroke="#263238" stroke-width="0.5" stroke-miterlimit="10" stroke-linecap="round" stroke-linejoin="round"/>
<path d="M225.085 262.686C224.815 263.229 224.436 263.771 224.056 264.151L227.252 271.309C228.768 270.008 230.014 268.272 230.88 266.211L225.085 262.686Z" fill="#263238" stroke="#263238" stroke-width="0.5" stroke-miterlimit="10" stroke-linecap="round" stroke-linejoin="round"/>
<path d="M215.716 255.094L210.083 251.189C209.271 253.087 208.783 255.311 208.729 257.643L215.012 257.805C215.12 256.829 215.337 255.907 215.716 255.094Z" fill="#263238" stroke="#263238" stroke-width="0.5" stroke-miterlimit="10" stroke-linecap="round" stroke-linejoin="round"/>
<path d="M217.666 252.707C218.099 252.382 218.64 252.165 219.182 252.002L218.261 244.084C216.257 244.41 214.47 245.44 213.008 246.905L217.666 252.707Z" fill="#263238" stroke="#263238" stroke-width="0.5" stroke-miterlimit="10" stroke-linecap="round" stroke-linejoin="round"/>
<path d="M221.348 265.615C221.132 265.615 220.969 265.669 220.753 265.669C220.157 265.669 219.615 265.561 219.074 265.344L215.987 272.177C217.557 273.099 219.236 273.587 221.023 273.641C221.511 273.641 221.998 273.587 222.486 273.533L221.348 265.615Z" fill="#263238" stroke="#263238" stroke-width="0.5" stroke-miterlimit="10" stroke-linecap="round" stroke-linejoin="round"/>
<path d="M215.716 261.71L209.488 263.12C210.137 265.398 211.167 267.405 212.52 269.086L216.528 263.174C216.203 262.741 215.933 262.253 215.716 261.71Z" fill="#263238" stroke="#263238" stroke-width="0.5" stroke-miterlimit="10" stroke-linecap="round" stroke-linejoin="round"/>
<path d="M152.675 246.362C152.458 236.492 148.721 228.411 144.388 228.411H134.369L135.181 264.259H145.201C149.588 264.259 152.891 256.233 152.675 246.362Z" fill="#263238" stroke="#263238" stroke-width="0.5" stroke-miterlimit="10" stroke-linecap="round" stroke-linejoin="round"/>
<path d="M135.396 264.207C139.731 264.077 143.007 255.962 142.712 246.082C142.418 236.202 138.665 228.298 134.329 228.427C129.994 228.557 126.718 236.671 127.013 246.552C127.307 256.432 131.06 264.336 135.396 264.207Z" fill="#878787" stroke="#263238" stroke-width="0.5" stroke-miterlimit="10" stroke-linecap="round" stroke-linejoin="round"/>
<path d="M140.922 252.382C140.976 251.948 141.085 251.46 141.139 251.026C141.193 250.538 141.247 250.105 141.301 249.616C141.355 248.586 141.41 247.447 141.41 246.362C141.355 243.976 141.03 241.698 140.543 239.692V239.638C140.435 239.204 140.326 238.77 140.164 238.336V238.282C140.056 237.848 139.893 237.468 139.731 237.089V237.034C138.485 233.672 136.589 231.557 134.585 231.557C132.852 231.557 131.282 233.13 130.199 235.679C130.144 235.841 130.036 236.004 129.982 236.221C129.928 236.384 129.819 236.601 129.765 236.763C129.711 236.926 129.657 237.143 129.603 237.306C129.549 237.468 129.495 237.685 129.44 237.848C129.44 237.848 129.44 237.848 129.44 237.902C129.386 238.065 129.332 238.282 129.278 238.499V238.553C129.224 238.716 129.17 238.933 129.115 239.149V239.204C129.061 239.366 129.061 239.583 129.007 239.746C129.007 239.8 129.007 239.8 129.007 239.855C128.953 240.017 128.953 240.234 128.899 240.397C128.899 240.451 128.899 240.451 128.899 240.505C128.845 240.668 128.845 240.885 128.79 241.048C128.79 241.102 128.79 241.156 128.79 241.21C128.79 241.373 128.736 241.59 128.736 241.753C128.736 241.807 128.736 241.861 128.736 241.915C128.736 242.078 128.682 242.241 128.682 242.458C128.682 242.512 128.682 242.566 128.682 242.675C128.682 242.837 128.628 243 128.628 243.163C128.628 243.217 128.628 243.325 128.628 243.38C128.628 243.542 128.628 243.705 128.574 243.868C128.574 243.922 128.574 244.03 128.574 244.085C128.574 244.247 128.574 244.41 128.574 244.573C128.574 244.681 128.574 244.735 128.574 244.844C128.574 245.007 128.574 245.224 128.574 245.386C128.574 245.44 128.574 245.549 128.574 245.603C128.574 245.874 128.574 246.091 128.574 246.362C128.574 246.688 128.574 247.013 128.628 247.284C128.628 247.339 128.628 247.447 128.628 247.501C128.628 247.772 128.682 248.044 128.682 248.315C128.682 248.369 128.682 248.369 128.682 248.423C128.736 249.074 128.79 249.725 128.899 250.321C129.332 253.413 130.199 256.07 131.336 258.023L131.39 258.077C131.553 258.294 131.661 258.511 131.823 258.728C131.823 258.728 131.823 258.782 131.878 258.782C132.907 260.3 134.152 261.168 135.452 261.168C136.752 261.168 137.943 260.3 138.972 258.782C139.676 257.209 140.435 254.985 140.922 252.382Z" fill="white" stroke="#263238" stroke-width="0.5" stroke-miterlimit="10" stroke-linecap="round" stroke-linejoin="round"/>
<path d="M343.098 251.46C342.611 239.638 334.704 230.038 325.496 230.038H315.477C306.216 230.038 299.121 239.583 299.608 251.352C300.096 263.175 308.003 272.774 317.21 272.774H327.23C336.491 272.774 343.586 263.229 343.098 251.46Z" fill="#263238" stroke="#263238" stroke-width="0.5" stroke-miterlimit="10" stroke-linecap="round" stroke-linejoin="round"/>
<path d="M347.052 243.868C347.052 243.868 346.673 236.384 345.752 233.78C344.831 231.177 342.015 227.218 342.015 227.218C342.015 227.218 339.199 220.656 334.541 216.589C329.883 212.467 322.247 208.345 320.351 207.423C318.51 206.501 316.073 205.905 312.498 203.519C308.978 201.078 286.935 185.784 280.057 181.663C273.179 177.541 258.231 175.48 255.252 174.938C252.273 174.396 217.936 171.955 206.021 171.955C194.106 171.955 169.464 172.497 155.87 177.758C155.87 177.758 151.375 179.06 150.833 180.361C150.292 181.663 149.912 182.585 149.912 182.585L136.481 202.217C136.481 202.217 131.607 201.837 130.144 205.959C128.628 210.081 129.224 215.667 129.224 215.667C129.224 215.667 125.703 224.452 125.487 230.96C125.324 237.523 126.028 242.349 126.028 242.349C126.028 242.349 125.108 230.418 127.87 226.676C130.686 222.934 136.427 225.754 138.702 232.479C140.922 239.204 143.576 251.732 143.576 251.732L202.718 263.88C202.718 263.88 199.739 248.206 203.638 239.204C207.538 230.255 225.844 230.798 229.201 247.068C232.559 263.337 231.422 266.32 231.422 266.32C231.422 266.32 243.933 268.923 281.952 268.381C320.026 267.839 340.878 263.337 346.51 261.819C346.51 261.819 347.81 254.931 348.189 250.81C348.568 246.688 347.052 243.868 347.052 243.868ZM211.437 206.339C211.058 207.261 210.3 207.857 210.3 207.857C208.783 209.376 204.722 207.857 204.722 207.857C204.722 207.857 186.957 205.037 171.089 202.542C172.064 192.347 176.775 182.476 179.646 177.27C182.679 177.541 189.178 178.355 196.652 183.724C205.317 189.906 211.816 205.417 211.437 206.339Z" fill="#04BF68" stroke="#263238" stroke-width="0.5" stroke-miterlimit="10" stroke-linecap="round" stroke-linejoin="round"/>
<path d="M178.021 196.577C178.021 196.577 170.764 205.091 170.493 206.013C170.222 206.935 170.872 210.081 173.472 210.189C176.017 210.298 190.207 205.2 190.207 205.2L181.541 204.061L182.246 201.946" fill="#B2B2B2"/>
<path d="M178.021 196.577C178.021 196.577 170.764 205.091 170.493 206.013C170.222 206.935 170.872 210.081 173.472 210.189C176.017 210.298 190.207 205.2 190.207 205.2L181.541 204.061L182.246 201.946" stroke="#263238" stroke-width="0.5" stroke-miterlimit="10" stroke-linecap="round" stroke-linejoin="round"/>
<path d="M174.122 203.464L181.487 204.115" stroke="#263238" stroke-width="0.5" stroke-miterlimit="10" stroke-linecap="round" stroke-linejoin="round"/>
<path opacity="0.15" d="M348.189 250.755C348.568 246.633 347.052 243.868 347.052 243.868C347.052 243.868 346.943 241.481 346.673 238.932C323.33 245.82 281.573 246.308 269.929 245.278C256.552 244.085 232.83 240.831 231.747 236.98C230.718 233.13 221.511 224.398 215.228 222.012C209.813 220.005 147.205 211.328 129.44 208.887C128.899 212.304 129.224 215.667 129.224 215.667C129.224 215.667 125.703 224.452 125.487 230.96C125.324 237.522 126.028 242.349 126.028 242.349C126.028 242.349 125.108 230.418 127.87 226.676C130.686 222.934 136.427 225.754 138.702 232.479C140.922 239.204 143.576 251.731 143.576 251.731L202.718 263.88C202.718 263.88 199.739 248.206 203.638 239.204C207.538 230.255 225.844 230.797 229.201 247.067C232.559 263.337 231.422 266.32 231.422 266.32C231.422 266.32 243.933 268.923 281.952 268.381C320.026 267.838 340.878 263.337 346.51 261.819C346.51 261.819 347.81 254.877 348.189 250.755Z" fill="black"/>
<path d="M200.389 203.627C201.201 199.505 203.855 191.804 203.855 191.804C203.855 191.804 208.296 198.095 210.3 202.434C212.304 206.827 210.3 208.454 208.459 208.833C206.617 209.213 199.522 206.827 199.522 206.827L200.389 203.627Z" fill="#263238" stroke="#263238" stroke-width="0.5" stroke-miterlimit="10" stroke-linecap="round" stroke-linejoin="round"/>
<path d="M174.609 177.27C170.98 177.487 165.835 178.029 161.882 178.897C157.603 179.819 156.087 180.036 155.328 180.741C154.57 181.5 147.313 190.665 144.713 197.173C144.713 197.173 145.092 198.854 146.771 198.854C147.367 198.854 155.22 200.048 164.915 201.566C166.539 195.763 169.789 185.513 174.609 177.27Z" fill="#757575" stroke="#263238" stroke-width="0.5" stroke-miterlimit="10" stroke-linecap="round" stroke-linejoin="round"/>
<path d="M171.305 211.328L165.998 210.352C165.998 210.352 164.698 210.786 165.077 212.087C165.456 213.389 166.16 213.226 166.16 213.226L170.601 213.931C170.601 213.931 171.63 214.04 171.901 213.009C172.118 211.979 172.389 211.816 171.305 211.328Z" stroke="#263238" stroke-width="0.5" stroke-miterlimit="10" stroke-linecap="round" stroke-linejoin="round"/>
<path d="M144.442 206.718L140.381 205.959C140.381 205.959 139.406 206.284 139.676 207.369C140.001 208.399 140.489 208.291 140.489 208.291L143.847 208.888C143.847 208.888 144.659 208.996 144.822 208.128C145.092 207.206 145.309 207.098 144.442 206.718Z" stroke="#263238" stroke-width="0.5" stroke-miterlimit="10" stroke-linecap="round" stroke-linejoin="round"/>
<path d="M176.938 176.673C176.938 176.673 169.356 190.774 168.056 202.434" stroke="#263238" stroke-width="0.5" stroke-miterlimit="10" stroke-linecap="round" stroke-linejoin="round"/>
<path d="M166.323 204.874C166.323 204.874 162.857 210.731 162.748 212.738C162.64 214.745 163.019 238.661 163.669 243.054" stroke="#263238" stroke-width="0.5" stroke-miterlimit="10" stroke-linecap="round" stroke-linejoin="round"/>
<path d="M202.772 213.226C202.772 213.226 199.847 222.934 199.739 230.255C199.631 237.577 199.468 251.243 199.468 251.243" stroke="#263238" stroke-width="0.5" stroke-miterlimit="10" stroke-linecap="round" stroke-linejoin="round"/>
<path d="M144.28 199.776C144.28 199.776 138.052 205.471 137.51 207.369C136.968 209.213 137.618 225.157 137.618 225.157" stroke="#263238" stroke-width="0.5" stroke-miterlimit="10" stroke-linecap="round" stroke-linejoin="round"/>
<path d="M145.471 243.271C145.471 243.271 146.392 245.929 148.396 246.579C150.4 247.23 198.71 256.558 198.71 256.558" stroke="#263238" stroke-width="0.5" stroke-miterlimit="10" stroke-linecap="round" stroke-linejoin="round"/>
<path d="M285.419 251.677C285.419 251.677 322.409 252.165 336.166 247.935C336.166 247.935 334.812 257.1 332.266 258.999C329.721 260.842 311.198 262.795 302.208 263.066C292.026 263.391 286.285 262.361 286.285 262.361L285.419 251.677Z" fill="#263238" stroke="#263238" stroke-width="0.5" stroke-miterlimit="10" stroke-linecap="round" stroke-linejoin="round"/>
<path d="M278.757 228.574L282.494 236.221C282.494 236.221 303.345 236.709 305.728 236.926C308.111 237.088 310.657 238.282 313.365 236.926C316.073 235.57 327.771 234.051 329.125 234.051C330.479 234.051 332.158 235.245 332.158 235.245C332.158 235.245 329.125 227.598 327.934 226.893C326.742 226.188 325.551 226.405 325.063 226.405C324.576 226.35 299.825 224.506 278.757 228.574Z" fill="#263238" stroke="#263238" stroke-width="0.5" stroke-miterlimit="10" stroke-linecap="round" stroke-linejoin="round"/>
<path d="M239.438 213.335C239.438 213.335 230.555 211.979 227.143 213.172C223.731 214.365 225.41 218.975 231.26 223.259C237.055 227.544 241.821 231.611 247.832 232.316C253.79 233.021 264.026 235.245 264.567 233.346C265.055 231.448 263.213 224.615 256.389 219.68C249.511 214.69 239.438 213.335 239.438 213.335Z" fill="white" stroke="#263238" stroke-width="0.5" stroke-miterlimit="10" stroke-linecap="round" stroke-linejoin="round"/>
<path d="M310.765 203.573L309.086 204.115C309.086 204.115 305.945 204.224 300.854 204.332C296.521 204.441 290.78 204.603 284.444 204.766C275.724 204.983 265.813 205.254 256.877 205.417C243.229 205.688 231.801 205.851 230.068 205.579C227.143 205.146 223.84 204.061 220.753 201.403C219.02 199.885 217.395 197.878 215.878 195.167C211.762 187.628 201.364 178.409 201.364 178.409C217.72 176.511 256.823 177.216 261.264 177.378C262.347 177.433 263.809 177.595 265.38 177.866C270.092 178.68 276.32 180.578 279.894 183.019C280.544 183.452 281.573 184.157 282.819 184.971C285.798 186.978 290.293 189.906 294.734 192.889C297.442 194.679 300.15 196.468 302.533 198.041C307.245 201.241 310.765 203.573 310.765 203.573Z" fill="white" stroke="#263238" stroke-width="0.5" stroke-miterlimit="10" stroke-linecap="round" stroke-linejoin="round"/>
<path d="M279.894 183.073C280.544 183.507 281.573 184.212 282.819 185.025L256.823 205.417C243.175 205.688 231.747 205.851 230.014 205.579C227.089 205.146 223.786 204.061 220.698 201.403L265.38 177.921C270.146 178.788 276.32 180.632 279.894 183.073Z" fill="#263238" stroke="#263238" stroke-width="0.5" stroke-miterlimit="10" stroke-linecap="round" stroke-linejoin="round"/>
<path d="M302.533 198.149L300.854 204.332C296.521 204.44 290.78 204.603 284.444 204.766L294.788 192.943C297.442 194.733 300.15 196.522 302.533 198.149Z" fill="#263238" stroke="#263238" stroke-width="0.5" stroke-miterlimit="10" stroke-linecap="round" stroke-linejoin="round"/>
<path d="M273.991 223.476C275.02 224.506 276.049 225.645 276.97 226.839" stroke="#263238" stroke-width="0.5" stroke-miterlimit="10" stroke-linecap="round" stroke-linejoin="round"/>
<path d="M248.807 208.345C248.807 208.345 261.697 212.142 272.15 221.741" stroke="#263238" stroke-width="0.5" stroke-miterlimit="10" stroke-linecap="round" stroke-linejoin="round"/>
<path d="M331.562 226.513C332.862 228.954 333.891 231.665 334.487 234.648" stroke="#263238" stroke-width="0.5" stroke-miterlimit="10" stroke-linecap="round" stroke-linejoin="round"/>
<path d="M311.794 209.05C311.794 209.05 323.222 213.497 330.1 224.073" stroke="#263238" stroke-width="0.5" stroke-miterlimit="10" stroke-linecap="round" stroke-linejoin="round"/>
<path d="M259.097 254.985C259.097 256.992 257.202 258.565 254.819 258.565C252.436 258.565 250.54 256.938 250.54 254.985C250.54 252.979 252.436 251.406 254.819 251.406C257.148 251.406 259.097 253.033 259.097 254.985Z" fill="white" stroke="#263238" stroke-width="0.5" stroke-miterlimit="10" stroke-linecap="round" stroke-linejoin="round"/>
<path d="M347.431 249.182C347.052 250.864 345.914 252.111 344.831 251.894C343.748 251.677 343.206 250.104 343.586 248.369C343.965 246.688 345.102 245.44 346.185 245.657C347.214 245.929 347.81 247.447 347.431 249.182Z" fill="white" stroke="#263238" stroke-width="0.5" stroke-miterlimit="10" stroke-linecap="round" stroke-linejoin="round"/>
<path d="M202.068 206.989C202.068 206.989 199.089 201.946 197.193 201.674C195.298 201.349 187.336 201.024 185.603 202.163C183.87 203.247 184.358 206.881 184.953 207.803C185.603 208.725 188.095 209.213 190.261 209.05C192.482 208.887 199.793 209.538 199.793 209.538C199.793 209.538 204.18 212.684 205.751 212.358C207.321 212.033 209.379 208.616 207.917 206.718C206.617 204.766 204.397 205.254 202.068 206.989Z" fill="#263238" stroke="#263238" stroke-width="0.5" stroke-miterlimit="10" stroke-linecap="round" stroke-linejoin="round"/>
<path d="M202.068 206.989L207.213 208.074" stroke="#263238" stroke-width="0.5" stroke-miterlimit="10" stroke-linecap="round" stroke-linejoin="round"/>
<path d="M155.87 177.758C155.87 177.758 151.375 179.06 150.833 180.361C150.292 181.663 149.912 182.585 149.912 182.585L136.481 202.217C136.481 202.217 131.607 201.837 130.144 205.959C128.628 210.081 129.224 215.667 129.224 215.667C129.224 215.667 125.703 224.452 125.487 230.96C125.324 237.522 126.028 242.349 126.028 242.349C126.028 242.349 125.108 230.418 127.87 226.676C130.686 222.934 136.427 225.754 138.702 232.479C140.922 239.204 143.576 251.731 143.576 251.731L202.718 263.88C202.718 263.88 199.739 248.206 203.638 239.204C207.538 230.255 225.844 230.798 229.201 247.067C232.559 263.337 231.422 266.32 231.422 266.32C231.422 266.32 243.933 268.923 281.952 268.381C320.026 267.839 340.878 263.337 346.51 261.819C346.51 261.819 347.81 254.931 348.189 250.81C348.568 246.688 347.052 243.922 347.052 243.922C347.052 243.922 346.673 236.438 345.752 233.835C344.831 231.231 342.015 227.272 342.015 227.272C342.015 227.272 339.199 220.71 334.541 216.643C329.883 212.521 322.247 208.399 320.351 207.477C318.51 206.556 316.073 205.959 312.498 203.573C308.978 201.132 286.935 185.839 280.057 181.717C273.179 177.595 258.231 175.534 255.252 174.992C252.273 174.45 217.936 172.009 206.021 172.009C194.106 171.955 169.464 172.497 155.87 177.758Z" stroke="#263238" stroke-width="0.5" stroke-miterlimit="10" stroke-linecap="round" stroke-linejoin="round"/>
<path d="M327.825 211.762C327.825 211.762 324.088 213.118 325.117 214.474C326.146 215.829 331.779 219.409 334.324 223.856C336.87 228.303 337.411 230.527 338.603 230.527C339.794 230.527 342.394 228.303 342.015 227.218C341.69 226.134 339.794 216.046 327.825 211.762Z" fill="white" stroke="#263238" stroke-width="0.5" stroke-miterlimit="10" stroke-linecap="round" stroke-linejoin="round"/>
<path d="M140.056 246.037C140.001 244.193 139.839 242.458 139.514 240.885L136.968 243.976C137.077 244.627 137.131 245.332 137.185 246.037C137.185 246.145 137.185 246.254 137.185 246.362L140.056 247.284C140.11 246.796 140.11 246.417 140.056 246.037Z" fill="#263238" stroke="#263238" stroke-width="0.5" stroke-miterlimit="10" stroke-linecap="round" stroke-linejoin="round"/>
<path d="M135.614 240.343C135.885 240.614 136.102 240.993 136.319 241.481L138.106 236.167C137.51 234.865 136.752 233.835 135.939 233.292L135.614 240.343Z" fill="#263238" stroke="#263238" stroke-width="0.5" stroke-miterlimit="10" stroke-linecap="round" stroke-linejoin="round"/>
<path d="M136.86 249.454C136.752 249.942 136.589 250.43 136.373 250.809L137.835 257.155C138.539 256.016 139.081 254.443 139.514 252.599L136.86 249.454Z" fill="#263238" stroke="#263238" stroke-width="0.5" stroke-miterlimit="10" stroke-linecap="round" stroke-linejoin="round"/>
<path d="M132.582 242.675L129.982 239.204C129.603 240.939 129.386 242.891 129.386 245.007L132.257 245.169C132.257 244.247 132.365 243.434 132.582 242.675Z" fill="#263238" stroke="#263238" stroke-width="0.5" stroke-miterlimit="10" stroke-linecap="round" stroke-linejoin="round"/>
<path d="M133.448 240.559C133.665 240.288 133.881 240.071 134.152 239.963L133.719 232.913C132.798 233.238 131.986 234.106 131.282 235.407L133.448 240.559Z" fill="#263238" stroke="#263238" stroke-width="0.5" stroke-miterlimit="10" stroke-linecap="round" stroke-linejoin="round"/>
<path d="M135.127 252.111C135.019 252.111 134.965 252.165 134.856 252.165C134.585 252.165 134.315 252.057 134.098 251.894L132.69 257.968C133.394 258.782 134.206 259.27 135.019 259.27C135.235 259.27 135.452 259.215 135.669 259.161L135.127 252.111Z" fill="#263238" stroke="#263238" stroke-width="0.5" stroke-miterlimit="10" stroke-linecap="round" stroke-linejoin="round"/>
<path d="M132.527 248.64L129.657 249.888C129.928 251.894 130.415 253.738 131.065 255.202L132.907 249.942C132.744 249.562 132.636 249.074 132.527 248.64Z" fill="#263238" stroke="#263238" stroke-width="0.5" stroke-miterlimit="10" stroke-linecap="round" stroke-linejoin="round"/>
<path d="M126.462 193.323C126.462 193.323 157.928 195.112 160.744 196.251C163.506 197.39 164.211 200.156 164.211 200.156L124.728 198.746L126.462 193.323Z" fill="white" stroke="#263238" stroke-width="0.5" stroke-miterlimit="10" stroke-linecap="round" stroke-linejoin="round"/>
<path d="M149.479 177.758C149.479 177.758 131.553 190.828 124.728 198.746L117.796 197.336L137.023 178.897L149.479 177.758Z" fill="white" stroke="#263238" stroke-width="0.5" stroke-miterlimit="10" stroke-linecap="round" stroke-linejoin="round"/>
<path d="M168.056 202.434C168.056 202.434 171.468 185.839 176.938 176.673C176.938 176.673 157.657 174.07 136.644 177.324C135.398 177.487 116.388 193.485 116.388 193.485C116.388 193.485 105.285 202.976 105.069 204.82C105.069 204.82 111.947 228.845 137.023 245.224L164.265 249.616C164.265 249.616 162.423 220.005 162.694 213.606C162.911 209.755 168.056 202.434 168.056 202.434ZM122.4 196.468C119.638 195.546 122.4 192.78 122.4 192.78L138.81 179.656C150.129 177.812 170.601 179.873 170.601 179.873C169.193 182.422 164.156 200.21 164.156 200.21C164.156 200.21 125.162 197.39 122.4 196.468Z" fill="#04BF68" stroke="#263238" stroke-width="0.5" stroke-miterlimit="10" stroke-linecap="round" stroke-linejoin="round"/>
<path d="M113.626 202.976L110.16 202.651C110.16 202.651 108.806 202.814 108.806 204.007C108.806 205.2 109.889 205.363 109.889 205.363L116.659 205.959C116.659 205.959 116.496 203.898 117.579 203.302L113.626 202.976Z" fill="#263238" stroke="#263238" stroke-width="0.5" stroke-miterlimit="10" stroke-linecap="round" stroke-linejoin="round"/>
<path d="M108.968 205.851C108.968 205.851 110.051 207.315 111.189 207.315C112.272 207.315 116.496 207.749 116.496 207.749" fill="#04BF68"/>
<path d="M108.968 205.851C108.968 205.851 110.051 207.315 111.189 207.315C112.272 207.315 116.496 207.749 116.496 207.749" stroke="#263238" stroke-width="0.5" stroke-miterlimit="10" stroke-linecap="round" stroke-linejoin="round"/>
<path d="M329.071 180.578L330.425 180.469L336.057 197.716L334.487 197.932L329.071 180.578Z" fill="#263238" stroke="#263238" stroke-width="0.5" stroke-miterlimit="10" stroke-linecap="round" stroke-linejoin="round"/>
<path d="M319.864 179.71C319.864 179.71 321.868 178.626 322.301 178.626C322.734 178.626 324.413 180.795 324.413 180.795C324.413 180.795 322.139 182.097 321.868 182.151C321.597 182.259 320.026 181.5 320.026 181.5C320.026 181.5 318.456 182.693 317.752 184.049C317.048 185.405 314.015 190.448 314.015 190.448C314.015 190.448 312.39 192.835 310.657 191.804C308.924 190.774 308.274 188.442 309.032 187.411C309.736 186.489 319.864 179.71 319.864 179.71Z" fill="#FFBF9D" stroke="#263238" stroke-width="0.5" stroke-miterlimit="10" stroke-linecap="round" stroke-linejoin="round"/>
<path d="M318.293 182.259C318.293 182.259 318.835 182.91 319.377 182.964C319.918 183.073 321.489 183.073 321.489 183.073C321.489 183.073 323.222 182.91 321.868 182.151C320.514 181.446 319.431 181.066 319.431 181.066" fill="white"/>
<path d="M318.293 182.259C318.293 182.259 318.835 182.91 319.377 182.964C319.918 183.073 321.489 183.073 321.489 183.073C321.489 183.073 323.222 182.91 321.868 182.151C320.514 181.446 319.431 181.066 319.431 181.066" stroke="#263238" stroke-width="0.5" stroke-miterlimit="10" stroke-linecap="round" stroke-linejoin="round"/>
<path d="M68.7821 138.439L61.4706 143.754L54.8091 138.602C51.7761 136.433 49.8264 132.908 49.8264 128.949C49.8264 122.386 55.134 117.072 61.6873 117.072C68.2405 117.072 73.5481 122.386 73.5481 128.949C73.494 132.853 71.7067 136.27 68.7821 138.439Z" fill="white" stroke="#455A64" stroke-width="0.2" stroke-miterlimit="10" stroke-linecap="round" stroke-linejoin="round"/>
<path d="M51.2346 128.84C51.2346 131.389 52.1553 133.667 53.6176 135.511C55.5131 137.843 58.4377 139.307 61.6331 139.307C64.6119 139.307 67.3198 138.06 69.2154 136.053C71.0026 134.155 72.0858 131.66 72.0858 128.84C72.0858 123.091 67.4281 118.427 61.6873 118.427C55.8922 118.373 51.2346 123.037 51.2346 128.84Z" fill="#04BF68" stroke="#455A64" stroke-width="0.2" stroke-miterlimit="10" stroke-linejoin="round"/>
<path d="M61.6331 139.253C64.2328 139.253 66.5616 138.331 68.403 136.758C68.0781 133.233 65.0993 130.467 61.4706 130.467C57.9503 130.467 55.0799 133.07 54.5924 136.487C56.4338 138.222 58.9252 139.253 61.6331 139.253Z" fill="#263238" stroke="#455A64" stroke-width="0.2" stroke-miterlimit="10" stroke-linejoin="round"/>
<path d="M65.893 127.131C66.6298 124.695 65.2544 122.121 62.821 121.383C60.3876 120.646 57.8177 122.023 57.0809 124.46C56.3441 126.896 57.7194 129.47 60.1528 130.207C62.5862 130.945 65.1562 129.568 65.893 127.131Z" fill="#263238" stroke="#455A64" stroke-width="0.2" stroke-miterlimit="10" stroke-linejoin="round"/>
<path d="M195.894 171.684L188.582 176.999L181.921 171.847C178.888 169.677 176.938 166.152 176.938 162.193C176.938 155.631 182.246 150.316 188.799 150.316C195.352 150.316 200.66 155.631 200.66 162.193C200.605 166.098 198.872 169.569 195.894 171.684Z" fill="white" stroke="#263238" stroke-width="0.2" stroke-miterlimit="10" stroke-linecap="round" stroke-linejoin="round"/>
<path d="M178.4 162.085C178.4 164.634 179.321 166.911 180.783 168.755C182.679 171.087 185.603 172.552 188.799 172.552C191.778 172.552 194.485 171.304 196.381 169.298C198.168 167.399 199.251 164.905 199.251 162.085C199.251 156.336 194.594 151.672 188.853 151.672C183.058 151.672 178.4 156.336 178.4 162.085Z" fill="#04BF68" stroke="#263238" stroke-width="0.2" stroke-miterlimit="10" stroke-linejoin="round"/>
<path d="M188.799 172.552C191.398 172.552 193.727 171.63 195.569 170.057C195.244 166.532 192.265 163.766 188.636 163.766C185.116 163.766 182.246 166.369 181.758 169.786C183.599 171.467 186.091 172.552 188.799 172.552Z" fill="#263238" stroke="#263238" stroke-width="0.2" stroke-miterlimit="10" stroke-linejoin="round"/>
<path d="M193.102 160.099C193.688 157.621 192.158 155.137 189.684 154.55C187.21 153.963 184.729 155.495 184.143 157.972C183.556 160.45 185.087 162.934 187.561 163.521C190.035 164.108 192.516 162.576 193.102 160.099Z" fill="#263238" stroke="#263238" stroke-width="0.2" stroke-miterlimit="10" stroke-linejoin="round"/>
<path d="M63.9619 274.075C79.0671 274.075 91.3123 272.861 91.3123 271.364C91.3123 269.866 79.0671 268.652 63.9619 268.652C48.8568 268.652 36.6116 269.866 36.6116 271.364C36.6116 272.861 48.8568 274.075 63.9619 274.075Z" fill="#263238" stroke="#263238" stroke-width="0.5" stroke-miterlimit="10" stroke-linecap="round" stroke-linejoin="round"/>
<path d="M78.9099 256.829L81.7261 265.507C81.7261 265.507 85.8964 266.483 86.9254 266.32C87.9544 266.212 91.6914 265.452 91.7997 266.157C91.9081 266.862 90.7166 267.351 90.3375 267.676C89.9583 268.056 87.3587 269.683 86.3838 270.116C85.409 270.55 82.3761 271.418 81.5095 271.852C80.643 272.286 79.5598 273.045 78.9099 271.635C78.2058 270.279 77.935 268.544 77.8267 267.622C77.7184 266.7 73.169 259.378 73.169 259.378L78.9099 256.829Z" fill="#FFBF9D" stroke="#263238" stroke-width="0.5" stroke-miterlimit="10" stroke-linecap="round" stroke-linejoin="round"/>
<path d="M86.9254 266.374C86.7629 266.374 86.4921 266.374 86.2213 266.374L86.438 267.622C86.438 267.622 80.9679 269.628 78.2599 270.279C78.4224 270.767 78.5849 271.31 78.8557 271.743C79.5598 273.099 80.5888 272.34 81.4553 271.96C82.3219 271.527 85.3548 270.659 86.3297 270.225C87.3045 269.791 89.9042 268.11 90.2833 267.784C90.6624 267.405 91.8539 266.971 91.7456 266.266C91.6914 265.507 87.9544 266.266 86.9254 266.374Z" fill="#04BF68" stroke="#263238" stroke-width="0.5" stroke-miterlimit="10" stroke-linecap="round" stroke-linejoin="round"/>
<path d="M97.0532 172.552C97.0532 172.552 98.7321 172.226 98.5696 172.606C98.4072 172.986 97.2157 173.257 97.2157 173.257C97.2157 173.257 98.5155 173.311 98.2447 173.582C97.9739 173.853 97.324 173.907 97.324 173.907L96.7824 174.45C96.7824 174.45 96.2408 174.938 96.1325 175.101C95.97 175.263 94.8868 176.131 94.616 175.643C94.3452 175.209 94.616 174.233 94.8868 174.016C95.0493 173.853 97.0532 172.552 97.0532 172.552Z" fill="#FFBF9D" stroke="#263238" stroke-width="0.5" stroke-miterlimit="10" stroke-linecap="round" stroke-linejoin="round"/>
<path d="M66.6699 178.084L75.7145 183.019L91.5831 177.324C91.5831 177.324 92.2872 176.294 93.3162 174.613C94.3452 172.986 96.1325 172.172 96.8907 171.684C97.6489 171.196 98.353 171.413 98.1364 171.901C97.9197 172.389 96.4574 172.823 96.1866 173.148C95.8617 173.474 94.3994 175.535 94.3994 175.535C94.3994 175.535 97.0532 174.179 97.5406 174.179C97.9739 174.125 98.2447 174.504 97.5948 174.884C96.9449 175.318 95.8617 175.914 95.645 176.24C95.4284 176.511 94.8868 177.162 94.5077 177.487C94.0744 177.758 93.4245 178.138 93.4245 178.138C93.4245 178.138 78.0975 188.442 77.2309 188.876C76.3644 189.31 74.6313 189.31 74.6313 189.31L66.3449 185.893L66.6699 178.084Z" fill="#FFBF9D" stroke="#263238" stroke-width="0.5" stroke-miterlimit="10" stroke-linecap="round" stroke-linejoin="round"/>
<path d="M77.8267 182.259L75.7145 183.019L66.6699 178.083L66.2908 185.839L74.5771 189.255C74.5771 189.255 76.3102 189.255 77.1768 188.822C77.3934 188.713 78.4224 188.062 79.993 187.14L77.8267 182.259Z" fill="#04BF68" stroke="#263238" stroke-width="0.5" stroke-miterlimit="10" stroke-linecap="round" stroke-linejoin="round"/>
<path d="M42.5692 254.823L39.9154 261.168C39.9154 261.168 36.0701 264.856 36.1243 265.398C36.1784 265.94 36.7742 267.188 37.8574 267.73C38.9406 268.273 40.6195 269.194 40.6195 269.194C40.6195 269.194 43.2191 270.876 44.8439 271.255C46.4687 271.635 48.2018 272.286 48.4726 271.418C48.7434 270.55 45.6563 268.761 45.6563 268.761C45.6563 268.761 44.2482 266.049 43.9774 265.235C43.7066 264.422 43.869 262.632 43.869 262.632L48.7434 257.155L42.5692 254.823Z" fill="#FFBF9D" stroke="#263238" stroke-width="0.5" stroke-miterlimit="10" stroke-linecap="round" stroke-linejoin="round"/>
<path d="M45.602 268.869C45.602 268.869 44.573 268.815 43.8147 268.598C43.0565 268.327 41.3776 266.808 39.6986 264.856C39.1029 264.151 38.5071 263.608 38.0197 263.12C37.0448 264.151 36.07 265.235 36.1241 265.452C36.1783 265.995 36.774 267.242 37.8572 267.784C38.9404 268.327 40.6193 269.249 40.6193 269.249C40.6193 269.249 43.219 270.93 44.8438 271.31C46.4685 271.689 48.2016 272.34 48.4724 271.472C48.6891 270.604 45.602 268.869 45.602 268.869Z" fill="#04BF68" stroke="#263238" stroke-width="0.5" stroke-miterlimit="10" stroke-linecap="round" stroke-linejoin="round"/>
<path d="M50.6388 215.125V234.703L40.5652 254.443L49.6639 259.867L60.5499 239.095L63.1495 224.507L50.6388 215.125Z" fill="#455A64" stroke="#263238" stroke-width="0.5" stroke-miterlimit="10" stroke-linecap="round" stroke-linejoin="round"/>
<path d="M50.0431 204.495C50.0431 204.495 47.7684 211.979 48.1475 213.66C48.5808 215.341 61.1457 240.668 61.1457 240.668L71.2734 261.439L82.5385 258.077L72.9524 230.96L65.8575 214.257V205.308L50.0431 204.495Z" fill="#455A64" stroke="#263238" stroke-width="0.5" stroke-miterlimit="10" stroke-linecap="round" stroke-linejoin="round"/>
<path d="M65.8033 168.05L64.7743 170.708L62.1747 169.298L62.4455 166.478L65.8033 168.05Z" fill="#FFBF9D" stroke="#263238" stroke-width="0.5" stroke-miterlimit="10" stroke-linecap="round" stroke-linejoin="round"/>
<path d="M66.3991 171.358C66.3991 171.358 64.8285 171.847 64.991 173.365C65.1535 174.884 67.5906 180.795 68.1864 183.941C68.7821 187.086 68.2947 187.791 68.403 189.147C68.5113 190.503 67.8614 203.356 68.078 205.579C68.2405 207.803 67.374 207.966 61.5248 207.857C55.6756 207.749 52.3177 206.935 50.4763 205.905C48.6349 204.874 49.5015 203.247 50.1514 201.946C50.8013 200.644 53.5092 183.669 54.9174 179.385C56.3255 175.101 56.5963 173.528 58.871 171.955C61.1457 170.437 61.4706 170.708 61.6331 170.057C61.7956 169.406 62.1747 168.43 62.1747 168.43L66.3991 171.358Z" fill="#04BF68" stroke="#263238" stroke-width="0.5" stroke-miterlimit="10" stroke-linecap="round" stroke-linejoin="round"/>
<path d="M61.254 187.845C61.254 187.845 62.8246 189.581 64.991 189.798" stroke="#263238" stroke-width="0.5" stroke-miterlimit="10" stroke-linecap="round" stroke-linejoin="round"/>
<path d="M60.4416 193.702C60.6582 193.974 60.8749 194.245 61.0915 194.462" stroke="#263238" stroke-width="0.5" stroke-miterlimit="10" stroke-linecap="round" stroke-linejoin="round"/>
<path d="M57.842 188.171C57.842 188.171 58.4919 190.611 59.8459 192.78" stroke="#263238" stroke-width="0.5" stroke-miterlimit="10" stroke-linecap="round" stroke-linejoin="round"/>
<path d="M71.3276 156.011C71.3276 156.011 72.0858 157.692 71.4901 159.482C70.8943 161.271 70.7318 162.139 71.2193 162.844C71.7067 163.549 71.9234 164.417 71.111 164.851C70.3527 165.285 69.8653 165.285 69.8653 165.285C69.8653 165.285 68.5113 168.647 67.5906 168.972C66.6699 169.298 63.7453 168.159 62.7705 167.562C61.8498 166.912 62.608 160.295 63.2579 159.156C63.9078 158.017 71.3276 156.011 71.3276 156.011Z" fill="#FFBF9D" stroke="#263238" stroke-width="0.5" stroke-miterlimit="10" stroke-linecap="round" stroke-linejoin="round"/>
<path d="M68.6738 165.285C67.6448 165.339 67.2115 164.2 67.2115 164.2C67.2115 164.2 66.5616 166.098 67.374 166.369C68.1864 166.64 68.6738 165.285 68.6738 165.285Z" stroke="#263238" stroke-width="0.5" stroke-miterlimit="10" stroke-linecap="round" stroke-linejoin="round"/>
<path d="M70.2986 161.542C70.1903 161.976 69.9195 162.356 69.7028 162.302C69.4862 162.247 69.3237 161.868 69.432 161.38C69.5403 160.946 69.8111 160.566 70.0278 160.62C70.2444 160.675 70.3527 161.054 70.2986 161.542Z" fill="#263238"/>
<path d="M73.6564 152.757C73.6564 152.757 73.7106 155.197 71.8692 156.499C70.0278 157.746 65.3159 159.156 64.6119 159.59C63.9078 160.024 63.9078 160.783 63.9078 160.783C63.9078 160.783 63.2579 165.122 63.2579 166.966C63.2579 168.81 64.9368 170.382 64.3411 171.738C63.7453 173.094 61.7414 173.202 60.4958 173.202C59.2501 173.257 59.5751 175.046 57.3545 176.185C55.134 177.324 53.3468 176.782 52.1553 175.046C50.9637 173.311 51.5595 172.443 50.5305 172.064C49.5015 171.684 47.8225 172.497 46.631 169.623C45.4395 166.749 46.5227 164.579 47.3892 164.037C48.2558 163.495 51.5595 163.657 51.397 160.078C51.2345 156.499 54.2675 150.804 58.7627 148.472C63.2579 146.14 70.5152 150.587 71.4901 151.021C72.4649 151.455 73.7106 151.889 73.6564 152.757Z" fill="#263238" stroke="#263238" stroke-width="0.5" stroke-miterlimit="10" stroke-linecap="round" stroke-linejoin="round"/>
<path d="M69.3779 200.59C69.3779 200.59 66.8324 181.5 64.7743 176.945C62.7163 172.389 60.5499 170.165 57.3004 174.179C54.0508 178.192 52.5344 201.566 52.5344 201.566" stroke="#263238" stroke-width="0.5" stroke-miterlimit="10" stroke-linecap="round" stroke-linejoin="round"/>
<path d="M62.6621 179.765C62.6621 179.765 55.134 197.336 53.9967 198.475C52.8593 199.614 48.5808 202 47.4976 199.18C46.4144 196.414 55.5131 175.806 57.517 173.745C59.5209 171.684 63.3662 172.498 63.4745 176.185" fill="#04BF68"/>
<path d="M62.6621 179.765C62.6621 179.765 55.134 197.336 53.9967 198.475C52.8593 199.614 48.5808 202 47.4976 199.18C46.4144 196.414 55.5131 175.806 57.517 173.745C59.5209 171.684 63.3662 172.498 63.4745 176.185" stroke="#263238" stroke-width="0.5" stroke-miterlimit="10" stroke-linecap="round" stroke-linejoin="round"/>
<path d="M63.312 196.74C63.312 196.74 64.8827 196.414 65.7492 195.546C66.6158 194.679 67.6448 194.408 68.6196 194.516C69.5403 194.625 70.8402 194.57 70.8943 195.546C70.9485 196.468 70.2986 197.011 70.0278 197.173C69.757 197.336 69.4862 200.536 68.7821 200.97C68.0781 201.404 65.2076 200.644 64.2328 200.482C63.2037 200.265 56.8671 201.295 53.6717 200.97C50.4763 200.644 47.6059 200.482 47.5517 199.289C47.4976 198.095 49.0682 194.841 52.6427 194.733C56.2172 194.516 59.196 196.74 63.312 196.74Z" fill="#FFBF9D" stroke="#263238" stroke-width="0.5" stroke-miterlimit="10" stroke-linecap="round" stroke-linejoin="round"/>
<path d="M69.3779 200.59C69.3779 200.59 67.8072 201.512 60.5499 201.675C53.2926 201.783 52.5344 201.566 52.5344 201.566C52.5344 201.566 50.368 210.894 51.1262 211.925C52.5344 213.769 67.1573 213.443 68.6196 212.033C70.0819 210.623 69.3779 200.59 69.3779 200.59Z" fill="#969696" stroke="#263238" stroke-width="0.5" stroke-miterlimit="10" stroke-linecap="round" stroke-linejoin="round"/>
<path d="M69.2695 159.97C69.2695 159.97 69.757 159.21 70.6777 159.59" stroke="#263238" stroke-width="0.5" stroke-miterlimit="10" stroke-linecap="round" stroke-linejoin="round"/>
</svg>
