<svg width="57" height="57" viewBox="0 0 57 57" fill="none" xmlns="http://www.w3.org/2000/svg">
<path d="M21.6244 38.8521V35.2741L28.8728 27.7482C30.3327 26.2471 31.0627 24.9722 31.0627 23.9235C31.0627 23.2449 30.8571 22.7 30.4458 22.2888C30.0346 21.857 29.4691 21.6411 28.7494 21.6411C27.31 21.6411 26.251 22.4224 25.5725 23.9852L21.4085 21.5485C22.0665 20.0063 23.0535 18.8342 24.3696 18.0323C25.6856 17.2303 27.125 16.8294 28.6877 16.8294C30.7029 16.8294 32.4199 17.4565 33.8387 18.7109C35.2781 19.9446 35.9978 21.6102 35.9978 23.7076C35.9978 25.9901 34.8771 28.252 32.6358 30.4933L29.0579 34.1021H36.3062V38.8521H21.6244Z" fill="#04BF68"/>
<path d="M54.2013 18.0366L54.0615 17.6959L53.8018 17.957L48.6302 23.156L48.5316 23.2551L48.567 23.3904C48.9994 25.0387 49.2158 26.7417 49.2158 28.5C49.2158 39.9123 39.9396 49.1884 28.5274 49.1884C17.0875 49.1884 7.81161 39.9121 7.81161 28.5C7.81161 26.7138 8.02811 24.9835 8.46033 23.3357L8.49581 23.2004L8.39718 23.1012L3.22554 17.9022L2.96501 17.6403L2.82581 17.9825C1.50106 21.2392 0.755556 24.7729 0.755556 28.5C0.755556 43.7942 13.2058 56.2445 28.5 56.2445C43.7942 56.2445 56.2445 43.7942 56.2445 28.5C56.2445 24.8015 55.5268 21.2675 54.2013 18.0366ZM45.7 17.0068L45.8656 17.2538L46.0758 17.0435L50.7823 12.337L50.9313 12.188L50.8059 12.0187C45.7545 5.2007 37.6383 0.755556 28.5 0.755556C19.3895 0.755556 11.2731 5.17302 6.2215 11.9913L6.09604 12.1606L6.24506 12.3097L10.9515 17.0161L11.1618 17.2264L11.3274 16.9794C14.4647 12.3006 19.4678 8.97445 25.2542 8.05494C26.3084 7.89279 27.3903 7.81161 28.5 7.81161C29.6098 7.81161 30.6917 7.8928 31.7459 8.05496C37.5591 8.97441 42.5624 12.3275 45.7 17.0068Z" fill="#04BF68" stroke="#75BF7A" stroke-width="0.488889"/>
</svg>
